<svg xmlns="http://www.w3.org/2000/svg" width="128" height="128" overflow="visible" viewBox="0 0 900 900"><defs><style>.cls-1{isolation:isolate;}.cls-2{fill:#3d200c;}.cls-16,.cls-3,.cls-5{fill:#fff;}.cls-10,.cls-12,.cls-4{fill:#c1723d;}.cls-5{opacity:0.2;}.cls-5,.cls-7{mix-blend-mode:overlay;}.cls-6{fill:#9b6642;}.cls-15,.cls-6{opacity:0.5;}.cls-10,.cls-12,.cls-15,.cls-6,.cls-8{mix-blend-mode:multiply;}.cls-14,.cls-15,.cls-7{fill:#acaeaf;}.cls-7{opacity:0.6;}.cls-8{fill:#af734a;}.cls-12,.cls-8{opacity:0.4;}.cls-9{fill:#606060;}.cls-10{opacity:0.3;}.cls-11{fill:#fff3ee;}.cls-13{fill:none;stroke:#3d200c;stroke-miterlimit:10;stroke-width:2px;}.cls-16{opacity:0.45;mix-blend-mode:screen;}</style></defs><g class="cls-1"><g id="Layer_1" data-name="Layer 1"><path class="cls-2" d="M245.35,497.5c-5.42,0-10.37-.21-15.15-.62-2.61-.26-6-.63-9.45-1.2h-.11c-1.51-.25-3.06-.51-4.59-.84l-.79-.16-1.55-.33a11,11,0,0,1-2.73-1,5.91,5.91,0,0,1-2.53-2.49,5.65,5.65,0,0,1-.48-3.61,12.78,12.78,0,0,1,2.41-5,29.79,29.79,0,0,1,2.1-2.55c-1.73.17-3.52.26-5.44.26s-4-.09-6.34-.27a27.14,27.14,0,0,1-9.15-2.05,11.52,11.52,0,0,1-1.15-.62c-.23-.13-.43-.26-.64-.4l-.31-.19a15.48,15.48,0,0,1-2-1.49,6.34,6.34,0,0,1-1.8-2.52,4.94,4.94,0,0,1-.3-1.66c-.54-.11-1-.22-1.43-.33a24.92,24.92,0,0,1-4.51-1.67,14.58,14.58,0,0,1-4.17-3,9.56,9.56,0,0,1-2.6-4.89,8.18,8.18,0,0,1,.38-4.47l-.48-.54a36.92,36.92,0,0,1-5.22-8.23,48.2,48.2,0,0,1-3.19-9.08,69.13,69.13,0,0,1-1.61-18.93c.13-3.08.39-6.23.78-9.37.42-3.36,1-6.69,1.4-9.22.27-1.62.55-3.23.83-4.83.55-3.15,1.11-6.38,1.61-9.58l-.63.6a46.23,46.23,0,0,1-5.55,4.2,42.37,42.37,0,0,1-12.78,5.45,41.13,41.13,0,0,1-9.89,1.2A38.74,38.74,0,0,1,120.82,394a38,38,0,0,1-11.15-8.47,52.32,52.32,0,0,1-7.78-11.43,72.38,72.38,0,0,1-7.11-26.28,96.77,96.77,0,0,1,1.57-27,81.49,81.49,0,0,1,9.4-25.43A72.33,72.33,0,0,1,122.28,276a7.29,7.29,0,0,1-.45-.61l-.16-.28a4,4,0,0,1-.33-.78,6.14,6.14,0,0,1,.06-3.81,11.31,11.31,0,0,1,1.43-2.9,11.48,11.48,0,0,1,2.09-2.36,21.16,21.16,0,0,1,4.89-3.1c1.72-.8,3.35-1.45,5-2.1L135,260a2.59,2.59,0,0,1-.14-.29,5.54,5.54,0,0,1-.47-1.86,4.36,4.36,0,0,1,.45-2.24,6.53,6.53,0,0,1,2.5-2.52,14,14,0,0,1,2.6-1.14,41.23,41.23,0,0,1,9.88-2.16,37.52,37.52,0,0,1,4.11-.18h.92c.93,0,1.73.09,2.48.15a2.7,2.7,0,0,1,.78-1.58,5.17,5.17,0,0,1,2.08-1.4,13.57,13.57,0,0,1,2-.62,19.74,19.74,0,0,1,5-.58c.91,0,1.87.05,2.93.14a57,57,0,0,1,7.47,1.27,73.42,73.42,0,0,1,7.26,2,72.6,72.6,0,0,1,13.71,6.23,69.3,69.3,0,0,1,9.86,6.94c.52-1.64,1.1-3.39,1.81-5.43,1.35-3.83,2.8-7.91,4.34-11.88a312.38,312.38,0,0,1,21.44-45,21.63,21.63,0,0,1,.57-10.61,30.23,30.23,0,0,1,5.5-10.41,27.74,27.74,0,0,1,9.24-7.48,20.66,20.66,0,0,1,8.88-2.08,17.58,17.58,0,0,1,3.18.28,21,21,0,0,1,10.67,5.67,24.59,24.59,0,0,1,6.43,9.95c.11.34.21.71.31,1.1,6.56-.46,13.6-.86,20.71-.86,1.9,0,3.76,0,5.54.09,4.24.14,8.35.45,12.23.91a16.69,16.69,0,0,1,3.31-6.39c.84-1.09,1.73-2.05,2.72-3.11s1.86-2,2.92-2.92a19.81,19.81,0,0,1,7.35-4.42,9.32,9.32,0,0,1,2.7-.38,13.17,13.17,0,0,1,6,1.59,15.69,15.69,0,0,1,3.57,2.49,13,13,0,0,1,1.48,1.6c.48.56.9,1.1,1.28,1.62a38.84,38.84,0,0,1,7.94,23c.62.33,1.23.67,1.84,1a249.41,249.41,0,0,1,23.45,14.83c3.75,2.69,7.47,5.51,11.06,8.38l1.09.88a79.59,79.59,0,0,1,9.41,8.41,32.94,32.94,0,0,1,4.25,5.84,39,39,0,0,1,2.87,6.57c1.31,3.91,2.25,7.91,3.17,11.78l.39,1.69c2,8.55,3.65,17.44,5.18,27.2,1.37,8.73,2.53,18,3.45,27.44l.06.57a.71.71,0,0,1-.19.56l-.4.41a83.18,83.18,0,0,1-10,9.13,87.25,87.25,0,0,1-11.26,7.47c-1.51.85-3.07,1.67-4.75,2.5a132,132,0,0,0,8.3,14.9,129,129,0,0,0,12.1,15.8,144.12,144.12,0,0,0,14.34,13.86c1.08.92,2.22,1.81,3.32,2.66l.59.46c.51.41,1,.8,1.56,1.19.84.62,1.7,1.26,2.52,2a12.05,12.05,0,0,1,3.41,4.54,10.43,10.43,0,0,1,.53,5.73,32.38,32.38,0,0,1-1.35,5.12c-.45,1.46-1,3-1.68,4.85a91.71,91.71,0,0,1-4.17,9.42A85.72,85.72,0,0,1,426,431.8a58.12,58.12,0,0,1-7.55,7.25,35.75,35.75,0,0,1-9.2,5.44,20.66,20.66,0,0,1-7.45,1.48h0a16.12,16.12,0,0,1-3.64-.41,20.59,20.59,0,0,1-6.47-2.85c-.32.69-.65,1.38-1,2.06a166.46,166.46,0,0,1-12.76,21.7c1.18-.15,2.33-.25,3.43-.32s2-.08,3-.08a40.61,40.61,0,0,1,8,.75,35.41,35.41,0,0,1,10.52,3.72,31.5,31.5,0,0,1,8.72,7.07,26.92,26.92,0,0,1,5.43,9.94,10.78,10.78,0,0,1,.36,1.4l.15.68a3.33,3.33,0,0,1,.07,1.35,2.9,2.9,0,0,1-.8,1.62,3.62,3.62,0,0,1-1.1.79,6.86,6.86,0,0,1-1.76.54c-.76.13-1.41.2-2.07.27l-.7.08c-.91.1-1.81.18-2.71.24-2.18.15-4.46.22-7,.22-4.06,0-8.15-.19-12.11-.39l-2.27-.1c-8.31-.4-15-.8-21.15-1.28-7.64-.59-14.55-1.36-21.14-2.34-1.76-.28-3.52-.56-5.27-.87a25.24,25.24,0,0,1-2.76-.58,8.76,8.76,0,0,1-3-1.49,5.36,5.36,0,0,1-1.3-1.5,5.25,5.25,0,0,1-.64-1.87,9.5,9.5,0,0,1,.12-3.23,17.15,17.15,0,0,1,1.6-4.54l-.37-.24a14.44,14.44,0,0,0-6.18-1.93,26.51,26.51,0,0,0-3.25-.17c-1.18,0-2.38.05-3.71.11l-7.23.36c-2.31.13-4.66.32-6.94.51l-.22,0c-2.49.22-5,.51-7.13.78l-2.35.3-.7.1a51.7,51.7,0,0,0-4.18,6.78c-.6,1.19-1.3,2.61-1.89,4.09-.21.52-.4,1-.59,1.53l-.23.61a9.62,9.62,0,0,1-1.4,2.55,9.34,9.34,0,0,1-4.84,3.21,13.29,13.29,0,0,1-2.68.5l-2.35.19-9.36.72C261.8,497,253.66,497.5,245.35,497.5Z"/><path class="cls-2" d="M338.16,169.92a12.66,12.66,0,0,1,5.68,1.51,15.31,15.31,0,0,1,3.4,2.38,12.75,12.75,0,0,1,1.42,1.53c.43.52.86,1,1.26,1.59a38.85,38.85,0,0,1,4.22,7,37.11,37.11,0,0,1,3.59,15.89h-.26l2.45,1.34a248.81,248.81,0,0,1,23.38,14.79q5.64,4,11,8.35a89.63,89.63,0,0,1,10.42,9.22,32.1,32.1,0,0,1,4.16,5.71,40,40,0,0,1,2.82,6.45c1.48,4.44,2.48,8.93,3.54,13.41,2.06,9,3.75,18.05,5.16,27.15s2.57,18.23,3.46,27.39l.05.58-.39.41h0a82.44,82.44,0,0,1-9.89,9.06,85.93,85.93,0,0,1-11.18,7.41q-2.62,1.47-5.33,2.78a134,134,0,0,0,8.64,15.61A129.33,129.33,0,0,0,418,365.36a144.76,144.76,0,0,0,14.41,13.93c1.27,1.09,2.61,2.1,3.93,3.13s2.74,2,4,3.15a11.45,11.45,0,0,1,3.22,4.27,9.87,9.87,0,0,1,.49,5.36,32.32,32.32,0,0,1-1.33,5c-.5,1.62-1.07,3.23-1.66,4.83a89.54,89.54,0,0,1-4.15,9.35,84.31,84.31,0,0,1-11.46,16.95A56.77,56.77,0,0,1,418,438.5a35,35,0,0,1-9,5.34,20.12,20.12,0,0,1-7.2,1.43,15.22,15.22,0,0,1-3.48-.39,20.77,20.77,0,0,1-6.92-3.2c-.43.93-.87,1.86-1.32,2.78a169.68,169.68,0,0,1-13.6,22.92c1.63-.25,3.28-.43,4.94-.53,1-.05,2-.08,2.94-.08a39.66,39.66,0,0,1,7.9.74,34.81,34.81,0,0,1,10.32,3.64,31,31,0,0,1,8.53,6.92,26.5,26.5,0,0,1,5.29,9.67c.14.45.25.9.35,1.36l.15.68a2.79,2.79,0,0,1,.06,1.08,2.34,2.34,0,0,1-.61,1.25,2.81,2.81,0,0,1-.91.65,6.35,6.35,0,0,1-1.58.48c-1,.17-1.81.24-2.72.34s-1.78.18-2.68.24c-2.31.16-4.61.22-6.91.22-4.82,0-9.6-.27-14.36-.49-7-.34-14.08-.73-21.13-1.28S352,491,345,489.93c-1.75-.27-3.5-.55-5.24-.86a22,22,0,0,1-2.69-.57,7.8,7.8,0,0,1-2.8-1.36,4.4,4.4,0,0,1-1.69-2.93,9,9,0,0,1,.11-3,17.35,17.35,0,0,1,1.82-4.88c-.29-.22-.59-.43-.89-.62a15.36,15.36,0,0,0-6.48-2,28.35,28.35,0,0,0-3.33-.17c-1.24,0-2.49.05-3.74.11l-7.24.37c-2.39.13-4.78.32-7.18.52s-4.77.49-7.16.78l-3.35.44a53.42,53.42,0,0,0-4.42,7.12c-.68,1.36-1.34,2.73-1.91,4.14-.29.72-.53,1.39-.82,2.17a9.59,9.59,0,0,1-1.3,2.36,8.66,8.66,0,0,1-4.48,3,13.44,13.44,0,0,1-2.55.47l-2.35.19-9.35.72c-7.49.53-15,.93-22.56.93-5,0-10.06-.18-15.09-.62-3.14-.31-6.28-.67-9.4-1.19-1.56-.25-3.11-.51-4.66-.85-.78-.16-1.54-.3-2.34-.48a11.09,11.09,0,0,1-2.55-.93,5.43,5.43,0,0,1-2.24-2.2,4.93,4.93,0,0,1-.41-3.16,12,12,0,0,1,2.29-4.75,34.18,34.18,0,0,1,3.38-3.88,50.79,50.79,0,0,1-7.28.49c-2.11,0-4.21-.11-6.29-.27a26.39,26.39,0,0,1-8.92-2c-.36-.17-.72-.36-1.07-.57s-.62-.39-1-.6a13.82,13.82,0,0,1-1.92-1.41,5.61,5.61,0,0,1-1.61-2.24,4.26,4.26,0,0,1-.23-2c-.66-.12-1.33-.25-2-.43a23.31,23.31,0,0,1-4.38-1.62,13.67,13.67,0,0,1-4-2.82,8.87,8.87,0,0,1-2.42-4.53,7.28,7.28,0,0,1,.51-4.47l-.76-.87a36.18,36.18,0,0,1-5.12-8.06,47,47,0,0,1-3.15-9,68.38,68.38,0,0,1-1.59-18.73q.2-4.68.77-9.32c.4-3.08.88-6.14,1.4-9.19.94-5.53,2-11,2.77-16.52-.69.71-1.39,1.41-2.13,2.08a44.16,44.16,0,0,1-5.45,4.14A42.13,42.13,0,0,1,148,396.2a40.66,40.66,0,0,1-9.72,1.18,37.92,37.92,0,0,1-17.13-4,37.31,37.31,0,0,1-11-8.32,51.68,51.68,0,0,1-7.68-11.28,71.92,71.92,0,0,1-7-26A96.55,96.55,0,0,1,97,321a81,81,0,0,1,9.32-25.21,72,72,0,0,1,17-19.68l-.34-.3a8.23,8.23,0,0,1-.57-.75,4.89,4.89,0,0,1-.34-4.27,10.61,10.61,0,0,1,1.34-2.72,11,11,0,0,1,2-2.22,20.11,20.11,0,0,1,4.74-3c1.67-.78,3.25-1.41,4.95-2.08.31-.12.63-.21.94-.32a5.68,5.68,0,0,1-.55-1,5,5,0,0,1-.41-1.62,3.7,3.7,0,0,1,.37-1.89,5.92,5.92,0,0,1,2.25-2.23,13.21,13.21,0,0,1,2.45-1.08,40.68,40.68,0,0,1,9.73-2.12,36.48,36.48,0,0,1,4.05-.18h.91c1.06,0,2.11.11,3.16.22a2.18,2.18,0,0,1,.58-1.84,4.77,4.77,0,0,1,1.86-1.27,16.35,16.35,0,0,1,1.89-.59,19.44,19.44,0,0,1,4.78-.55c1,0,1.92,0,2.86.14a56.71,56.71,0,0,1,7.39,1.25,71.53,71.53,0,0,1,7.18,2,70.79,70.79,0,0,1,13.59,6.17,70.07,70.07,0,0,1,10.57,7.55c.66-2.17,1.38-4.31,2.12-6.41,1.39-4,2.79-7.94,4.32-11.87A313,313,0,0,1,236.64,200a20.83,20.83,0,0,1,.5-10.52,29.27,29.27,0,0,1,5.37-10.17,27.1,27.1,0,0,1,9-7.29,19.87,19.87,0,0,1,8.57-2,16.58,16.58,0,0,1,3.06.27,20.13,20.13,0,0,1,10.3,5.48,23.94,23.94,0,0,1,6.26,9.67q.24.79.42,1.62c7.06-.49,14.15-.9,21.26-.9,1.83,0,3.68,0,5.52.09,4.27.14,8.54.45,12.8,1a15.82,15.82,0,0,1,3.31-6.73c.85-1.1,1.77-2.09,2.68-3.06s1.86-2,2.88-2.88a19.31,19.31,0,0,1,7.08-4.27,9,9,0,0,1,2.5-.35m0-1.4a9.9,9.9,0,0,0-2.89.41,20.16,20.16,0,0,0-7.62,4.57c-1.08,1-2.06,2-3,3s-1.9,2-2.77,3.17a17.75,17.75,0,0,0-3.27,6c-3.73-.42-7.65-.71-11.68-.84-1.8-.06-3.67-.09-5.57-.09-6.93,0-13.77.38-20.18.82-.06-.2-.11-.39-.17-.57a25.36,25.36,0,0,0-6.61-10.24,21.75,21.75,0,0,0-11.05-5.86,18.73,18.73,0,0,0-3.29-.29,21.25,21.25,0,0,0-9.18,2.15,28.35,28.35,0,0,0-9.48,7.66,30.76,30.76,0,0,0-5.63,10.67,22.32,22.32,0,0,0-.64,10.68,314.16,314.16,0,0,0-21.35,44.9c-1.55,4-2.94,7.89-4.35,11.9-.57,1.64-1.06,3.1-1.5,4.46a69.74,69.74,0,0,0-9.16-6.35A73.09,73.09,0,0,0,185,248.39a71,71,0,0,0-7.31-2.06,56.91,56.91,0,0,0-7.56-1.28c-1.09-.1-2.06-.15-3-.15a20.12,20.12,0,0,0-5.13.6,17.33,17.33,0,0,0-2.06.64,6.16,6.16,0,0,0-2.36,1.62,3.23,3.23,0,0,0-.78,1.28c-.58,0-1.2-.08-1.88-.11h-1a39.68,39.68,0,0,0-4.21.19,41.82,41.82,0,0,0-10,2.19,14.63,14.63,0,0,0-2.71,1.2,7.2,7.2,0,0,0-2.76,2.77,5,5,0,0,0-.53,2.64,5.59,5.59,0,0,0,.37,1.72c-1.49.59-3,1.18-4.5,1.9a21.8,21.8,0,0,0-5.08,3.22,12.2,12.2,0,0,0-2.2,2.49,12.06,12.06,0,0,0-1.52,3.08,6.91,6.91,0,0,0-.06,4.24,4.93,4.93,0,0,0,.38.88,1.14,1.14,0,0,1,.1.19l.09.16a1,1,0,0,1,.08.11A72.71,72.71,0,0,0,105.15,295a82.15,82.15,0,0,0-9.49,25.64,97.8,97.8,0,0,0-1.58,27.23,73,73,0,0,0,7.18,26.53A53.19,53.19,0,0,0,109.15,386a38.73,38.73,0,0,0,11.36,8.63,39.51,39.51,0,0,0,17.76,4.13,42,42,0,0,0,10.06-1.22,43.31,43.31,0,0,0,13-5.53,44.56,44.56,0,0,0,4.81-3.56c-.42,2.56-.86,5.12-1.3,7.63-.28,1.6-.56,3.21-.83,4.82-.43,2.54-1,5.88-1.41,9.24-.39,3.17-.65,6.34-.77,9.44a69.4,69.4,0,0,0,1.62,19.13,49.23,49.23,0,0,0,3.24,9.22A37.12,37.12,0,0,0,172,456.3l.22.26a9,9,0,0,0-.27,4.44,10.23,10.23,0,0,0,2.8,5.26,15.18,15.18,0,0,0,4.34,3.1,26,26,0,0,0,4.65,1.72l.94.22a5.33,5.33,0,0,0,.32,1.35,6.86,6.86,0,0,0,2,2.78,16.67,16.67,0,0,0,2.1,1.55l.31.2.69.42a13.17,13.17,0,0,0,1.17.64,27.84,27.84,0,0,0,9.4,2.11c2.34.19,4.43.28,6.42.28,1.31,0,2.56,0,3.77-.12-.35.43-.68.85-1,1.28a13.5,13.5,0,0,0-2.53,5.3,6.37,6.37,0,0,0,.54,4.09,6.73,6.73,0,0,0,2.8,2.77,11.86,11.86,0,0,0,2.89,1.06l1.58.34.81.16c1.53.34,3.09.59,4.61.84l.12,0c3.42.57,6.86.94,9.48,1.2,4.82.42,9.8.63,15.23.63,8.34,0,16.49-.5,22.66-.94l9.36-.71,2.36-.19a14.67,14.67,0,0,0,2.83-.53,9.91,9.91,0,0,0,5.2-3.47,10.34,10.34,0,0,0,1.48-2.71l.23-.6c.19-.52.38-1,.59-1.52.58-1.46,1.27-2.87,1.86-4.06a52,52,0,0,1,3.95-6.43l.45-.06,2.29-.3c2.25-.27,4.67-.56,7.12-.78h.19c2.28-.19,4.63-.38,6.94-.51l7.23-.36c1.31-.06,2.5-.11,3.67-.11a27.17,27.17,0,0,1,3.16.16,14.17,14.17,0,0,1,5.74,1.73,17.62,17.62,0,0,0-1.39,4.15,10.12,10.12,0,0,0-.12,3.47,6.26,6.26,0,0,0,.71,2.11,6.35,6.35,0,0,0,1.47,1.69,9.26,9.26,0,0,0,3.3,1.63,26.4,26.4,0,0,0,2.85.6c1.75.32,3.56.6,5.26.87,6.61,1,13.54,1.75,21.2,2.35,6.18.48,12.71.88,21.17,1.27l2.27.11c4,.19,8.07.39,12.15.39,2.52,0,4.82-.07,7-.23.87,0,1.79-.13,2.73-.24l.71-.07c.65-.08,1.32-.15,2.09-.28A7.71,7.71,0,0,0,416,494a4.42,4.42,0,0,0,1.33-1,3.75,3.75,0,0,0,1-2,4.28,4.28,0,0,0-.09-1.63l-.14-.66a14.52,14.52,0,0,0-.38-1.46,27.67,27.67,0,0,0-5.56-10.16,32.18,32.18,0,0,0-8.93-7.25,36.13,36.13,0,0,0-10.73-3.79,40.86,40.86,0,0,0-8.16-.76c-1,0-2,0-3,.08l-2,.15a161.53,161.53,0,0,0,12-20.53c.22-.45.44-.9.65-1.35a20.44,20.44,0,0,0,6,2.52,16.74,16.74,0,0,0,3.79.43,21.15,21.15,0,0,0,7.7-1.53,35.93,35.93,0,0,0,9.38-5.54,58.83,58.83,0,0,0,7.64-7.33A86.16,86.16,0,0,0,438.16,415a94.31,94.31,0,0,0,4.21-9.5c.69-1.86,1.23-3.42,1.69-4.91a33.33,33.33,0,0,0,1.37-5.2,11.18,11.18,0,0,0-.58-6.12,12.61,12.61,0,0,0-3.59-4.78c-.84-.75-1.71-1.4-2.56-2-.54-.4-1-.78-1.53-1.17l-.6-.46c-1.1-.86-2.24-1.74-3.3-2.65A142.93,142.93,0,0,1,419,364.42a127.62,127.62,0,0,1-12-15.71,134,134,0,0,1-7.95-14.2c1.46-.73,2.83-1.46,4.16-2.21a87.61,87.61,0,0,0,11.35-7.53,83.83,83.83,0,0,0,10.06-9.21l.38-.4a1.37,1.37,0,0,0,.39-1.1l-.06-.58c-.92-9.5-2.09-18.74-3.46-27.48-1.53-9.77-3.22-18.68-5.18-27.24l-.41-1.71c-.91-3.88-1.86-7.9-3.18-11.83a40.08,40.08,0,0,0-2.92-6.69,33,33,0,0,0-4.34-6,81.65,81.65,0,0,0-9.49-8.49l-1.09-.88c-3.6-2.88-7.33-5.71-11.09-8.39a250.21,250.21,0,0,0-23.52-14.88l-1.48-.82a39.55,39.55,0,0,0-8.08-23c-.39-.53-.82-1.07-1.31-1.66a14,14,0,0,0-1.55-1.67,16.31,16.31,0,0,0-3.69-2.58,14,14,0,0,0-6.33-1.67Z"/><path class="cls-3" d="M382.71,232.09c-10.1-.15-18.9,6.85-28.83,8.71-18.41,3.46-36.14-11.13-54.82-9.61a32.39,32.39,0,0,0-29.55,36A31.28,31.28,0,0,0,276,283c4.91,6.17,12.05,10.15,19.3,13.23,13.37,5.68,28.16,8.83,42.51,6.52,10.76-1.73,21-6.47,31.93-6.74,5.85-.14,11.65,1,17.49,1.23s12.05-.61,16.66-4.21c5.27-4.1,7.49-11,8.41-17.63C414.88,257,404.47,232.41,382.71,232.09Z"/><g id="G"><circle class="cls-2" cx="308.24" cy="268.08" r="17.68"/><circle class="cls-3" cx="320.09" cy="265.37" r="5.76"/></g><g id="G-2" data-name="G"><ellipse class="cls-2" cx="384.19" cy="269.16" rx="14.39" ry="17.02" transform="translate(-41.66 72.43) rotate(-10.22)"/><ellipse class="cls-3" cx="393.71" cy="264.76" rx="4.69" ry="5.54" transform="translate(-40.73 74.05) rotate(-10.22)"/></g><path class="cls-4" d="M443.08,390.56c-1-3-3.85-5-6.45-6.87a124.59,124.59,0,0,1-41.26-50.62,90.94,90.94,0,0,0,27.28-19.33c-.33-3.25-.68-6.53-1.07-9.83a425.87,425.87,0,0,0-8.43-49.86c-.35-1.44-.7-2.89-1.09-4.33a40.86,40.86,0,0,0-5-11.92c-2.67-4-6.37-7.23-10.12-10.28a248.86,248.86,0,0,0-40.78-27l.37-.7a40.75,40.75,0,0,0-8.81-24.53c-2.55-3.18-7.74-5.74-11.76-4.41-4.37,1.44-7.63,5.24-10.55,8.62-2.22,2.57-4.29,5.52-4.65,8.9l0,.21c-13.58-1.8-27.62-1.22-41.36-.27a23.14,23.14,0,0,0-9.16-13.49c-14.16-10.09-30.85,4.38-32.65,19.1a18.38,18.38,0,0,0,.38,6.6A372.91,372.91,0,0,0,210.53,261c-.53,1.49-1,3-1.45,4.41-3.32,11-3.92,21.19-.61,30.57l.58-.2-.57.2c2.24,6.36,6.29,12.37,12.51,18.05a96.14,96.14,0,0,0,26.45,16.79c11.31,24.31,14,49.44,10.24,76C254.85,427,249,446.55,242.78,466l.12.83c-8.55,1.22-17.39,4.22-23.49,9.16-.33.27-.73.6-1.16,1-4.62,4-13.72,13.21-3.91,15.39,21.25,4.72,43.33,3.08,65,1.4,3.47-.26,6.24-1.69,7.51-5.18a48.06,48.06,0,0,1,7.81-13.75,135.58,135.58,0,0,1,21.55-2.27c4.95-.13,10.4-.76,15,1.29a12.88,12.88,0,0,1,2.58,1.53,16.58,16.58,0,0,1,1.43,1.23c-1.18,2.44-2.56,6.85-1,8.95,1.07,1.43,3,1.86,4.74,2.18,16.71,3,33.72,3.85,50.67,4.69,7.44.37,14.92.73,22.32-.15,1.66-.2,4-.36,3.71-2-1.53-8.32-7.9-15.27-15.6-18.8s-16.53-3.94-24.89-2.59c-.46.07-.91.16-1.37.25l0-.07a202.85,202.85,0,0,0,12.66-20.66c1.49-2.85,2.91-5.75,4.23-8.69a23.14,23.14,0,0,0,6.19,3.46c10.53,3.76,21.83-5.82,28.14-13.21a89.92,89.92,0,0,0,17.37-31.19C443.24,396.06,444,393.19,443.08,390.56ZM341.66,273a19.41,19.41,0,0,1-4.76,10.82c-1.47,1.69-3.72,2.69-4.83,4.68a33.14,33.14,0,0,0-6.09-2c-2.52-.71-5-1.49-7.51-2.25-.86-.23-1.72-.44-2.59-.65a124,124,0,0,0-22.09-3.19c-1.15-.07-2.31-.12-3.46-.15a6.07,6.07,0,0,1-1.35,0,15.07,15.07,0,0,1-7.57-9.41,18.14,18.14,0,0,1,1.73-13.27,23.2,23.2,0,0,1,9.78-9.32c12.84,4.6,26.62,5.71,40.23,6.51a4.76,4.76,0,0,1,1.83.34,4.56,4.56,0,0,1,1.45,1.29A23.13,23.13,0,0,1,341.66,273Zm46.73,6.37a10.22,10.22,0,0,1-2.84-1.24,23.68,23.68,0,0,1-8.94-9.49,15.93,15.93,0,0,1-1.7-4.4,16.86,16.86,0,0,1,1.23-9.08,15.92,15.92,0,0,1,3.3-5.64c2.39-2.44,5.83-3.5,9.16-4.24s7-1.22,10.22.18a14.27,14.27,0,0,1,4.75,3.75c.61.68,1.18,1.4,1.73,2.14a25.74,25.74,0,0,1,5.05,13.06,21,21,0,0,1-2.54,11.81,18.53,18.53,0,0,1-1.73,2.56,3.83,3.83,0,0,1-2.51,1.64,47.42,47.42,0,0,0-6.77,2.32l-.28.19a8.29,8.29,0,0,0-5.06-3.12C390.44,279.59,389.41,279.6,388.39,279.4Z"/><path class="cls-5" d="M443.08,390.56c-1-3-3.85-5-6.45-6.87a123.53,123.53,0,0,1-21.92-20.07c-3.12-3.64-6.48-7.49-8.73-11.74a24,24,0,0,0-2.34-4.12c-1.12-1.41-4-3.29-4.42-5.09a59.31,59.31,0,0,0,13,24.9c3.6,4.11,7.66,7.78,11.38,11.78,3.17,3.41,7.9,7.09,10.43,10.89,3.21,4.82,1.55,12.58-.13,17.64a40.16,40.16,0,0,1-10.47,16.52c9.93-6.38,15.46-14.65,19-25.69C443.24,396.06,444,393.19,443.08,390.56Z"/><path class="cls-6" d="M396.07,293.92a13.17,13.17,0,0,1-1,1.79c-4.24,6-11.15,9.21-18.35,6.83-5.91-2-12.7-8.65-8.75-15.05l.21-.33c3.85-5.7,12.45-7.64,18.86-7.78h.22c3.2,0,7.41.75,9.3,3.58a5.61,5.61,0,0,1,.5.9C398.28,286.77,397.54,290.89,396.07,293.92Z"/><path class="cls-7" d="M395.39,285.79c-.61-1.45-2.37-2-3.91-2.21-7.15-1.16-14-.24-20.87,1.77a17.46,17.46,0,0,1,8-4.8,34.68,34.68,0,0,1,8.35-1.17h.22C389.44,279.38,400.75,282.39,395.39,285.79Z"/><path class="cls-8" d="M396.07,293.92a13.17,13.17,0,0,1-1,1.79c-4.24,6-11.15,9.21-18.35,6.83a16.19,16.19,0,0,1-8.19-6,7.35,7.35,0,0,1-1.19-3.48c-.05-.58.55-2.44.4-2.73.88,1.69,3.2,1.84,5.1,1.71,7.66-.54,15.38-2,22.18-5.6,1.18-.63,2.49-1.58,2.42-2.92A16.61,16.61,0,0,1,396.07,293.92Z"/><path class="cls-9" d="M318.47,284.28c4.17,1.09,8.31,2.36,12.47,3.5l.09,0C326.83,286.89,322.65,285.55,318.47,284.28Z"/><path class="cls-9" d="M318.47,284.28c-.86-.23-1.72-.44-2.59-.65a124,124,0,0,0-22.09-3.19,71.62,71.62,0,0,1,11.35.65A86.64,86.64,0,0,1,318.47,284.28Z"/><path class="cls-4" d="M191.24,475.27c-2-1.31-4.69-2.83-3.8-5.68l.06-.32a26.06,26.06,0,0,1-6.56-2.06,12.2,12.2,0,0,1-5.34-4.38,6.45,6.45,0,0,1-.29-6.64l.08-.07a34.11,34.11,0,0,1-5.92-8.64c-5.83-12.09-5.55-26.21-3.7-39.52,1.24-9,3.15-18,4.17-27l-.19,0c-15,18.33-42.91,20.45-58.61,2.91C92.41,363,93.42,324.58,105.2,300.71a71.08,71.08,0,0,1,20.09-24.65l-.3-.39c-3.55-1.88-1.33-6.24.79-8.37,2.35-2.35,5.54-3.71,8.51-5.07,1.24-.56,2.5-1.07,3.79-1.51-1.21-.87-2.21-2.92-1.33-4.28a6.82,6.82,0,0,1,3.64-2.39,45,45,0,0,1,18.9-2.47,1.61,1.61,0,0,1-.48-1.67,3.44,3.44,0,0,1,2.36-1.73c3.74-1.15,7.77-.79,11.63-.12a74.75,74.75,0,0,1,36.28,17.36c-3.32,11-3.92,21.19-.61,30.57h0c2.24,6.36,6.29,12.37,12.51,18.05a96.14,96.14,0,0,0,26.45,16.79c11.31,24.31,14,49.44,10.24,76C254.85,427,249,446.55,242.78,466l.12.83c-8.55,1.22-17.39,4.22-23.49,9.16-.33.27-.73.6-1.16,1a50.69,50.69,0,0,1-15.49,1C199.1,477.72,194.35,477.27,191.24,475.27Z"/><path class="cls-5" d="M102.42,346.67a32.21,32.21,0,0,0,7.17,8.39,60.65,60.65,0,0,1,4-35.16c5.86-13.42,19.37-29.65,35-31.37a58.62,58.62,0,0,1-10,.25c-1-.06-2.23-.31-2.52-1.27a18.37,18.37,0,0,1,7.31-3.35A80.28,80.28,0,0,1,165,281.32l-9.82-1.47c-1.77-.27-3.86-.79-4.45-2.47,4.11-2.7,9.28-3.17,14.2-3.11,15.74.19,40.11,6.12,43.62,24.54-2.23-11.68-2.95-21.8.54-33.39a74.75,74.75,0,0,0-36.28-17.36c-3.86-.67-7.89-1-11.63.12a3.44,3.44,0,0,0-2.36,1.73,1.61,1.61,0,0,0,.48,1.67,45,45,0,0,0-18.9,2.47,6.82,6.82,0,0,0-3.64,2.39c-.88,1.36.12,3.41,1.33,4.28-1.29.44-2.55.95-3.79,1.51-3,1.36-6.16,2.72-8.51,5.07-2.12,2.13-4.34,6.49-.79,8.37l.3.39a71.08,71.08,0,0,0-20.09,24.65C98.17,315,94.35,332.93,102.42,346.67Z"/><path class="cls-10" d="M252.61,432.22a29,29,0,0,1-5.8,1.12,34.3,34.3,0,0,1-15.57-2.51c-14.86-5.9-27.52-18.69-34.57-32.85-6.46-13-8.37-27.69-11.69-41.82-2.55-10.89-7.8-25.6-20.87-27.09a30,30,0,0,0-7,.31l-5.44.67c11.27,7.49,10.42,24.12,1.92,33.36-8.68,9.45-21.94,11.78-33,5.59a29,29,0,0,1,4.61,6.23c-5.85-2.18-10.58-6.54-15.15-10.79a20.85,20.85,0,0,1,1.29,7.46c-7.68-5.81-10.63-13.43-14.56-21.79,1.79,11.15,4.81,21.08,11.85,30.06,6.28,8,15.11,14.18,25.37,15.53a38.49,38.49,0,0,0,20-3.06,43.51,43.51,0,0,0,8.92-5.14c1-.73,6.21-6.61,6.88-6.54l.19,0c-1,9-2.93,18-4.17,27-1.85,13.31-2.13,27.43,3.7,39.52a34.11,34.11,0,0,0,5.92,8.64l-.08.07a6.45,6.45,0,0,0,.29,6.64,12.2,12.2,0,0,0,5.34,4.38,26.06,26.06,0,0,0,6.56,2.06l-.06.32c-.89,2.85,1.76,4.37,3.8,5.68,3.11,2,7.86,2.45,11.52,2.69a50.69,50.69,0,0,0,15.49-1c.43-.37.83-.7,1.16-1,6.1-4.94,14.94-7.94,23.49-9.16l-.12-.83C246.32,454.79,249.78,443.57,252.61,432.22Z"/><path class="cls-11" d="M372.64,340.39c-2.89.53-5.84.95-8.86,1.3-22.73,2.6-47.41.91-70.35-.34-19.22-1-39.24-6-56.12-15.57A89.84,89.84,0,0,1,221,314c-6.22-5.68-10.27-11.69-12.51-18.05l.57-.2c17.16-6,34.68-11.16,52.67-13.78a163.46,163.46,0,0,1,27-1.77,5.9,5.9,0,0,0,1.63.05c1.15,0,2.31.08,3.46.15a124,124,0,0,1,22.09,3.19c.87.21,1.73.42,2.59.65,4.18,1.27,8.36,2.61,12.56,3.53h0a107.29,107.29,0,0,0,10.61,2.46c8.76,1.49,18.18,1.27,26-2.95l.25.16c-3.95,6.4,2.84,13.1,8.75,15.05,7.2,2.38,14.11-.79,18.35-6.83a13.17,13.17,0,0,0,1-1.79,25.43,25.43,0,0,1,14.08.4,19.61,19.61,0,0,1,11.34,9.6h.09c.39,3.3.74,6.58,1.07,9.83.23,2.33-10.35,9.22-12.21,10.55a115.66,115.66,0,0,1-14.09,8.21A82.74,82.74,0,0,1,372.64,340.39Z"/><path class="cls-11" d="M294.68,474.77l-1,.18,0-.26c-.61-3.82-1.13-7.66-1.53-11.51-2.14-20.66-1.41-43.8,7.3-63,7.39-16.32,21.18-29.53,37.46-36.9,6.12-2.76,12.69-4.79,19.41-4.85a36.18,36.18,0,0,1,28.12,13.48c10.76,13.46,9,31,4.49,46.48-5.27,18.07-13.11,34.87-21,51.9l.1.31c-10.57,3.27-19.91,7.42-31.16,6.08a2.93,2.93,0,0,1-1-.23,3.21,3.21,0,0,1-.83-.69c-4.41-4.47-13-3.39-18.88-3.24A135.58,135.58,0,0,0,294.68,474.77Z"/><path class="cls-10" d="M321,188.29c1.22,2,6.41,2.16,8.19,2.47,3.46.62,6.92,1.25,10.34,2.09a47.22,47.22,0,0,1,6.81,2c1,.42,1.81,1.18,2.79,1.61a24,24,0,0,0,2.63.64c.28-5-2.28-10.83-5-14.92a11.81,11.81,0,0,0-4.85-4.58c-2.07-.9-4.77-.66-6.22,1.07a16.13,16.13,0,0,0-1.49,2.59,3.4,3.4,0,0,1-2.25,1.82,3,3,0,0,1-2.12-.69,5.2,5.2,0,0,1-1.64-5.88c-.69,1.73-3.64,3.93-4.94,5.29s-2,3.68-2.39,5.67a.83.83,0,0,0,0,.44A3.54,3.54,0,0,0,321,188.29Z"/><path class="cls-12" d="M399.91,283.54l.7-.27q2.61-.88,5.27-1.64c2.77-.79,5.6-1.35,8.35-2.18a.54.54,0,0,0,.3-.18c.11-.19-.06-.44-.27-.5a1.78,1.78,0,0,0-.65,0,2.2,2.2,0,0,1-2.05-1.29c-.63-1.36.14-2.85.33-4.22l.69-5a31.5,31.5,0,0,0,.25-6.43A24.56,24.56,0,0,0,409,249.35a16.32,16.32,0,0,0-12.05-7.4,23.53,23.53,0,0,0-6.41.66c-4.35.92-8.34,2-11.77,4.81a18.29,18.29,0,0,0-6.46,9.88c-2.22,9.32,3.31,17.73,10.25,23.24.07.06,3.15-1,3.56-1a12,12,0,0,1,4.1.27,12.16,12.16,0,0,1,3.61,1.5c1.11.69,2,2,3.08,2.57S398.92,283.93,399.91,283.54Zm-3.39-.58a8.29,8.29,0,0,0-5.06-3.12c-1-.25-2-.24-3.07-.44a10.22,10.22,0,0,1-2.84-1.24,23.68,23.68,0,0,1-8.94-9.49,15.93,15.93,0,0,1-1.7-4.4,16.86,16.86,0,0,1,1.23-9.08,15.92,15.92,0,0,1,3.3-5.64c2.39-2.44,5.83-3.5,9.16-4.24s7-1.22,10.22.18a14.27,14.27,0,0,1,4.75,3.75c.61.68,1.18,1.4,1.73,2.14a25.74,25.74,0,0,1,5.05,13.06,21,21,0,0,1-2.54,11.81,18.53,18.53,0,0,1-1.73,2.56,3.83,3.83,0,0,1-2.51,1.64,47.42,47.42,0,0,0-6.77,2.32Z"/><path class="cls-10" d="M429.83,424a63.56,63.56,0,0,0,9.2-15.76c-4,5.88-8.5,11.49-14.15,15.79-5.4,4.11-15.49,9.4-22.61,7.3a4.1,4.1,0,0,1-2.6-3,27.3,27.3,0,0,1-.34-6.07,52.36,52.36,0,0,1,1.84-12.48,2.44,2.44,0,0,1,.37-1,2.54,2.54,0,0,1,1.22-.73,5.66,5.66,0,0,1,4.11-.12,12.32,12.32,0,0,1,2.84-5.32,44.71,44.71,0,0,1,4-4.34c1.32-1.28,2.35-3.31,4.14-4.06-1.47.62-3,1.77-4.55,2.16s-1.84-.57-2.37-1.88c-1.27-3.07-2.39-6.2-3.55-9.31a190.08,190.08,0,0,0-7.64-18.37c1.15,2.29,1.6,5.33,2.22,7.82.79,3.18.55,5.56.48,8.77a157.19,157.19,0,0,1-2.34,22.27c-1,6-1.91,12.21-3.66,18-.81,2.71-1.26,5.56-2,8.31-.21.73-2.93,8.18-2.9,8.2a21.59,21.59,0,0,0,5.37,2.88c10.53,3.76,21.83-5.82,28.14-13.21C426.68,428,428.29,426,429.83,424Z"/><path class="cls-10" d="M287.45,429.24a69,69,0,0,1,1.9-15.28c.93-4.15,2-8.27,3.24-12.35a157.23,157.23,0,0,1,7.67-20.34c4-8.78,9.78-23.83,19.77-26.9,3.68-1.13,7.59-1.23,11.44-1.5A128.06,128.06,0,0,0,387,335.67a117.32,117.32,0,0,1-28.62,7.18c-11.53,1.38-31.5.87-37.46-11.3-1.9-3.9-3.11-9-1.63-13.28,3.34-9.62,12.24,1.68,16.35,4.58a35.87,35.87,0,0,0,51.74-11.26c-9.08,6.05-19.91,10.11-30.79,9.2a32,32,0,0,1-19.72-8.92c-3.68-3.68-10.09-13.26-2.94-17.18,2.21-1.21,5.48.23,6.72-2.39.64-1.35-.05-2.27-.22-3.56a9.79,9.79,0,0,1,.65-4.41c1-2.85,2.8-5.34,3.68-8.24a36.07,36.07,0,0,0,1.52-8.8c0-.71-.39-8.51-.62-8.44,4.59-1.46,9.79-3.38,12.25-7.81-5.44,1.7-11.25,1.74-16.95,1.43a151,151,0,0,1-26.42-3.79c-11.09-2.61-22.1-5.67-31.3-12.67-3.52-2.67-6.82-5.92-8.3-10.07a23.06,23.06,0,0,1-.81-9.89c1-10.42,5.52-21.1,14.36-26.69-.47-.06-9.38-2.28-9.1-1a20,20,0,0,0-1.18-3.6c-.07.61-.18,1.21-.3,1.8-.49,2.24-1.49,4.78-3.58,6-3,1.72-4.89-.19-5.8-2.76a14.9,14.9,0,0,0-5.75-7.53,9.2,9.2,0,0,0-4.77-1.66,9.59,9.59,0,0,0-6.13,2.54c-1.74,1.46-3.16,3.24-4.76,4.83-1,1-2.25,1.93-3.58,1.6-1.86-.47-2.2-2.93-2.16-4.84a23.36,23.36,0,0,0-4.67,8.47,9.94,9.94,0,0,0,.4,6.66c.21.52,3.24,5.16,3.41,4.85a367.15,367.15,0,0,0-18.28,40.5,178.59,178.59,0,0,0-8.65,28.7c-1.61,8.12-4,19.69-.8,27.5,3,7.34,8.47,13.47,14.72,18.24a78.85,78.85,0,0,0,10.1,6.44c1.72.93,9.12,3.21,9.85,4.77,11.31,24.31,14,49.44,10.24,76-2.68,19.09-8.12,37.67-13.92,56.06a61.18,61.18,0,0,1,18.73-3.38c5.21-.15,11.26-.6,16,2a8.29,8.29,0,0,1,4.32,5.82,23.08,23.08,0,0,1,.18,7.19,2.6,2.6,0,0,0,.07,1.21c.42,1,1.87,1,2.93.74a1.39,1.39,0,0,1,.92-.05c.48.2.52.85.46,1.37a13.24,13.24,0,0,1-6.21,9.2,21.62,21.62,0,0,1-7.38,2.35,50.5,50.5,0,0,1-20.37-.9c-.11-2.89,1.26-5.61,2.6-8.17a23.77,23.77,0,0,0-4,4.72c-1.23,1.89-1.53,3.18-3.93,3.69a26.73,26.73,0,0,1-12.28-.6,4.59,4.59,0,0,1-1.94-.88c-1.86-1.7.45-5.35,1.68-6.75a18,18,0,0,1-20.85,4.11A1.11,1.11,0,0,1,214,484a1.15,1.15,0,0,1,.2-.85,41.26,41.26,0,0,1,2.88-4.49c-3.18,1.16-6.91,6-7.14,9.35-.19,2.61,2.12,3.8,4.36,4.3,21.25,4.72,43.33,3.08,65,1.4,3.47-.26,6.24-1.69,7.51-5.18a48.06,48.06,0,0,1,7.81-13.75,135.58,135.58,0,0,1,21.55-2.27c4.95-.13,10.4-.76,15,1.29a12.88,12.88,0,0,1,2.58,1.53,16.58,16.58,0,0,1,1.43,1.23c-1.18,2.44-2.56,6.85-1,8.95,1.07,1.43,3,1.86,4.74,2.18,16.71,3,33.72,3.85,50.67,4.69,7.44.37,14.92.73,22.32-.15,1.66-.2,4-.36,3.71-2-.34-1.84-1.07-3.55-1.34-5.4a18.26,18.26,0,0,1-18.88-5.44c.74,1.14,4.15,4.93,4,6.22s-4.17,1.06-5.19,1c-5.5-.2-10.06-3.24-14.28-6.5,1.1,1.95,2.29,3.87,2.55,6.13,0,.28-.25.49-.5.5l-.85,0a116.39,116.39,0,0,1-19-.22,53.83,53.83,0,0,1-9.32-1.88c-2.49-.76-6.79-1.22-7.41-4.36-.81-4.08,1.3-9.13-1.14-12.83-2.55-3.87-9.75-3.41-13.76-3.25-6,.24-12,.94-18,.37s-12-2.58-16.19-6.92C289.55,450.56,287.51,438.61,287.45,429.24Zm-4.31-171.65a23.2,23.2,0,0,1,9.78-9.32c12.84,4.6,26.62,5.71,40.23,6.51a4.76,4.76,0,0,1,1.83.34,4.56,4.56,0,0,1,1.45,1.29A23.13,23.13,0,0,1,341.66,273a19.41,19.41,0,0,1-4.76,10.82c-1.47,1.69-3.72,2.69-4.83,4.68a33.14,33.14,0,0,0-6.09-2c-2.52-.71-5-1.49-7.51-2.25-.86-.23-1.72-.44-2.59-.65a124,124,0,0,0-22.09-3.19c-1.15-.07-2.31-.12-3.46-.15a6.07,6.07,0,0,1-1.35,0,15.07,15.07,0,0,1-7.57-9.41A18.14,18.14,0,0,1,283.14,257.59Zm-3.5,50.07c-4.1,2.85-6.94,4.81-12.3,4.51-9.32-.54-16.62-8.07-13-17.52,3.29-8.55,13.8-11.88,22.16-12.68a42.45,42.45,0,0,1,21.38,3.52c4.88,2.19,9.85,7.95,3.29,11.61-.34.19-.7.38-1.1.56C293.66,300.61,285.59,303.53,279.64,307.66Z"/><path class="cls-5" d="M296,188.51c-2.09.77-4.46,1.17-6.46,1.93-1.5.56-3.29,2.41-4.76,2.65,23.15-3.8,46.38,5,67.74,14.7C371,216.15,390,226,402.81,242.26c6.11,7.78,8.13,18.43,9.54,27.95a148.72,148.72,0,0,1,1.84,22.29c0,1.49-.13,3.15-1.25,4.13s-3.43.27-3.19-1.19c5.62,8.13,6.88,23.44-1.59,30.41a87.43,87.43,0,0,0,14.49-12.11c-.33-3.25-.68-6.53-1.07-9.83a425.87,425.87,0,0,0-8.43-49.86c-.35-1.44-.7-2.89-1.09-4.33a40.86,40.86,0,0,0-5-11.92c-2.67-4-6.37-7.23-10.12-10.28-27.3-22.2-57.22-38.89-93.18-39.94a22.06,22.06,0,0,0-6.68.57A10.62,10.62,0,0,0,296,188.51Z"/><path class="cls-5" d="M396.32,359.53c.3,13.6-2.6,27.06-5.68,40.31-4.82,20.83-10.23,41.87-21.06,60.3a51.75,51.75,0,0,1-6.93,9.58c4.85-1.57,9.77-2.89,14.55-4.65,1-1.83,1.81-3.92,2.76-5.43a152.45,152.45,0,0,0,10.46-20.11,207.94,207.94,0,0,0,8.63-24.08C404.22,397.78,403.65,376.54,396.32,359.53Z"/><path class="cls-3" d="M398.12,371.8a50,50,0,0,0-2.27-8.11,3.14,3.14,0,0,0-.24,2.19,69.44,69.44,0,0,1,.8,8.72c0,3.25-.12,6.49-.21,9.74a3.39,3.39,0,0,0,.56,2.39c1.1,1.23,1.93-.05,2-1.08A49.94,49.94,0,0,0,398.12,371.8Z"/><path class="cls-3" d="M270,180.68a3.65,3.65,0,0,0-.5-1.21c-1.39-2.24-4.26-3.87-6.92-3.29-1,.22-2,1.58-1.07,2.44a3.57,3.57,0,0,0,1.57.7,8.25,8.25,0,0,1,4.19,2.29c.35.4.69.89,1.21,1a1.37,1.37,0,0,0,1.53-1.14A2,2,0,0,0,270,180.68Z"/><path class="cls-3" d="M273.39,187.1c.07-1-.94-3.5-2-3.72-3.38-.68-.05,8.26,1.82,4.51A2,2,0,0,0,273.39,187.1Z"/><path class="cls-3" d="M398.43,393.87c0-.13,0-.26,0-.38a6.76,6.76,0,0,0-.31-1.33l-.12-.29a1.24,1.24,0,0,0-.52-.61c-.16-.1-.28-.22-.48-.21s-.42.14-.43.32a.6.6,0,0,0-.24.26,2.3,2.3,0,0,0-.12.34c0,.17-.05.34-.08.5a8.33,8.33,0,0,0-.11,1c0,.24,0,.47,0,.7h0s0,.07,0,.22,0,.29,0,.43a3.24,3.24,0,0,0,0,.44,3.53,3.53,0,0,0,.15.46,5.58,5.58,0,0,0,.12,1.08.83.83,0,0,0,1.27.56.8.8,0,0,0,.26-.32.36.36,0,0,0,.06-.2c0-.13,0-.13,0,0s0,.11,0,0l.06-.12.09-.22c.05-.16.1-.31.16-.47s.2-.36.26-.57a1.18,1.18,0,0,0,.05-.37C398.43,394.7,398.46,394.28,398.43,393.87Z"/><path class="cls-2" d="M396.21,331.9a134.47,134.47,0,0,0,9.57,17.57A129.33,129.33,0,0,0,418,365.36a144.76,144.76,0,0,0,14.41,13.93c1.27,1.09,2.61,2.1,3.93,3.13s2.74,2,4,3.15a11.45,11.45,0,0,1,3.22,4.27,9.87,9.87,0,0,1,.49,5.36,32.32,32.32,0,0,1-1.33,5c-.5,1.62-1.07,3.23-1.66,4.83a89.54,89.54,0,0,1-4.15,9.35,84.31,84.31,0,0,1-11.46,16.95A56.77,56.77,0,0,1,418,438.5a35,35,0,0,1-9,5.34,18.32,18.32,0,0,1-10.68,1,24.34,24.34,0,0,1-9.35-5l1.52-2a34,34,0,0,0,4,2.71,16.32,16.32,0,0,0,4.35,1.68,16.07,16.07,0,0,0,9.18-.91,32.71,32.71,0,0,0,8.35-4.91,54.83,54.83,0,0,0,7.15-6.82A97.6,97.6,0,0,0,435,413.38a83.12,83.12,0,0,0,4.41-9c.64-1.54,1.26-3.1,1.8-4.68a30.06,30.06,0,0,0,1.34-4.74,8.6,8.6,0,0,0-.33-4.6,10,10,0,0,0-2.9-3.67c-1.23-1.05-2.63-2-4-2.95s-2.79-1.95-4.13-3a107.36,107.36,0,0,1-15.13-13.69,120.69,120.69,0,0,1-22.15-34.17Z"/><path class="cls-2" d="M372.77,468.29c2.68-4.06,5.32-8.14,7.78-12.32s4.75-8.43,6.87-12.79,4-8.81,5.72-13.33a143,143,0,0,0,4.45-13.8,113.42,113.42,0,0,0,3.92-28.61,90.9,90.9,0,0,0-4.33-28.64A67,67,0,0,1,402,372.72a79.64,79.64,0,0,1,1.82,14.69,93.74,93.74,0,0,1-.74,14.79,123.53,123.53,0,0,1-2.75,14.55,139.25,139.25,0,0,1-10.24,27.71,175.43,175.43,0,0,1-15.23,25.25Z"/><path class="cls-2" d="M155.21,332.3a31.83,31.83,0,0,1,6.85,6.27,38.73,38.73,0,0,1,4.94,7.95,52,52,0,0,1,4.61,18.13,96,96,0,0,1-.63,18.66c-.73,6.17-1.84,12.25-2.8,18.3a160.61,160.61,0,0,0-2.05,18.17,68.73,68.73,0,0,0,1.42,18,39,39,0,0,0,7.47,16,31.08,31.08,0,0,0,14.55,10,17.25,17.25,0,0,1-9.18-2.19,25.34,25.34,0,0,1-7.33-6.14,36.18,36.18,0,0,1-5.12-8.06,47,47,0,0,1-3.15-9,68.38,68.38,0,0,1-1.59-18.73q.2-4.68.77-9.32c.4-3.08.88-6.14,1.4-9.19,1-6.08,2.17-12.12,3-18.17a93.87,93.87,0,0,0,1-18.17,56.45,56.45,0,0,0-3.82-17.64A38.59,38.59,0,0,0,155.21,332.3Z"/><path class="cls-2" d="M176.37,456.85a4.82,4.82,0,0,0-.36,3.34,6.81,6.81,0,0,0,1.75,3.16,17.69,17.69,0,0,0,7,4A38.82,38.82,0,0,0,193.2,469c2.9.3,5.86.42,8.83.58a54.91,54.91,0,0,1-8.89,1.05,31.72,31.72,0,0,1-9.06-.94,23.31,23.31,0,0,1-4.38-1.62,13.67,13.67,0,0,1-4-2.82,8.87,8.87,0,0,1-2.42-4.53,7.07,7.07,0,0,1,.93-5.22Z"/><path class="cls-2" d="M188.63,470a2.12,2.12,0,0,0,0,1.36,3.32,3.32,0,0,0,.93,1.27,14.16,14.16,0,0,0,1.6,1.19c.29.18.62.41.9.57a7.57,7.57,0,0,0,.84.47,24.38,24.38,0,0,0,8.08,1.86,52.28,52.28,0,0,0,17-.78l.52,2a54.52,54.52,0,0,1-17.76,1,26.39,26.39,0,0,1-8.92-2c-.36-.17-.72-.36-1.07-.57s-.62-.39-1-.6a13.82,13.82,0,0,1-1.92-1.41,5.61,5.61,0,0,1-1.61-2.24,4.56,4.56,0,0,1,0-2.94Z"/><path class="cls-2" d="M208.48,266.56a78.45,78.45,0,0,0-11.74-8.33c-2.09-1.19-4.21-2.32-6.41-3.3a71.71,71.71,0,0,0-6.68-2.7,73.62,73.62,0,0,0-14-3.42,24.22,24.22,0,0,0-7,0,6.12,6.12,0,0,0-2.88,1c-.29.31-.38.47-.28.84a1.05,1.05,0,0,0,.25.4.3.3,0,0,0,.24.1l.5,1.19c-2.39.7-3.32-2.43-2-3.67a4.77,4.77,0,0,1,1.86-1.27,16.35,16.35,0,0,1,1.89-.59,22.66,22.66,0,0,1,7.64-.41,56.71,56.71,0,0,1,7.39,1.25,71.53,71.53,0,0,1,7.18,2,70.79,70.79,0,0,1,13.59,6.17,72.16,72.16,0,0,1,12,8.8Z"/><path class="cls-2" d="M169.12,253.51a61,61,0,0,0-9.54-1.07,51.91,51.91,0,0,0-9.42.59,50.53,50.53,0,0,0-9.08,2.29,13,13,0,0,0-2,.85,3.43,3.43,0,0,0-1.21,1.07,1.38,1.38,0,0,0,0,1.17,3.42,3.42,0,0,0,.94,1.35l-1.39,2.08a5.32,5.32,0,0,1-2-2.4,5,5,0,0,1-.41-1.62,3.7,3.7,0,0,1,.37-1.89,5.92,5.92,0,0,1,2.25-2.23,13.21,13.21,0,0,1,2.45-1.08,40.68,40.68,0,0,1,9.73-2.12,43.27,43.27,0,0,1,5-.17,40.34,40.34,0,0,1,4.92.45A36,36,0,0,1,169.12,253.51Z"/><path class="cls-2" d="M156.16,258.64a44.8,44.8,0,0,0-20.26,4.06c-3.11,1.54-6.36,3-8.7,5.13a9.14,9.14,0,0,0-2.51,3.72,3.35,3.35,0,0,0-.14,1.79,2.06,2.06,0,0,0,1,1.22l-1.17,2.21-.73-.43a7.56,7.56,0,0,1-.69-.58,8.23,8.23,0,0,1-.57-.75,4.89,4.89,0,0,1-.34-4.27,10.61,10.61,0,0,1,1.34-2.72,11,11,0,0,1,2-2.22,20.11,20.11,0,0,1,4.74-3c1.67-.78,3.25-1.41,4.95-2.08A39.67,39.67,0,0,1,156.16,258.64Z"/><path class="cls-2" d="M148.3,264.58a78.17,78.17,0,0,0-22.77,12.83,70.73,70.73,0,0,0-16.86,19.68,78.24,78.24,0,0,0-8.81,24.41,93.37,93.37,0,0,0-1.32,26,69.62,69.62,0,0,0,6.7,24.93,49.28,49.28,0,0,0,7.2,10.6,34.37,34.37,0,0,0,10.06,7.66,35.65,35.65,0,0,0,12.14,3.56,37.64,37.64,0,0,0,12.69-.81,39.84,39.84,0,0,0,21.45-13.28l1.94,1.59a48,48,0,0,1-4.71,5,44.16,44.16,0,0,1-5.45,4.14A42.13,42.13,0,0,1,148,396.2a39.1,39.1,0,0,1-26.85-2.8,37.31,37.31,0,0,1-11-8.32,51.68,51.68,0,0,1-7.68-11.28,71.92,71.92,0,0,1-7-26A96.55,96.55,0,0,1,97,321a81,81,0,0,1,9.32-25.21A71.81,71.81,0,0,1,124,275.5,54.23,54.23,0,0,1,148.3,264.58Z"/><path class="cls-2" d="M324.79,341.84a238.51,238.51,0,0,0,26.32.26,123.21,123.21,0,0,0,25.8-3.91A106.6,106.6,0,0,0,401,328.5a98.66,98.66,0,0,0,10.9-7.08,89.35,89.35,0,0,0,9.8-8.54h0l-.34,1c-1.95-18.23-4.14-36.47-8-54.39a129.19,129.19,0,0,0-3.34-13.26,37.63,37.63,0,0,0-2.66-6.18,27.62,27.62,0,0,0-3.93-5.4,88.42,88.42,0,0,0-10.27-8.95q-5.43-4.2-11.09-8.09a249.57,249.57,0,0,0-23.39-14.31c-4-2.15-8.08-4.3-12.21-6.16a87.22,87.22,0,0,0-12.76-4.62,117.3,117.3,0,0,0-26.94-3.69c-9.12-.24-18.26.16-27.41.77l-.18-2.49a265.72,265.72,0,0,1,27.67-.87,118.34,118.34,0,0,1,27.53,3.83,89.92,89.92,0,0,1,13.13,4.77c4.22,1.93,8.32,4.07,12.35,6.31a248.81,248.81,0,0,1,23.38,14.79q5.64,4,11,8.35a89.63,89.63,0,0,1,10.42,9.22,32.1,32.1,0,0,1,4.16,5.71,40,40,0,0,1,2.82,6.45c1.48,4.44,2.48,8.93,3.54,13.41,2.06,9,3.75,18.05,5.16,27.15s2.57,18.23,3.46,27.39l.05.58-.39.41h0a82.44,82.44,0,0,1-9.89,9.06,85.93,85.93,0,0,1-11.18,7.41A100,100,0,0,1,377.63,341a120,120,0,0,1-26.43,3.54A108.33,108.33,0,0,1,324.79,341.84Z"/><path class="cls-2" d="M279.19,196.64a22.2,22.2,0,0,0-1.64-10.44,23.46,23.46,0,0,0-5.94-8.45,18,18,0,0,0-9-4.54,16.18,16.18,0,0,0-9.78,1.59,24.13,24.13,0,0,0-8.05,6.39,27.47,27.47,0,0,0-5.09,9.07,19.75,19.75,0,0,0-.65,10.19,13.25,13.25,0,0,0,1.93,4.7,11.12,11.12,0,0,0,4,3.49,9,9,0,0,1-5.08-2.55,12.46,12.46,0,0,1-3-5.07,20.27,20.27,0,0,1,.23-11.55,29.27,29.27,0,0,1,5.37-10.17,27.1,27.1,0,0,1,9-7.29,19.14,19.14,0,0,1,11.63-1.74,20.13,20.13,0,0,1,10.3,5.48,23.94,23.94,0,0,1,6.26,9.67A15.44,15.44,0,0,1,279.19,196.64Z"/><path class="cls-2" d="M239.29,201a412.89,412.89,0,0,0-21.75,45.16c-1.58,3.88-3.16,7.75-4.67,11.66a109.38,109.38,0,0,0-4,11.82c-2.09,8-2.58,16.54-.12,24.4l.45,1.47c.16.49.38.95.57,1.43a26,26,0,0,0,1.26,2.8,42,42,0,0,0,3.19,5.25,52.57,52.57,0,0,0,8.43,9l2.39,2c.8.65,1.65,1.24,2.48,1.86,1.63,1.27,3.38,2.38,5.09,3.53a101.43,101.43,0,0,0,10.85,6c15,7.1,31.1,11.64,47.42,15.69-4.18-.41-8.37-.93-12.52-1.66s-8.29-1.53-12.4-2.56l-3.07-.79c-1-.27-2-.6-3.05-.9-2-.57-4-1.27-6-2A106.88,106.88,0,0,1,242.15,330a91.11,91.11,0,0,1-21.06-14.3,55.83,55.83,0,0,1-8.48-9.61,43,43,0,0,1-5.5-11.6c-2.41-8.27-2-17.1,0-25.33A112.9,112.9,0,0,1,210.79,257c1.39-4,2.79-7.94,4.32-11.87a309.55,309.55,0,0,1,21.77-45.57Z"/><path class="cls-2" d="M387.91,312c-5.3,4.91-11.18,9.38-18,12.24a39,39,0,0,1-10.71,2.8,29.9,29.9,0,0,1-11.13-.88,36.4,36.4,0,0,1-18.18-12.45,67.88,67.88,0,0,1-10.57-19.24l1.86-.72a73.56,73.56,0,0,0,10.5,18.5,40.45,40.45,0,0,0,7.65,7.2,30.65,30.65,0,0,0,9.33,4.64,28.26,28.26,0,0,0,10.36,1,37.1,37.1,0,0,0,10.31-2.3C376,320.29,382.11,316.28,387.91,312Z"/><path class="cls-2" d="M330.49,296.13a28,28,0,0,0-6.37-1.44,29,29,0,0,0-6.38.08,39.64,39.64,0,0,0-6.3,1.31c-2.09.6-4.16,1.33-6.3,2.05a24.49,24.49,0,0,1,12.37-5.34,19.59,19.59,0,0,1,6.87.37A14.54,14.54,0,0,1,330.49,296.13Z"/><path class="cls-2" d="M247.93,189.49a17.86,17.86,0,0,1,5.72-6.53,8.78,8.78,0,0,1,4.42-1.4,8.08,8.08,0,0,1,4.57,1.31,8.91,8.91,0,0,1,3.06,3.59,10.67,10.67,0,0,1,.94,4.48,16.88,16.88,0,0,1-2.49,8.31,25.3,25.3,0,0,0,.93-8.24,8.53,8.53,0,0,0-3.54-6.47,7,7,0,0,0-7.14-.23C252,185.46,250,187.54,247.93,189.49Z"/><path class="cls-2" d="M355.33,199.83a48.05,48.05,0,0,0-1-7.65q-.39-1.89-1-3.75c-.38-1.23-.78-2.46-1.27-3.66a41.85,41.85,0,0,0-3.53-6.93c-.35-.55-.72-1.09-1.1-1.61a11,11,0,0,0-1.19-1.48,12.12,12.12,0,0,0-3-2.28,8.9,8.9,0,0,0-7.2-.93A16.64,16.64,0,0,0,330,176c-.89.94-1.74,1.92-2.57,2.94s-1.7,2-2.44,3a14.86,14.86,0,0,0-3,6.56l-2.39-.25a14.92,14.92,0,0,1,3.46-7.8c.85-1.1,1.77-2.09,2.68-3.06s1.86-2,2.88-2.88a19.31,19.31,0,0,1,7.08-4.27,11.14,11.14,0,0,1,8.18,1.16,15.31,15.31,0,0,1,3.4,2.38,12.75,12.75,0,0,1,1.42,1.53c.43.52.86,1,1.26,1.59a38.85,38.85,0,0,1,4.22,7,37.11,37.11,0,0,1,3.59,15.89Z"/><path class="cls-2" d="M336,192.43a15.72,15.72,0,0,1-1.67-8.21,9.41,9.41,0,0,1,4-7,8.92,8.92,0,0,0-3,7,14.31,14.31,0,0,0,2.42,7.21Z"/><path class="cls-2" d="M337.43,481.15a5.07,5.07,0,0,0-1.24-3.21,11.83,11.83,0,0,0-2.62-2.22,15.36,15.36,0,0,0-6.48-2,43.84,43.84,0,0,0-7.07-.06l-7.24.37c-2.39.13-4.78.32-7.18.52s-4.77.49-7.16.78c-4.78.58-9.54,1.3-14.39,1.92a70,70,0,0,1,14-4.2c2.4-.49,4.82-.84,7.25-1.13s4.87-.49,7.32-.6c1.22-.07,2.44-.1,3.66-.11l3.64-.05a42.67,42.67,0,0,1,7.44.49,19.43,19.43,0,0,1,3.69,1,13.55,13.55,0,0,1,3.33,1.94,11.19,11.19,0,0,1,2.48,2.92A5,5,0,0,1,337.43,481.15Z"/><path class="cls-2" d="M358.74,250.76c-1.13,1.48-3,2.1-4.84,2.54a110.66,110.66,0,0,1-45.59,1.12,70.51,70.51,0,0,1-15.8-4.23,77.33,77.33,0,0,1-20-12.92,6.42,6.42,0,0,1-1.73-2,1.48,1.48,0,0,1,1.13.37A93.46,93.46,0,0,0,290.64,245a116.92,116.92,0,0,0,24.07,6.11,143.82,143.82,0,0,0,24.36,1.39C345.57,252.32,352.39,252.29,358.74,250.76Z"/><path class="cls-2" d="M374,250.05a51.92,51.92,0,0,1,7.85-4.29,40.78,40.78,0,0,1,11.1-3.35,25.11,25.11,0,0,1,8.07,0,15.21,15.21,0,0,1,7.29,3.29,15.39,15.39,0,0,1,2.59,2.51,6.73,6.73,0,0,1,.88,1.57c.12.31.18,1.44.37,1.62a18.47,18.47,0,0,0-4.93-3.38,26.18,26.18,0,0,0-10.35-2.16,43.41,43.41,0,0,0-14.7,2.14c-2,.66-4,1.44-5.95,2.21-.94.37-1.87.76-2.81,1.11-.2.08-1.16.59-1.2.16,0-.21.51-.51.66-.63C373.26,250.58,373.64,250.31,374,250.05Z"/><path class="cls-2" d="M295.55,475.09a54.92,54.92,0,0,0-4.88,7.76c-.68,1.36-1.34,2.73-1.91,4.14-.29.72-.53,1.39-.82,2.17a9.59,9.59,0,0,1-1.3,2.36,8.66,8.66,0,0,1-4.48,3,13.44,13.44,0,0,1-2.55.47l-2.35.19-9.35.72c-12.48.88-25.07,1.41-37.65.31-3.14-.31-6.28-.67-9.4-1.19-1.56-.25-3.11-.51-4.66-.85-.78-.16-1.54-.3-2.34-.48a11.09,11.09,0,0,1-2.55-.93,5.43,5.43,0,0,1-2.24-2.2,4.93,4.93,0,0,1-.41-3.16,12,12,0,0,1,2.29-4.75,41.24,41.24,0,0,1,23.93-15.24,53.59,53.59,0,0,1,18.82-1.2,79.13,79.13,0,0,0-18.27,3.21c-5.85,1.81-11.51,4.33-16.06,8.28a39.07,39.07,0,0,0-6.2,6.55,9.57,9.57,0,0,0-1.75,3.62,2,2,0,0,0,1.26,2.37,7.8,7.8,0,0,0,1.84.66l2.25.46c1.51.33,3,.58,4.55.83,3.05.5,6.12.85,9.19,1.15a246,246,0,0,0,37.22-.08l9.34-.64,2.32-.17a10.69,10.69,0,0,0,2.06-.36,6.07,6.07,0,0,0,3.22-2.08,6.72,6.72,0,0,0,1-1.72c.28-.68.58-1.47.89-2.2A44.88,44.88,0,0,1,294.19,474Z"/><path class="cls-2" d="M243,474.7a60.28,60.28,0,0,0-9.66,8.84,17.86,17.86,0,0,0-3.15,5.43,9.22,9.22,0,0,0-.13,5.82l-2.42.63a11.42,11.42,0,0,1,.8-7.13,19.55,19.55,0,0,1,4-5.59A61.36,61.36,0,0,1,243,474.7Z"/><path class="cls-2" d="M256.76,479.56a19.41,19.41,0,0,0-4.87,7.69,22.81,22.81,0,0,0-.91,8.84l-3,0a25.08,25.08,0,0,1,2.53-9.39A20.09,20.09,0,0,1,256.76,479.56Z"/><path class="cls-2" d="M351,476.37a96.5,96.5,0,0,1,19.76-7.83,55.13,55.13,0,0,1,10.64-1.69,42.9,42.9,0,0,1,10.84.66,34.81,34.81,0,0,1,10.32,3.64,31,31,0,0,1,8.53,6.92,26.5,26.5,0,0,1,5.29,9.67c.14.45.25.9.35,1.36l.15.68a2.79,2.79,0,0,1,.06,1.08,2.34,2.34,0,0,1-.61,1.25,2.81,2.81,0,0,1-.91.65,6.35,6.35,0,0,1-1.58.48c-1,.17-1.81.24-2.72.34s-1.78.18-2.68.24c-7.15.5-14.24.05-21.27-.27s-14.08-.73-21.13-1.28S352,491,345,489.93c-1.75-.27-3.5-.55-5.24-.86a22,22,0,0,1-2.69-.57,7.8,7.8,0,0,1-2.8-1.36,4.4,4.4,0,0,1-1.69-2.93,9,9,0,0,1,.11-3,17.5,17.5,0,0,1,2-5.19l1.38.69a20.08,20.08,0,0,0-1.31,4.82,6.79,6.79,0,0,0,0,2.26,2.39,2.39,0,0,0,1,1.49c1,.8,2.71,1,4.45,1.32s3.45.57,5.19.83c6.93,1,13.91,1.74,20.91,2.26s14,.88,21.06,1.25,14.05.8,21,.33c.86,0,1.73-.13,2.59-.22s1.78-.18,2.52-.3a3.79,3.79,0,0,0,.95-.27.9.9,0,0,0,.16-.1s0,.06,0,.09-.1-.48-.18-.83-.18-.81-.31-1.21a22.91,22.91,0,0,0-4.84-8.69,28.29,28.29,0,0,0-7.86-6.23,33.21,33.21,0,0,0-9.55-3.31,47.6,47.6,0,0,0-10.2-.74c-1.71.06-3.43.22-5.13.44s-3.43.49-5.12.84C364.45,472.09,357.77,474.32,351,476.37Z"/><path class="cls-2" d="M403.45,492.61a17.5,17.5,0,0,0-4-8.7,39.39,39.39,0,0,0-7.62-6.8,40.29,40.29,0,0,1,8.7,5.76,19.68,19.68,0,0,1,5.89,9.12Z"/><path class="cls-2" d="M385.18,491.92A23.22,23.22,0,0,0,372.11,476a24.74,24.74,0,0,1,15.95,15.07Z"/><path class="cls-13" d="M247.32,330.59c11.4,24.38,14.09,49.59,10.36,76.2C254.85,427,249,446.54,242.78,466"/><path class="cls-2" d="M394.21,295.13a15.37,15.37,0,0,0,2.45-9.55,5.73,5.73,0,0,0-.77-2.25,5.57,5.57,0,0,0-1.72-1.66,11.66,11.66,0,0,0-4.84-1.48,24.25,24.25,0,0,0-5.24.12,33.52,33.52,0,0,0-5.19,1,18.86,18.86,0,0,0-8.89,5,8.11,8.11,0,0,0-2.18,4.23,7.09,7.09,0,0,0,1,4.56,15.25,15.25,0,0,0,7.68,6.29,14,14,0,0,0,9.88,0A17,17,0,0,0,394.21,295.13Zm1.63,1.15a19,19,0,0,1-8.79,7,16,16,0,0,1-11.28,0,18.61,18.61,0,0,1-4.95-2.85,15.53,15.53,0,0,1-3.79-4.34,8.86,8.86,0,0,1-1.15-5.84,10,10,0,0,1,2.78-5.19,20.46,20.46,0,0,1,9.83-5.28,33.65,33.65,0,0,1,5.44-.94,27.16,27.16,0,0,1,5.56-.05,12.86,12.86,0,0,1,5.41,1.72,7.43,7.43,0,0,1,3.4,4.76,10.34,10.34,0,0,1,.28,2.92,13.69,13.69,0,0,1-.4,2.85A15.94,15.94,0,0,1,395.84,296.28Z"/><path class="cls-2" d="M404.89,407.11a58.4,58.4,0,0,1,13.57-13.38,57.35,57.35,0,0,0-11.74,14.56Z"/><path class="cls-2" d="M411.74,408.19c-1.82,0-3.59.07-5.34.19s-3.48.37-5.19.66l-.29-2a25.93,25.93,0,0,1,5.5,0A20.57,20.57,0,0,1,411.74,408.19Z"/><path class="cls-2" d="M343,267.63a19.73,19.73,0,0,0-3.79-10.49c-1.06-1.34-2.54-2.81-4.29-3.1a8.46,8.46,0,0,0-3.29.05c7.77,4.91,11.66,15.9,8.07,24.45a21.11,21.11,0,0,1-3.74,5.71,11.79,11.79,0,0,1-5,3.49,4,4,0,0,1,1.34.26,1.3,1.3,0,0,0,1,0,7.43,7.43,0,0,0,2-1.36,23.05,23.05,0,0,0,7.8-19Z"/><path class="cls-2" d="M293.39,247.36a3.57,3.57,0,0,0-2.74.26,29.82,29.82,0,0,0-7.56,8.23c-3.19,5.1-4.2,11.91-1.82,17.54,1.62,3.82,5.47,7.95,10.06,6.71-1.49.4-3.19-.77-4.42-1.46a9.49,9.49,0,0,1-3.39-3.84c-4.12-7.29-1.15-15.47,4.27-21.11,2.45-2.56,5.51-4.74,9-5.3A33,33,0,0,0,293.39,247.36Z"/><path class="cls-2" d="M337.54,288.84a25.53,25.53,0,0,1-8.08-.62c-2.64-.58-5.23-1.32-7.81-2.05a134.3,134.3,0,0,0-15.43-3.94,71.31,71.31,0,0,0-15.79-.79,68.41,68.41,0,0,0-15.61,2.92,38.51,38.51,0,0,1,15.48-4.56,67.31,67.31,0,0,1,16.23.53,68.46,68.46,0,0,1,7.93,1.8c2.59.74,5.15,1.55,7.7,2.36C327.25,286.19,332.34,287.35,337.54,288.84Z"/><path class="cls-2" d="M396.4,281.85a39.87,39.87,0,0,1,8.54-2.45,34.19,34.19,0,0,1,8.8-.45,81.06,81.06,0,0,0-8.5,1.8,59.52,59.52,0,0,0-8.05,2.94Z"/><path class="cls-2" d="M410.17,259.92a23.46,23.46,0,0,0-4.12-9.09,22.1,22.1,0,0,0-4.61-5,10.52,10.52,0,0,0-3.1-1.52c-1.15-.36-1.95.11-3,.59a25,25,0,0,1,4.59,2.85,26.82,26.82,0,0,1,8,10.33c2.89,6.64,2.6,16.09-2.89,21.37.2-.2.8-.29,1.07-.43a6.2,6.2,0,0,0,1.07-.67,6.78,6.78,0,0,0,1.74-2,17.8,17.8,0,0,0,1.76-5.94A28.6,28.6,0,0,0,410.17,259.92Z"/><path class="cls-2" d="M387.57,279.09c-.89-.92-2.38-1.41-3.46-2.11a18.94,18.94,0,0,1-3.84-3.31,19.29,19.29,0,0,1-4.13-9.91A18.42,18.42,0,0,1,378,253.24a13.15,13.15,0,0,1,3.51-4.46,8.17,8.17,0,0,1,2-1.2c.74-.29,1.41-.38,1.91-1.06a.49.49,0,0,0-.12-.65c-1.37-1.13-3.77.47-4.9,1.34a14.81,14.81,0,0,0-3.62,4.18,19.93,19.93,0,0,0-2.73,11.76,18,18,0,0,0,1.32,5.65,24.78,24.78,0,0,0,7.23,8.37c1.29.9,3.22,2.24,4.86,2.07C387.57,279.23,387.62,279.14,387.57,279.09Z"/><path class="cls-14" d="M357.54,384c-10.92,22.45-24.71,43.69-42.35,61.36S274.62,475.07,250.64,482c-14.58-8.55-25.87-21.85-34.91-36.13a187.87,187.87,0,0,1-28.92-95.08c29.13-4,59.69-4.47,91.66-6.14C308.55,358.19,335.92,369.77,357.54,384Z"/><path class="cls-15" d="M247.84,472.83a72.67,72.67,0,0,1-17.5-14.12c-5-5.51-8.08-11.63-11.88-17.86a177,177,0,0,1-19-43.59,180.84,180.84,0,0,1-5-23.41c-.86-6,.26-12.41-.93-18.35,4.24,21.09,17.61,40.21,32.11,55.2,8.68,9,17.17,16.84,29.66,19.94-.22-.06-4.24,24.24-4.56,26.13C249.89,462,249.63,467.93,247.84,472.83Z"/><path class="cls-7" d="M278.94,353.1l-27.09,120,.15.1c21-6.08,42.59-17.13,58-32.58s27.47-34,37-53.63C328.37,374.74,304.82,364.71,278.94,353.1Z"/><path class="cls-16" d="M295.05,402.75q16.89-6.28,33.88-12.3,7.59-2.67,15.19-5.26c-11.43-7.21-24.56-13.7-38.85-20.25q-8.16,2.85-16.35,5.63l-15.09,5.14-8.65,38.34Q280.11,408.35,295.05,402.75Z"/><path class="cls-16" d="M262.15,449c7.88-2.41,15.73-4.93,23.56-7.48s15.62-5.11,23.44-7.63q5-1.6,10-3.17a196.81,196.81,0,0,0,21.15-30.8q-11.21,3.58-22.3,7.51c-8.2,2.88-16.37,5.86-24.53,8.86s-16.42,6-24.66,9q-3.33,1.2-6.68,2.37L257,450.52Z"/><path class="cls-2" d="M358.94,383.65a45.06,45.06,0,0,1-2.18,5.24l-2.16,4.18-2.23,4.15-2.3,4.11q-4.67,8.19-9.95,16a201,201,0,0,1-23.89,29.16A135.58,135.58,0,0,1,286,469.13a168.58,168.58,0,0,1-34.88,14.43h0l-.66.2-.6-.36c-11.14-6.54-20.36-15.8-28-26a181.56,181.56,0,0,1-19.34-32.81q-3.91-8.68-7-17.7c-2-6-3.78-12.14-5.24-18.32s-2.54-12.45-3.38-18.75-1.26-12.64-1.46-19v0l0-1.32,1.31-.17c15.25-1.95,30.58-2.94,45.88-3.65s30.61-1.13,45.9-1.82h.22l.17.08c13.49,5.93,27,11.73,40.43,17.93,6.7,3.11,13.35,6.33,19.9,9.77q4.9,2.58,9.73,5.35c1.61.91,3.18,1.89,4.78,2.84l.61.36.7.45,1.39.95C357.23,382.28,358.11,383,358.94,383.65Zm-2.82.77c-.72-.32-1.39-.63-2-1-.32-.17-.63-.34-.94-.54l-1-.65c-1.57-.95-3.1-1.95-4.69-2.87q-4.71-2.81-9.55-5.44c-6.44-3.52-13-6.82-19.64-10-13.25-6.39-26.71-12.39-40.11-18.54l.36.07h0c-15.29.91-30.59,1.57-45.86,2.49s-30.51,2.15-45.6,4.31l1.26-1.48v0q.3,9.38,1.47,18.69T193.1,388q2.18,9.12,5.19,18t7,17.41a177.94,177.94,0,0,0,19.06,32.19c7.5,9.91,16.46,18.84,27.14,25.08l-1.26-.16h0a165.56,165.56,0,0,0,34.25-14.1,132.72,132.72,0,0,0,29.61-22.05,198.52,198.52,0,0,0,23.58-28.68c3.49-5.13,6.77-10.41,9.86-15.79l2.28-4.06,2.21-4.1,2.14-4.14A20.3,20.3,0,0,1,356.12,384.42Z"/><path class="cls-3" d="M335.49,391a.22.22,0,0,0-.4-.07c-1.22,2.47-2.82,4.8-4.26,7.15-1.57,2.54-3.22,5-4.84,7.53-1.48,2.32-3,4.64-4.44,7-.68,1.06-1.18,2.18-1.86,3.25a30.18,30.18,0,0,0-1.85,3.15.82.82,0,0,0,1.24,1,21.11,21.11,0,0,0,2.89-2.7c.87-1,1.83-1.73,2.66-2.72a57.74,57.74,0,0,0,5-7.05,64.76,64.76,0,0,0,4.16-8.23,33.31,33.31,0,0,0,1.55-4.33A9.38,9.38,0,0,0,335.49,391Z"/><path class="cls-3" d="M316.52,423.62a1.38,1.38,0,0,0-2.23-.8,11.16,11.16,0,0,0-1.57,1.92c-.28.39-.62.85-.91,1.28-.15.21-.31.41-.45.63s-.34.71-.56,1.05c-.11.18-.24.37-.36.55a2.49,2.49,0,0,0-.45,1.14c-.19.38-.39.75-.54,1.13s-.45,1.1.14,1.38c.4.19,1-.09,1.35-.24a5.38,5.38,0,0,0,.67-.36,7.45,7.45,0,0,0,1.41-.78c.18-.15.34-.32.51-.49s.33-.34.49-.52a.28.28,0,0,1,.09-.08,2.29,2.29,0,0,0,.48-.5,9.3,9.3,0,0,0,.64-1A7.91,7.91,0,0,0,316.52,423.62Z"/></g></g></svg>