<svg xmlns="http://www.w3.org/2000/svg" viewBox="0 0 539 667"><g data-name="Layer 1" style="isolation:isolate"><path d="M201 583a8 8 0 0 1-2 0 11 11 0 0 1-2-1l-4-2-9-4a5 5 0 0 1-2-1 3 3 0 0 1 0-2 50 50 0 0 1-8-1 47 47 0 0 1-5-1l-3-1-2-1-2-1a12 12 0 0 1-3-1l-1-1a3 3 0 0 1 0-1 5 5 0 0 1-1-2 11 11 0 0 1 1-3l1-2 1-1v-1l3-5a73 73 0 0 1 5-8l4-4v-1a37 37 0 0 1 3-3 9 9 0 0 1 3-2 6 6 0 0 1 2 0h1a12 12 0 0 1 5 2 35 35 0 0 1 4 3l3 3 2-2a82 82 0 0 0 6-15 207 207 0 0 1-26 2h-20a137 137 0 0 1-19-2 86 86 0 0 1-19-5 63 63 0 0 1-9-5 8 8 0 0 1-1 0 5 5 0 0 1-1-2 5 5 0 0 1-1-4 6 6 0 0 1 1-1 5 5 0 0 1 1-1v-1l2-1a445 445 0 0 1 45-37 228 228 0 0 1-27-35c-11-16-20-34-29-57-9-20-16-40-23-60l-1-1a1 1 0 0 1 1-1h1a518 518 0 0 1 59-27 1500 1500 0 0 1 57-22v-2a700 700 0 0 1-9-78l1-25a230 230 0 0 1 3-24l1-6 1-2 1-3a27 27 0 0 1-9 4 10 10 0 0 1-2 0 8 8 0 0 1-1 0 6 6 0 0 1-1 0 5 5 0 0 1-2-1 4 4 0 0 1-2-3 6 6 0 0 1 1-3 10 10 0 0 1 1-1 25 25 0 0 1 2-3l3-3-3 1a18 18 0 0 1-2 0 24 24 0 0 1-2 0 15 15 0 0 1-5-2 9 9 0 0 1-2-2 6 6 0 0 1-2-2 5 5 0 0 1 1-4 8 8 0 0 1 2-2l1-1 2-2 4-2 7-5a69 69 0 0 1 16-7 49 49 0 0 1 9-2 51 51 0 0 1 5 0 62 62 0 0 1 9 0h3l9 1 34 5 11 1a1479 1479 0 0 0 47 7h10a28 28 0 0 0 8-1 95 95 0 0 0 8-2 30 30 0 0 1 7-1h2a17 17 0 0 1 9 3 13 13 0 0 1 5 8 20 20 0 0 1-1 9 31 31 0 0 1-4 9 41 41 0 0 1-5 6v1a26 26 0 0 1-1 3v1l-1 1h2a19 19 0 0 1 9 2 16 16 0 0 1 7 6 21 21 0 0 1 2 5 14 14 0 0 1 0 1l1 2v1a30 30 0 0 1-1 10 43 43 0 0 1-2 8 62 62 0 0 1-5 8 83 83 0 0 1-5 8l-5 7a90 90 0 0 1-14 12l-2 1a234 234 0 0 0 8 49l1 1 12 13 2 1v1a502 502 0 0 0 31 28 115 115 0 0 0 17 12l10 6 8 4a131 131 0 0 1 18 12l1 1 3 3a21 21 0 0 1 3 4l1 1a9 9 0 0 1 0 2 12 12 0 0 1 1 3 12 12 0 0 1-2 5l1 1a22 22 0 0 1 2 6 12 12 0 0 1 0 4 5 5 0 0 1-5 4 6 6 0 0 1-2 0 9 9 0 0 1-3-2l-2-2v2a21 21 0 0 1 0 6 15 15 0 0 1-1 3 7 7 0 0 1-1 2 6 6 0 0 1-2 2 4 4 0 0 1-2 0 3 3 0 0 1-1 0 4 4 0 0 1-2-2v-1a49 49 0 0 1-2 6 52 52 0 0 1-3 9 88 88 0 0 1-11 16 178 178 0 0 1-13 15 224 224 0 0 1-30 24l-8 6a43 43 0 0 1-9 4 20 20 0 0 1-5 1h-1a15 15 0 0 1-5 0 29 29 0 0 1-4-2l-3-2v2a154 154 0 0 0 6 20l4 10 2 6a11 11 0 0 1 1 3 8 8 0 0 1-1 4 31 31 0 0 1-8 8 53 53 0 0 1-9 7 16 16 0 0 1-5 2 88 88 0 0 0 7 27 63 63 0 0 1 14-7h1l1-1a8 8 0 0 1 1 0 9 9 0 0 1 2 0 11 11 0 0 1 7 3l10-4 3-1 2-1a8 8 0 0 1 3 0 7 7 0 0 1 3 1 11 11 0 0 1 3 2 17 17 0 0 1 2-1 11 11 0 0 1 2-1 7 7 0 0 1 1 0 4 4 0 0 1 1 0 6 6 0 0 1 1 0 4 4 0 0 1 1 0 5 5 0 0 1 1 1l3 5 9 13a97 97 0 0 1 7 14 5 5 0 0 1 0 3 4 4 0 0 1-1 2 4 4 0 0 1-1 1 7 7 0 0 1-3 0h-8a4 4 0 0 1 0 1 6 6 0 0 1-2 1 15 15 0 0 1-3 0l-3 1h-6l-6-1h-4a10 10 0 0 1-4 2 33 33 0 0 1-4 1h-5a119 119 0 0 1-15-1 212 212 0 0 1-32-4l-7-2-8-1a127 127 0 0 0-19-2 123 123 0 0 0-18 2h-2a14 14 0 0 1-2 0 6 6 0 0 1-3 0 5 5 0 0 1-1-1 4 4 0 0 1-1-2 5 5 0 0 1 0-3 16 16 0 0 1 2-4h1a147 147 0 0 1 12-15l4-3a22 22 0 0 1 2-3 8 8 0 0 1 5-1 12 12 0 0 1 4 1 47 47 0 0 1 6 2v-1a68 68 0 0 0 2-8l1-5a5 5 0 0 1-2-1 5 5 0 0 1-2-2 9 9 0 0 1-1-4 35 35 0 0 1 1-11l-1 1a30 30 0 0 1-7 4l-4 1a12 12 0 0 1-3 0 6 6 0 0 1-2-1 5 5 0 0 1-3-2 7 7 0 0 1 0-2 9 9 0 0 1 1-5l2-3v-1a161 161 0 0 1 4-5l3-4a51 51 0 0 0 6-10h-6l-24 1h-1a172 172 0 0 1-15 15v15a1 1 0 0 1-1 0 42 42 0 0 1-5 3l-4 1-10 3-8 2a90 90 0 0 0 4 15 6 6 0 0 1 1 0 9 9 0 0 1 5 3l2 2 1 1a96 96 0 0 1 9 11v1l3 3a15 15 0 0 1 2 5 8 8 0 0 1 0 3 1 1 0 0 1 0 1h-1a4 4 0 0 1 0 1v1a5 5 0 0 1-1 0 6 6 0 0 1-1 1 10 10 0 0 1-1 1l-3 1a49 49 0 0 1-16 5 4 4 0 0 1-1 2 7 7 0 0 1-3 2 108 108 0 0 1-22 5 11 11 0 0 1-1 0Z" fill="#3d200c"/><path d="m211 84 4 1h8l9 1 34 4 34 6 17 2h8l5 1h4a28 28 0 0 0 8-1l8-3a30 30 0 0 1 7-1h2a17 17 0 0 1 9 4 12 12 0 0 1 4 7 19 19 0 0 1 0 9 31 31 0 0 1-4 8 40 40 0 0 1-6 7v1a26 26 0 0 1-1 3v3h3a19 19 0 0 1 8 1 15 15 0 0 1 6 7 20 20 0 0 1 2 4 22 22 0 0 1 1 2v2a29 29 0 0 1 0 9 44 44 0 0 1-3 9 65 65 0 0 1-4 8 89 89 0 0 1-5 7l-6 7a88 88 0 0 1-14 12l-2 2v11a197 197 0 0 0 8 38l1 2 14 14h1a525 525 0 0 0 30 29 118 118 0 0 0 17 12l19 10a131 131 0 0 1 17 12l4 3a20 20 0 0 1 4 4 13 13 0 0 1 0 2 8 8 0 0 1 1 1 11 11 0 0 1 0 3 11 11 0 0 1-2 5l1 1a21 21 0 0 1 2 6 12 12 0 0 1 0 3 4 4 0 0 1-4 4 5 5 0 0 1-2 0 8 8 0 0 1-3-2 28 28 0 0 1-3-4 33 33 0 0 1 1 5 20 20 0 0 1-1 6 14 14 0 0 1-1 3 6 6 0 0 1-1 2 5 5 0 0 1-1 1 3 3 0 0 1-2 0 3 3 0 0 1-1 0 3 3 0 0 1-2-1 14 14 0 0 1 0-2l-1-1a51 51 0 0 1-1 8 53 53 0 0 1-4 9 88 88 0 0 1-11 16 180 180 0 0 1-13 14 225 225 0 0 1-29 25l-8 5a42 42 0 0 1-9 5 20 20 0 0 1-5 1h-1a14 14 0 0 1-4-1 27 27 0 0 1-5-2l-3-2-1 3a153 153 0 0 0 6 20l4 11 2 5a10 10 0 0 1 1 3 7 7 0 0 1-1 3 30 30 0 0 1-7 9 53 53 0 0 1-9 7 15 15 0 0 1-6 1 89 89 0 0 0 8 29 68 68 0 0 1 6-4l7-3 2-1a13 13 0 0 1 2 0 9 9 0 0 1 1 0h1a10 10 0 0 1 2 0 11 11 0 0 1 4 2l1 1 10-4 5-2a7 7 0 0 1 3-1 6 6 0 0 1 3 1 10 10 0 0 1 3 2 15 15 0 0 1 2-1 10 10 0 0 1 2-1 7 7 0 0 1 1 0 4 4 0 0 1 1 0h1a4 4 0 0 1 0 1 4 4 0 0 1 1 1l1 1 3 3 8 13a97 97 0 0 1 7 14 5 5 0 0 1 0 3 3 3 0 0 1 0 1 3 3 0 0 1-2 1 7 7 0 0 1-2 1h-8a3 3 0 0 1-1 0 5 5 0 0 1-2 1 20 20 0 0 1-3 1h-8l-10-1a4 4 0 0 1-1 1 9 9 0 0 1-4 1 34 34 0 0 1-4 1h-11l-8-1a212 212 0 0 1-31-4l-8-2-8-1a127 127 0 0 0-19-1 125 125 0 0 0-20 1 13 13 0 0 1-2 0 6 6 0 0 1-2 0 4 4 0 0 1-1-1 3 3 0 0 1-1-1 4 4 0 0 1 0-3 17 17 0 0 1 2-4 145 145 0 0 1 13-15l3-2a24 24 0 0 1 3-3 7 7 0 0 1 4-1 11 11 0 0 1 4 0l6 3 1-2a69 69 0 0 0 2-8l1-6h-1a4 4 0 0 1-2-1 4 4 0 0 1-1-1 8 8 0 0 1-1-4 35 35 0 0 1 1-13h1a23 23 0 0 1-3 2 30 30 0 0 1-8 4 39 39 0 0 1-3 1 11 11 0 0 1-2 0h-1a5 5 0 0 1-2 0 5 5 0 0 1-2-2 6 6 0 0 1 0-3 8 8 0 0 1 1-4l2-3 2-3 4-7a51 51 0 0 0 7-11h-7l-24 1h-1a171 171 0 0 1-16 16l1 3-1 5v7a42 42 0 0 1-5 2 174 174 0 0 1-22 7 92 92 0 0 0 4 16 5 5 0 0 1 1 0 9 9 0 0 1 4 3l4 3 3 3 5 8 3 4a15 15 0 0 1 2 4 7 7 0 0 1 0 3 6 6 0 0 1-1 2l-1 1a5 5 0 0 1-1 1 8 8 0 0 1-1 0l-2 1a49 49 0 0 1-17 5 5 5 0 0 1 0 1 4 4 0 0 1-1 2 6 6 0 0 1-2 1l-5 1-8 3-9 1a9 9 0 0 1-1 0 7 7 0 0 1-2 0 10 10 0 0 1-2-1l-4-2-8-4h-1a4 4 0 0 1-1-1 3 3 0 0 1-1-1 3 3 0 0 1 0-1 48 48 0 0 1-8 0 50 50 0 0 1-5-2h-2l-3-1-2-1a11 11 0 0 1-3-1v-1a3 3 0 0 1-1-1 4 4 0 0 1 0-2 11 11 0 0 1 1-3l1-2v-1l1-1 2-5a73 73 0 0 1 6-8l3-4a48 48 0 0 1 4-4 8 8 0 0 1 2-1 6 6 0 0 1 2-1h1a11 11 0 0 1 5 2 36 36 0 0 1 4 4l3 3 2-2a82 82 0 0 0 7-17 227 227 0 0 1-40 3l-7-1a140 140 0 0 1-19-1 86 86 0 0 1-19-6 61 61 0 0 1-8-4 10 10 0 0 1-2-1 4 4 0 0 1-1-1 5 5 0 0 1 0-4 5 5 0 0 1 1-1 4 4 0 0 1 0-1h1l1-2a442 442 0 0 1 46-37 226 226 0 0 1-28-35c-11-18-21-38-29-57l-23-60v-1l1-1a490 490 0 0 1 59-26l30-12 28-10-8-56a296 296 0 0 1 0-49 228 228 0 0 1 3-25l1-6 2-6v-1a26 26 0 0 1-10 5h-1a9 9 0 0 1-1 1 8 8 0 0 1-1 0 6 6 0 0 1-1-1 4 4 0 0 1-2-1 4 4 0 0 1-1-2 5 5 0 0 1 0-2 9 9 0 0 1 1-2 25 25 0 0 1 3-3 51 51 0 0 1 5-4 27 27 0 0 1-6 1 15 15 0 0 1-2 0 24 24 0 0 1-2 0 14 14 0 0 1-5-2 8 8 0 0 1-2-1 5 5 0 0 1-1-3 5 5 0 0 1 0-3 7 7 0 0 1 2-2l2-1 2-1 3-3 7-4a70 70 0 0 1 16-8 48 48 0 0 1 9-1 51 51 0 0 1 5-1m0-1h-5a50 50 0 0 0-9 2 70 70 0 0 0-16 7l-8 5-3 3-2 1-2 1a9 9 0 0 0-2 3 6 6 0 0 0-1 4 6 6 0 0 0 2 3 9 9 0 0 0 3 2 16 16 0 0 0 5 1 24 24 0 0 0 2 0 18 18 0 0 0 3 0l-1 1a26 26 0 0 0-3 3 10 10 0 0 0-1 2 6 6 0 0 0 0 3 5 5 0 0 0 1 3 5 5 0 0 0 3 2 7 7 0 0 0 1 0 9 9 0 0 0 1 0h2v-1a28 28 0 0 0 7-3v4l-2 6a231 231 0 0 0-3 24 374 374 0 0 0 1 50c1 18 4 36 7 53v2a2261 2261 0 0 0-116 48l-1 1a1 1 0 0 0 0 1v1a619 619 0 0 0 52 118 229 229 0 0 0 27 34 445 445 0 0 0-45 36l-1 2h-1a5 5 0 0 0-1 1 6 6 0 0 0 0 6 6 6 0 0 0 1 2 8 8 0 0 0 2 1 62 62 0 0 0 9 5 87 87 0 0 0 19 5 140 140 0 0 0 19 2 189 189 0 0 0 39-2h6a80 80 0 0 1-6 14l-1 1-3-2a37 37 0 0 0-4-4 12 12 0 0 0-5-2 6 6 0 0 0-1 0 7 7 0 0 0-3 1 10 10 0 0 0-2 1 37 37 0 0 0-3 4h-1l-3 4a75 75 0 0 0-6 9l-2 4-1 1v2h-1v2a13 13 0 0 0-1 3 5 5 0 0 0 0 2 4 4 0 0 0 1 2v1a12 12 0 0 0 3 1l3 1 2 1 2 1a49 49 0 0 0 6 1 51 51 0 0 0 7 1 4 4 0 0 0 1 1 5 5 0 0 0 1 1l1 1 8 4 4 2a11 11 0 0 0 3 1 7 7 0 0 0 2 0 12 12 0 0 0 1 0 142 142 0 0 0 22-6 7 7 0 0 0 3-1 5 5 0 0 0 1-2 3 3 0 0 0 0-1 50 50 0 0 0 17-4l2-1a10 10 0 0 0 1-1 7 7 0 0 0 1-1l1-1v-1a5 5 0 0 0 1-1 2 2 0 0 0 0-1 9 9 0 0 0 0-3 16 16 0 0 0-2-5l-3-4-5-7-3-4-1-1-3-2a10 10 0 0 0-5-3 7 7 0 0 0-1-1 90 90 0 0 1-3-13l7-2 10-3 4-2a45 45 0 0 0 6-2 1 1 0 0 0 0-1l1-7v-8a170 170 0 0 0 14-15h1l24-1h5a53 53 0 0 1-6 10l-3 3-1 3-3 3v1l-2 3a10 10 0 0 0-1 5 7 7 0 0 0 1 3 6 6 0 0 0 2 2 6 6 0 0 0 3 1 12 12 0 0 0 3-1 40 40 0 0 0 4-1 31 31 0 0 0 7-3 35 35 0 0 0-1 9 9 9 0 0 0 1 4 5 5 0 0 0 4 3l-1 5a69 69 0 0 1-2 8h-1l-3-2a12 12 0 0 0-5-1 9 9 0 0 0-5 2 22 22 0 0 0-3 2v1l-3 2a113 113 0 0 0-11 12l-2 4a16 16 0 0 0-2 4 6 6 0 0 0-1 3 4 4 0 0 0 2 2 6 6 0 0 0 1 1 7 7 0 0 0 3 1 15 15 0 0 0 2 0l2-1h2a105 105 0 0 1 16-1 125 125 0 0 1 19 1 145 145 0 0 1 15 3 285 285 0 0 0 32 5 376 376 0 0 1 15 0h5a35 35 0 0 0 4 0 11 11 0 0 0 4-2h19a18 18 0 0 0 3 0 7 7 0 0 0 2-1 4 4 0 0 0 1-1h7a8 8 0 0 0 3 0 5 5 0 0 0 2-2 4 4 0 0 0 1-2 6 6 0 0 0-1-3 98 98 0 0 0-7-14l-8-13-3-4-1-1a6 6 0 0 0-1-1 4 4 0 0 0-1-1 5 5 0 0 0-2 0 8 8 0 0 0-1 0 11 11 0 0 0-3 1 15 15 0 0 0-1 1 10 10 0 0 0-2-2 7 7 0 0 0-4-1 9 9 0 0 0-3 1l-3 1-2 1-10 3a12 12 0 0 0-7-3h-1a10 10 0 0 0-1 0 8 8 0 0 0-2 1h-1l-2 1a86 86 0 0 0-11 6 87 87 0 0 1-8-25 18 18 0 0 0 5-2 55 55 0 0 0 9-7 32 32 0 0 0 8-9 8 8 0 0 0 1-4 11 11 0 0 0 0-3l-2-6-4-10a155 155 0 0 1-6-20v-1l1 1a30 30 0 0 0 5 2 16 16 0 0 0 5 1h1a20 20 0 0 0 5-1 44 44 0 0 0 9-5l8-5a223 223 0 0 0 30-25 174 174 0 0 0 13-14 89 89 0 0 0 11-16 53 53 0 0 0 4-10l1-4a4 4 0 0 0 1 1 4 4 0 0 0 2 1 4 4 0 0 0 2-1 6 6 0 0 0 2-1 8 8 0 0 0 1-2 16 16 0 0 0 1-4 22 22 0 0 0 1-6 9 9 0 0 0 4 3 6 6 0 0 0 2 0 6 6 0 0 0 6-5 13 13 0 0 0-1-4 23 23 0 0 0-2-6v-1a12 12 0 0 0 1-5 12 12 0 0 0 0-3 9 9 0 0 0-1-2v-1a22 22 0 0 0-4-5l-3-2-1-1a132 132 0 0 0-18-12l-8-5-10-6a114 114 0 0 1-17-11 744 744 0 0 1-30-29h-1l-1-1-13-13-1-1v-1a151 151 0 0 1-7-37l-1-10 2-2a90 90 0 0 0 14-12l6-7a86 86 0 0 0 5-7 64 64 0 0 0 4-8 45 45 0 0 0 3-9 30 30 0 0 0 0-10v-3l-1-2a21 21 0 0 0-2-4 17 17 0 0 0-7-7 20 20 0 0 0-9-2h-1l1-1a28 28 0 0 0 0-3v-1a41 41 0 0 0 6-6 32 32 0 0 0 4-8 21 21 0 0 0 1-10 14 14 0 0 0-6-9 18 18 0 0 0-9-3 22 22 0 0 0-2 0 31 31 0 0 0-7 1l-6 1-2 1a27 27 0 0 1-8 2h-3l-1-1h-6l-7-1-17-2-23-3-11-2a622 622 0 0 0-43-5l-3-1h-9Z" fill="#3d200c"/><path d="m239 421-19 9-7 3-6 3a454 454 0 0 0-99 71 3 3 0 0 0 1 5 72 72 0 0 0 24 10 125 125 0 0 0 19 2 218 218 0 0 0 21 0 397 397 0 0 0 36-3 227 227 0 0 0 41-12 266 266 0 0 0-11-88Z" fill="#fff3ee"/><path d="M249 508v-21l-2-22-4-22-1-6-1-5-2-6-1-5h1a529 529 0 0 0-67 38 446 446 0 0 0-61 47l-2 2a2 2 0 0 0-1 1 2 2 0 0 0 1 2l1 1a58 58 0 0 0 8 4 83 83 0 0 0 19 5 137 137 0 0 0 19 2 231 231 0 0 0 38-2 176 176 0 0 0 19-2 208 208 0 0 0 28-8l4-2a24 24 0 0 1 4-1Zm2 2a42 42 0 0 1-5 2 174 174 0 0 1-33 9 181 181 0 0 1-19 3 375 375 0 0 1-39 2 140 140 0 0 1-19-2 86 86 0 0 1-19-6 61 61 0 0 1-8-4 10 10 0 0 1-2-1 4 4 0 0 1-1-1 5 5 0 0 1 0-3 5 5 0 0 1 1-2 4 4 0 0 1 0-1h1l1-2a448 448 0 0 1 61-47 422 422 0 0 1 68-37h1v1l2 5 1 5 2 6 1 5a232 232 0 0 1 6 45v23Z" fill="#3d200c"/><path d="m132 520 23-17 10-10 11-10a139 139 0 0 0 17-22 151 151 0 0 0 13-26l2 1a152 152 0 0 1-13 26 140 140 0 0 1-18 23 246 246 0 0 1-21 19q-11 10-23 18Zm40 4a304 304 0 0 0 25-44 195 195 0 0 0 16-47h1a197 197 0 0 1-15 48 265 265 0 0 1-25 44Zm36-4a382 382 0 0 0 8-44 377 377 0 0 0 3-46h2a381 381 0 0 1-3 46 378 378 0 0 1-8 45Z" fill="#3d200c"/><path d="M360 121c-2-6-6-11-12-13-5-2-12-1-18 1s-11 5-17 5c-14 2-27-8-41-9a38 38 0 0 0-25 5c-6 4-12 11-12 18s3 13 8 17 11 7 18 9c10 4 21 6 32 4 9-1 17-6 26-8l22-1c6 0 13-2 16-7 5-6 5-15 3-21Z" fill="#fff"/><circle fill="#3d200c" cx="275" cy="132" r="16" transform="rotate(-3 274 132)"/><circle fill="#fff" cx="286" cy="131" r="5" transform="rotate(-3 286 131)"/><g data-name="G"><ellipse fill="#3d200c" cx="335" cy="129" rx="12" ry="10" transform="rotate(-90 335 129)"/><ellipse fill="#fff" cx="341" cy="125" rx="4" ry="3" transform="rotate(-90 341 125)"/></g><path d="m461 355-1-3a10 10 0 0 0 1-9 19 19 0 0 0-5-6c-16-15-39-22-56-36l-31-29-15-16v-1c-5-15-8-33-8-50a85 85 0 0 0 19-18c9-10 18-24 14-38-1-5-4-9-8-11a17 17 0 0 0-7-1h-4a41 41 0 0 0-4 0l-5 1a63 63 0 0 1-12-1 44 44 0 0 1-5-1 6 6 0 0 1-2-1 6 6 0 0 1-2-2 14 14 0 0 1-2-6 8 8 0 0 1 2-5l7-6 4-2 7-3c3 0 5 2 7 3a13 13 0 0 1 4 5v1a16 16 0 0 1 2 7c3-1 6-5 7-8a24 24 0 0 0 3-10c1-9-6-14-14-14-5 0-9 2-14 3-4 2-6 2-11 2-39-2-77-12-115-14a70 70 0 0 0-11 0c-14 1-26 10-38 18-3 2-3 5 1 7 6 4 16 1 22-3a53 53 0 0 0-11 9l-5 6c0 3 3 4 5 3a27 27 0 0 0 12-6c-5 21-7 43-7 65 0 28 5 56 10 83a522 522 0 0 1-5 208c2 8 11 10 18 11 0 18-3 38-12 54l6-4c4-2 6-1 10 1a58 58 0 0 1 8 7c2-3 3-7 6-8a5 5 0 0 1 1-1c-6-16-7-35-5-52a314 314 0 0 1 78-7c-3 9-9 16-14 24a11 11 0 0 0-2 4 4 4 0 0 0 2 5 5 5 0 0 0 3 0c6-2 13-5 17-9-2 5-3 11-3 17a4 4 0 0 0 2 3 4 4 0 0 0 3 0h1c4-2 9-7 11-12a62 62 0 0 0 3 6l4 3a4 4 0 0 0 3-1l3-6v-1a8 8 0 0 0 3 2 5 5 0 0 0 1 0c6 1 13-5 16-9a31 31 0 0 0 6-6c2-3 2-4 1-7-4-12-10-24-12-36l1-5a43 43 0 0 0 5 3c4 2 7 3 11 2a30 30 0 0 0 9-4c18-12 36-25 49-42 7-8 13-16 17-26a49 49 0 0 0 2-16h1a27 27 0 0 0 2 8 3 3 0 0 0 2 2l3-2c2-5 2-11 0-16l-1-4a48 48 0 0 0 7 9 10 10 0 0 0 2 2c2 1 5 0 5-3a16 16 0 0 0-2-7ZM251 123a20 20 0 0 1 2-7l5-6 33 14a48 48 0 0 0 10 4 37 37 0 0 0 14-1 36 36 0 0 0 7-2 19 19 0 0 0 3-2c-1 7-7 12-13 16l-20 6-13 2a31 31 0 0 1-7-1 104 104 0 0 1-17-7 5 5 0 0 1-1 0 5 5 0 0 1-1-2 23 23 0 0 1-2-14Z" fill="#936342"/><path d="m369 272-15-16v-1c-5-15-8-33-9-50a85 85 0 0 0 20-18c9-10 18-24 14-38-1-5-4-9-8-11a17 17 0 0 0-7-1h-4a41 41 0 0 0-4 0l-5 1a63 63 0 0 1-12-1 44 44 0 0 1-5-1 6 6 0 0 1-2-1 6 6 0 0 1-2-2 14 14 0 0 1-2-6 8 8 0 0 1 2-5l7-6 4-2 7-3c3 0 5 2 7 3a13 13 0 0 1 4 5v1a16 16 0 0 1 2 7c3-1 6-5 7-8a24 24 0 0 0 3-10c1-9-6-14-14-14-5 0-9 2-14 3-4 2-6 2-11 2-39-2-77-12-115-14a70 70 0 0 0-11 0c-14 1-26 10-38 18-3 2-3 5 1 7 6 4 16 1 22-3a53 53 0 0 0-11 9l-5 6c0 3 3 4 5 3a27 27 0 0 0 12-6c-5 21-7 43-7 65a387 387 0 0 0 12 85c2 8 0 17 2 25a10 10 0 0 0 2 5c3 4 9 2 13 2 13-1 25 5 37 4 11 0 21-5 31-3 4 1 8 4 13 4 7-1 12-7 18-11a8 8 0 0 1 5-1c6 1 4 10 9 12 1 1 3-1 4-2 6-7 10-16 9-25a66 66 0 0 1 2 13 19 19 0 0 0 0 5 5 5 0 0 0 3 3 5 5 0 0 0 6-2 13 13 0 0 0 2-5c2-10 1-19-2-27 2 5 7 8 11 11 3 2 6 3 9 2a2 2 0 0 0 1 0 2 2 0 0 0 0-2 24 24 0 0 0-3-6Zm-47-147a19 19 0 0 0 3-2c-1 8-7 12-13 16-6 3-13 4-20 6l-13 2a31 31 0 0 1-7-1 104 104 0 0 1-17-7 5 5 0 0 1-1 0 5 5 0 0 1-1-2 23 23 0 0 1-2-14 20 20 0 0 1 2-7l5-6 33 14a48 48 0 0 0 10 4 37 37 0 0 0 14-1 36 36 0 0 0 7-2Z" fill="#fff3ee"/><path d="m244 553-8-11-5-6c-2-1-4 1-5-2a139 139 0 0 1-6-40 3 3 0 0 0-1-2 3 3 0 0 0-1-1l-12-4a82 82 0 0 1 0 21c-1 9-4 18-7 26a24 24 0 0 1-5 8c-1 2-1 1-2 0l-4-3a20 20 0 0 0-5-4 7 7 0 0 0-3-1c-2 0-4 2-5 4a95 95 0 0 0-9 12 64 64 0 0 0-5 8c0 2-2 5-1 7s6 3 7 3a48 48 0 0 0 16 3v1a3 3 0 0 0 1 1 3 3 0 0 0 1 1l12 6a10 10 0 0 0 3 1 9 9 0 0 0 3 0 118 118 0 0 0 21-5c2-1 2-2 2-4a47 47 0 0 0 14-3 44 44 0 0 0 6-3c6-3 1-10-2-13Zm179 12c-4-12-12-22-19-32-1-2-6 0-7 2-2-2-4-4-6-4a8 8 0 0 0-3 1l-15 6c-3-3-7-5-12-2a111 111 0 0 0-14 8l-1-1a90 90 0 0 1-9-31 5 5 0 0 1-1 0 8 8 0 0 1-3-2v1l-3 6a4 4 0 0 1-3 1l-4-3a62 62 0 0 1-3-6c-2 5-7 10-11 12h-1a60 60 0 0 1-4 20c-3-2-8-5-11-5s-6 3-8 5a181 181 0 0 0-14 18c-1 1-4 5-1 6h7a127 127 0 0 1 44 1c14 3 27 6 41 6l18 1c2 0 6 0 8-3h20c1 0 3 0 3-2h9l3-1a3 3 0 0 0 0-2Zm-95-440-2 1-1 2a47 47 0 0 1-3 3 53 53 0 0 1-8 6 82 82 0 0 1-17 7 53 53 0 0 1-18 3 31 31 0 0 1-7-1c-9-2-19-9-28-5 3-1 2 10 2 11 0 6 3 12 7 17s10 8 15 11a68 68 0 0 1 6 4l4 3 23 20 31-22a50 50 0 0 1 2 26c12-5 23-13 31-24 9-10 18-24 14-38-1-5-4-9-8-11a17 17 0 0 0-7-1h-4a41 41 0 0 0-4 0 56 56 0 0 1-12 1l-6-1-5-2a9 9 0 0 1-2-2c-1-2-3-5-3-8Z" fill="#ffa624"/><path d="M375 152a12 12 0 0 0-1-5 9 9 0 0 0-2-1l-1-1v2a18 18 0 0 1 0 2l1 5v6a11 11 0 0 1-1 3 1 1 0 0 0 2 0l3-6a16 16 0 0 0-1-5Zm-4 16a1 1 0 0 0-1-1l-1 1a5 5 0 0 0 0 1v2l-1 1a3 3 0 0 0 0 1v1h1a5 5 0 0 0 1-1v-1h1a7 7 0 0 0 0-1 4 4 0 0 0 0-1 4 4 0 0 0 0-2Z" fill="#fff"/><path d="M346 463a175 175 0 0 1 4-22l6-23 6-22 6-22 5-23 6-22a20 20 0 0 0 1-5 20 20 0 0 0-1-6 184 184 0 0 0-13-32 115 115 0 0 1 12 21l4 11a23 23 0 0 1 1 6 22 22 0 0 1-1 6l-11 44-6 23-6 22-6 22a171 171 0 0 1-7 22Z" fill="#3d200c"/><path d="M412 335a126 126 0 0 0-26 6l-8 3-1-2a56 56 0 0 1 8-4 83 83 0 0 1 9-2 86 86 0 0 1 9-1 80 80 0 0 1 9 0Zm47 16a8 8 0 0 0 1-4 8 8 0 0 0 0-2 5 5 0 0 0 0-1 11 11 0 0 0-1-1c-1-3-4-5-7-7a129 129 0 0 0-17-12l-18-10a118 118 0 0 1-17-12l-16-14-15-15-15-15a72 72 0 0 1-11-17 153 153 0 0 0 13 16l15 14 15 15 15 14a118 118 0 0 0 17 12l19 10a131 131 0 0 1 17 12l4 3a20 20 0 0 1 4 4 13 13 0 0 1 0 2 8 8 0 0 1 1 1 11 11 0 0 1 0 3 10 10 0 0 1-2 6Z" fill="#3d200c"/><path d="M451 340a36 36 0 0 1 8 8 39 39 0 0 1 3 5 21 21 0 0 1 2 6 12 12 0 0 1 0 3 4 4 0 0 1-2 4 5 5 0 0 1-4 0 8 8 0 0 1-3-2 37 37 0 0 1-7-10h2a57 57 0 0 0 7 8 6 6 0 0 0 2 2 2 2 0 0 0 2 0 2 2 0 0 0 1-2 9 9 0 0 0 0-2 23 23 0 0 0-2-6l-3-5a69 69 0 0 0-6-9Z" fill="#3d200c"/><path d="M444 342a46 46 0 0 1 6 11 51 51 0 0 1 2 6 34 34 0 0 1 1 6 20 20 0 0 1-1 6 14 14 0 0 1-1 3 6 6 0 0 1-1 2 5 5 0 0 1-1 1 3 3 0 0 1-3 0 3 3 0 0 1-2-1 14 14 0 0 1 0-2l-1-1a25 25 0 0 1-1-6l1-1a29 29 0 0 0 2 6l1 1v1l1 1a3 3 0 0 0 1-1 4 4 0 0 0 1-1 13 13 0 0 0 1-2 20 20 0 0 0 0-6 56 56 0 0 0-2-11l-4-12Z" fill="#3d200c"/><path d="M441 352a42 42 0 0 1 2 19 51 51 0 0 1-1 10 53 53 0 0 1-4 9 88 88 0 0 1-11 16 180 180 0 0 1-13 14 225 225 0 0 1-29 25l-8 5a42 42 0 0 1-9 5 20 20 0 0 1-5 1 14 14 0 0 1-5-1 27 27 0 0 1-5-2 46 46 0 0 1-4-3l1-2a45 45 0 0 0 4 3 27 27 0 0 0 4 1 11 11 0 0 0 5 1 16 16 0 0 0 4-1 39 39 0 0 0 8-5l8-5a221 221 0 0 0 29-24 185 185 0 0 0 13-14 85 85 0 0 0 11-15 50 50 0 0 0 3-9 49 49 0 0 0 2-9v-19Zm-92 102a152 152 0 0 0 6 20l4 11 2 5a10 10 0 0 1 1 3 7 7 0 0 1-1 3 30 30 0 0 1-7 9 53 53 0 0 1-9 7 15 15 0 0 1-6 2 9 9 0 0 1-2 0 12 12 0 0 1-1-1 8 8 0 0 1-3-2c-3-2-5-6-6-9l7 8a7 7 0 0 0 2 1h2a7 7 0 0 0 1 0 13 13 0 0 0 4-2 46 46 0 0 0 9-6 28 28 0 0 0 7-8 4 4 0 0 0 0-2 8 8 0 0 0 0-2l-2-5-4-11a93 93 0 0 1-6-21Zm-32 24h-25a335 335 0 0 0-48 3l-6 1-6 1-5 2-6 1-1-3 6-1 6-1 6-2 6-1a292 292 0 0 1 48-3 128 128 0 0 1 25 3Zm-14 64a62 62 0 0 0-6-4 8 8 0 0 0-4-1 6 6 0 0 0-3 1 16 16 0 0 0-3 3l-2 3-5 6-5 6-3 3a15 15 0 0 0-2 3 2 2 0 0 0 0 1l1 1a6 6 0 0 0 3 0l2-1h6a128 128 0 0 1 31 1l8 1 8 2 15 2 16 2 8 1h11a35 35 0 0 0 4 0 7 7 0 0 0 3-2 2 2 0 0 0 1-1 3 3 0 0 0 0-1 11 11 0 0 0-1-4l-1-3-1-2-1-2-2-3-3-7a54 54 0 0 0-4-7 13 13 0 0 0-6-4 7 7 0 0 0-4 0 12 12 0 0 0-1 0l-2 1-7 4c-2 2-4 2-7 3l-13 9a76 76 0 0 1 12-10 67 67 0 0 1 7-5l7-3 2-1a13 13 0 0 1 2 0 12 12 0 0 1 2 0 10 10 0 0 1 2 0 11 11 0 0 1 4 2 22 22 0 0 1 3 3 55 55 0 0 1 4 7 107 107 0 0 1 6 10l1 2v2l2 3a12 12 0 0 1 1 4 5 5 0 0 1-1 5 9 9 0 0 1-4 1 34 34 0 0 1-4 1h-12l-8-1a212 212 0 0 1-31-4l-8-2-8-1a126 126 0 0 0-31-1 97 97 0 0 0-8 1 14 14 0 0 1-2 0 6 6 0 0 1-2 0 4 4 0 0 1-1-1 3 3 0 0 1-1-1 4 4 0 0 1 0-3 16 16 0 0 1 2-4 125 125 0 0 1 13-15l3-2a24 24 0 0 1 3-3 7 7 0 0 1 4-1 11 11 0 0 1 4 0l7 4Z" fill="#3d200c"/><path d="m373 537 10-4 5-2a7 7 0 0 1 3-1 6 6 0 0 1 3 1 13 13 0 0 1 4 4 62 62 0 0 1 4 8l1 2a99 99 0 0 1 9 20l1 2a4 4 0 0 1 0 2 3 3 0 0 1-2 2 5 5 0 0 1-1 0 20 20 0 0 1-3 1 65 65 0 0 1-9 0l-11-1v-2h19a20 20 0 0 0 3 0 3 3 0 0 0 1-1 4 4 0 0 0 0-2l-2-5-4-10-3-5-1-2-1-3a48 48 0 0 0-2-5 11 11 0 0 0-4-4 5 5 0 0 0-2 0 5 5 0 0 0-2 0l-5 3-10 4Z" fill="#3d200c"/><path d="M411 567h9a4 4 0 0 0 2 0 3 3 0 0 0 0-2 95 95 0 0 0-7-13l-8-13-2-4-1-1a2 2 0 0 0-1-1 5 5 0 0 0-3 1 8 8 0 0 0-2 1 5 5 0 0 0-1 1l-2-2a9 9 0 0 1 2-1 15 15 0 0 1 2-1 10 10 0 0 1 2-1 5 5 0 0 1 2 0l1 1a4 4 0 0 1 1 1l1 1 3 4 8 12a97 97 0 0 1 7 14 5 5 0 0 1 1 3 3 3 0 0 1-1 1 3 3 0 0 1-1 1 7 7 0 0 1-3 1h-10Z" fill="#3d200c"/><path d="M346 543a90 90 0 0 1-9-31" fill="none" stroke="#3d200c" stroke-miterlimit="10" stroke-width="3"/><path d="m297 553 4-8 3-8a69 69 0 0 0 2-8l1-8h2a51 51 0 0 1-3 17 48 48 0 0 1-3 8 46 46 0 0 1-6 7Z" fill="#3d200c"/><path d="m308 493-3 12a40 40 0 0 0 0 12 6 6 0 0 0 0 2l1 1a7 7 0 0 0 3-1 17 17 0 0 0 2-2 28 28 0 0 0 8-8l2 1a25 25 0 0 1-3 5 26 26 0 0 1-5 5 18 18 0 0 1-3 2 10 10 0 0 1-3 1 4 4 0 0 1-3-1 4 4 0 0 1-1-1 8 8 0 0 1-1-4 35 35 0 0 1 1-13 66 66 0 0 1 5-11Z" fill="#3d200c"/><path d="m315 495 3 9a85 85 0 0 0 5 8l1 2a16 16 0 0 0 1 1 5 5 0 0 0 1 2 1 1 0 0 0 2 0 3 3 0 0 0 1-1 10 10 0 0 0 1-2 28 28 0 0 0 2-4l2 1a23 23 0 0 1-1 5 10 10 0 0 1-2 2 6 6 0 0 1-3 1 4 4 0 0 1-3 0 7 7 0 0 1-2-2 19 19 0 0 1-2-2l-1-2a48 48 0 0 1-3-9 40 40 0 0 1-2-9Zm-9 6a22 22 0 0 1-5 5 30 30 0 0 1-8 4 39 39 0 0 1-3 1 11 11 0 0 1-3 0 5 5 0 0 1-2 0 5 5 0 0 1-2-2 6 6 0 0 1-1-3 8 8 0 0 1 2-4l2-3 2-3 4-7a47 47 0 0 0 7-13l3 1a48 48 0 0 1-8 14l-4 6-2 3-2 3a6 6 0 0 0-1 3 3 3 0 0 0 1 2 4 4 0 0 0 3 0l4-1a31 31 0 0 0 12-7ZM195 112l-5 24a236 236 0 0 0-3 24 366 366 0 0 0 1 48c3 33 10 65 14 97a408 408 0 0 1 2 49l-3 49-7 49-2 12c-1 4-2 8-1 12a10 10 0 0 0 2 4 16 16 0 0 0 5 3 42 42 0 0 0 12 3l-1 3a45 45 0 0 1-12-3 19 19 0 0 1-5-4 12 12 0 0 1-4-6 18 18 0 0 1 0-6l1-6 2-12 7-49 2-49a404 404 0 0 0-2-48c-3-33-10-65-13-97a296 296 0 0 1 0-49 228 228 0 0 1 3-25l1-6 1-6a84 84 0 0 1 5-11Z" fill="#3d200c"/><path d="M202 103a72 72 0 0 0-12 7 62 62 0 0 0-5 4l-5 5a23 23 0 0 0-2 2 7 7 0 0 0-1 2 2 2 0 0 0-1 1 1 1 0 0 0 1 1 2 2 0 0 0 1 0 4 4 0 0 0 1 0 6 6 0 0 0 1 0h1a30 30 0 0 0 12-6 26 26 0 0 1-12 8h-1a9 9 0 0 1-1 1 6 6 0 0 1-2 0 4 4 0 0 1-2-2 4 4 0 0 1-1-2 5 5 0 0 1 0-2 9 9 0 0 1 1-2 25 25 0 0 1 3-3 50 50 0 0 1 11-9 43 43 0 0 1 13-5Z" fill="#3d200c"/><path d="M194 107a31 31 0 0 1-4 3 41 41 0 0 1-4 2 29 29 0 0 1-9 2 20 20 0 0 1-4 0 14 14 0 0 1-5-2 8 8 0 0 1-2-1 5 5 0 0 1-1-3 5 5 0 0 1 0-2 7 7 0 0 1 2-2l2-2 2-1 3-3 7-4a70 70 0 0 1 16-8 48 48 0 0 1 9-1 63 63 0 0 1 9 0h8l9 1 34 4 34 6 17 2 8 1h9a28 28 0 0 0 8-1l8-3a27 27 0 0 1 9 0 17 17 0 0 1 9 3 12 12 0 0 1 4 7 19 19 0 0 1-1 9 31 31 0 0 1-3 8 40 40 0 0 1-6 7l-2-2a32 32 0 0 0 10-13 17 17 0 0 0 0-8 10 10 0 0 0-4-7 14 14 0 0 0-7-2 25 25 0 0 0-8 0l-8 3a30 30 0 0 1-9 2l-5-1h-4a606 606 0 0 1-26-3l-34-5a502 502 0 0 0-51-6 59 59 0 0 0-8 0 45 45 0 0 0-8 2c-11 3-20 10-29 17a3 3 0 0 0-2 2 3 3 0 0 0 2 2 12 12 0 0 0 4 1 18 18 0 0 0 4 0 33 33 0 0 0 8-1 46 46 0 0 0 8-4Zm132 24c5 4 11 5 17 6a83 83 0 0 0 8 0l9-1a27 27 0 0 1 10 1 14 14 0 0 1 4 2 15 15 0 0 1 3 3 20 20 0 0 1 4 9 29 29 0 0 1 0 9 40 40 0 0 1-3 9 58 58 0 0 1-4 8 85 85 0 0 1-5 8l-6 7a88 88 0 0 1-13 12 84 84 0 0 1-16 9l-2 1v-3a52 52 0 0 0 1-17 25 25 0 0 0-2-8 9 9 0 0 0-2-3 7 7 0 0 0-4-1l-8 1-9 2a90 90 0 0 1-17 2 50 50 0 0 1-18-2 49 49 0 0 1-15-10c-4-3-9-8-11-13a27 27 0 0 1-3-9 21 21 0 0 1 1-9l2 1c-1 5 0 11 2 16s6 9 11 13a47 47 0 0 0 14 8 48 48 0 0 0 17 3 87 87 0 0 0 17-2l8-2 9-1a9 9 0 0 1 5 2 10 10 0 0 1 3 3 27 27 0 0 1 2 9 51 51 0 0 1 1 9 63 63 0 0 1-1 9l-2-2a85 85 0 0 0 29-20l5-7a84 84 0 0 0 5-7 56 56 0 0 0 4-8 38 38 0 0 0 3-8 27 27 0 0 0 0-9 18 18 0 0 0-3-8 13 13 0 0 0-7-5 21 21 0 0 0-8 0c-6 1-12 2-19 1a29 29 0 0 1-9-2 17 17 0 0 1-7-6Z" fill="#3d200c"/><path d="m331 186-29 20c-10-6-20-15-29-23" fill="none" stroke="#3d200c" stroke-miterlimit="10" stroke-width="3"/><path d="m253 147-4-1-4-2h-9a10 10 0 0 1 5-2 13 13 0 0 1 4 0 14 14 0 0 1 5 2 10 10 0 0 1 3 3Zm94 57 1 13a197 197 0 0 0 7 38l-2 1a117 117 0 0 1-4-13 164 164 0 0 1-5-39ZM224 555a33 33 0 0 0-1-4 13 13 0 0 0-2-3 33 33 0 0 0-3-3l-3-3-3-3a15 15 0 0 0-4-2 6 6 0 0 0-4 0 9 9 0 0 0-2 1l-2 1a80 80 0 0 0-7 5 18 18 0 0 0-3 2 9 9 0 0 0-1 2 19 19 0 0 0-1 2c-2 5-3 11-3 17v5a8 8 0 0 0 1 1l8 4 4 2a8 8 0 0 0 2 1 5 5 0 0 0 2 0 142 142 0 0 0 21-5 4 4 0 0 0 1-1 2 2 0 0 0 1-1v-9a54 54 0 0 0-1-9Zm3 0a55 55 0 0 1 0 9v9a6 6 0 0 1 0 1 4 4 0 0 1-1 2 6 6 0 0 1-2 1l-5 1-8 3-9 1a8 8 0 0 1-3 0 10 10 0 0 1-2-1l-4-2-8-4h-1a4 4 0 0 1-1-1 3 3 0 0 1-1-1 3 3 0 0 1 0-1v-5a79 79 0 0 1 1-9 32 32 0 0 1 3-9 20 20 0 0 1 1-2 12 12 0 0 1 1-2 20 20 0 0 1 4-3l7-4 2-2a11 11 0 0 1 3 0 8 8 0 0 1 4 0 19 19 0 0 1 5 2l3 2 4 3a34 34 0 0 1 3 3 13 13 0 0 1 2 4 32 32 0 0 1 2 5Z" fill="#3d200c"/><path d="M191 544a33 33 0 0 0-3-4 25 25 0 0 0-3-3 9 9 0 0 0-4-2 5 5 0 0 0-4 2 34 34 0 0 0-3 3l-3 4-3 4-2 5c0 2-2 3-3 4v1l-1 1-1 2a9 9 0 0 0 0 2 2 2 0 0 0 0 1 9 9 0 0 0 2 1l2 1 2 1 3 1 4 1a46 46 0 0 0 10 1v2a48 48 0 0 1-15-2h-2l-3-1-2-1a11 11 0 0 1-3-1v-1a3 3 0 0 1-1-1 4 4 0 0 1 0-2 11 11 0 0 1 1-3l1-2v-1l1-1 2-5a73 73 0 0 1 6-8l3-4a48 48 0 0 1 4-4 8 8 0 0 1 2-1 6 6 0 0 1 3-1 11 11 0 0 1 5 2 36 36 0 0 1 4 4l3 3Zm82-395-11-5a113 113 0 0 0-11-5 117 117 0 0 0-11-4l-12-2a53 53 0 0 1 12 0 64 64 0 0 1 23 9 53 53 0 0 1 10 7Zm88-40a8 8 0 0 0-5-2 17 17 0 0 0-8 1l-16 11a43 43 0 0 1-16 7 36 36 0 0 1-17-1c-5-1-9-4-14-6l-13-7c-9-4-18-8-28-7-3 0-6 1-8 4 17 1 32 9 48 15a81 81 0 0 0 14 4 54 54 0 0 0 32-5 142 142 0 0 0 16-9c4-3 9-5 15-5ZM226 571a48 48 0 0 0 17-5 15 15 0 0 0 3-2 3 3 0 0 0 1-1 4 4 0 0 0 0-2 12 12 0 0 0-1-4l-3-4-11-14a6 6 0 0 0-3-2 4 4 0 0 0-4 1 11 11 0 0 0-2 3 36 36 0 0 0-1 5l-3-1 2-4a13 13 0 0 1 3-4 7 7 0 0 1 2-2 5 5 0 0 1 3 0 9 9 0 0 1 4 2l4 4 3 3 5 8 3 4a15 15 0 0 1 2 4 7 7 0 0 1 0 3 6 6 0 0 1-1 2l-1 1a5 5 0 0 1-1 1 8 8 0 0 1-1 0l-2 1a49 49 0 0 1-18 5Zm116-321a70 70 0 0 1 11 20 49 49 0 0 1 3 11 42 42 0 0 1-1 11 21 21 0 0 1-2 6 9 9 0 0 1-2 3 8 8 0 0 1-3 2 6 6 0 0 1-3-1 6 6 0 0 1-3-2 8 8 0 0 1-1-3 18 18 0 0 1 0-3c0-7-1-15-3-22a60 60 0 0 1 4 11 57 57 0 0 1 1 5 51 51 0 0 1 0 6 9 9 0 0 0 1 5 3 3 0 0 0 4 1 5 5 0 0 0 1-1 6 6 0 0 0 2-2 20 20 0 0 0 1-5 45 45 0 0 0-1-22c-2-7-6-14-9-20Z" fill="#3d200c"/><path d="M341 280a30 30 0 0 1-1 11 37 37 0 0 1-5 10 45 45 0 0 1-3 5 8 8 0 0 1-2 2 4 4 0 0 1-2 0 3 3 0 0 1-2 0 5 5 0 0 1-2-3 20 20 0 0 1-1-3 55 55 0 0 1 0-6 76 76 0 0 0-14-40 65 65 0 0 1 12 19 66 66 0 0 1 4 21 49 49 0 0 0 1 6l1 4a2 2 0 0 0 2 0 6 6 0 0 0 1-1 37 37 0 0 0 4-5c4-6 6-13 6-20Zm10-14a22 22 0 0 0 3 4 31 31 0 0 0 3 3l4 2a30 30 0 0 0 3 3 15 15 0 0 0 4 1 8 8 0 0 0 2 0h1a2 2 0 0 0 0-1 10 10 0 0 0-1-2 27 27 0 0 0-2-4l2-1a31 31 0 0 1 3 4 13 13 0 0 1 1 2 6 6 0 0 1 0 1 3 3 0 0 1-1 2 3 3 0 0 1-1 1 5 5 0 0 1-2 1 11 11 0 0 1-2-1 18 18 0 0 1-5-1 31 31 0 0 1-4-3 40 40 0 0 1-3-3 26 26 0 0 1-6-7ZM226 537a97 97 0 0 1-5-26 136 136 0 0 1 0-27h3a134 134 0 0 0-1 27 95 95 0 0 0 5 25Zm-31 3a90 90 0 0 0 10-27 155 155 0 0 0 2-28h3a157 157 0 0 1-3 29 92 92 0 0 1-11 27Zm166-417a19 19 0 0 0-3-8c-2-3-5-4-8-5a1 1 0 0 0-1 0 13 13 0 0 0-2 3 6 6 0 0 1 5 1c4 2 7 7 8 12a28 28 0 0 1 0 6c0 1 0 4-2 5a13 13 0 0 1 2-1 26 26 0 0 1 1-3 27 27 0 0 0 0-10Zm-28 11c-2-1-4-4-3-7a11 11 0 0 1 1-4 8 8 0 0 1 1-1l1-2h-1c-2 0-3 2-3 3a10 10 0 0 0 0 9 7 7 0 0 0 5 3 11 11 0 0 1-1-1Z" fill="#3d200c"/><path d="M328 126a11 11 0 0 0 1-5l-3 2a31 31 0 0 0-3 1c-3 8-11 13-18 16a67 67 0 0 1-22 6 34 34 0 0 1-10 0 24 24 0 0 1-4-1l-4-1a34 34 0 0 0 15 4 40 40 0 0 0 7 0 66 66 0 0 0 8-2c10-2 20-6 27-13a36 36 0 0 0 5-5 16 16 0 0 0 1-2Zm-72-16-3 2a13 13 0 0 0-1 2c-3 5-3 11-2 16a18 18 0 0 0 2 5 7 7 0 0 0 2 3 13 13 0 0 0 3 1c-5-2-6-9-5-14 0-5 3-9 6-13a5 5 0 0 1-2-2Z" fill="#3d200c"/><path d="M323 287s6 166-100 227c-86-42-112-104-146-200 39-20 118-49 118-49a731 731 0 0 1 128 22Z" fill="#acaeaf"/><path d="M223 502c-2-4-21-136-26-164-4 3-80-26-82-25l77-43c-9 4-113 44-112 48 23 60 44 121 95 162a221 221 0 0 0 44 27l4 2 5-5 8-7 15-16a394 394 0 0 0 26-34c-14 20-32 43-54 55Zm-26-13c-26-17-46-41-61-70-17-31-28-65-40-98l45 11 35 11a10 10 0 0 1 4 3 12 12 0 0 1 2 4c7 22 27 138 28 147-2 0-11-6-13-8Z" fill="#acaeaf" opacity="1" style="mix-blend-mode:multiply"/><path d="M294 299c-25 13-46 25-69 40 1 13 0 121 8 155 3-1 7-7 10-9a145 145 0 0 0 11-11 164 164 0 0 0 19-25c11-18 19-38 25-58a343 343 0 0 0 12-91 40 40 0 0 0-1-9l-15 8Z" fill="#acaeaf" opacity="1" style="mix-blend-mode:overlay"/><path d="M298 337a118 118 0 0 0-1-13h-1l-2 13-1 13-2 12-1 6-1 9h2c3-3 4-8 5-13l2-13a112 112 0 0 0 0-14Zm-8 47a3 3 0 0 0-1-2 1 1 0 0 0-2 0l-2 6-1 3v1a4 4 0 0 0 0 2 2 2 0 0 0 0 1 1 1 0 0 0 1 1l2-1a5 5 0 0 0 1-1 18 18 0 0 0 1-3 16 16 0 0 0 1-4 12 12 0 0 0 0-3Z" fill="#fff"/><path d="m223 513 3-2 2-1 2-2 6-4 13-10a171 171 0 0 0 21-24c13-17 23-36 31-56a333 333 0 0 0 16-63l4-32 1-32 1 1a731 731 0 0 0-128-22h1l-30 11-30 12a1084 1084 0 0 0-59 27l1-2 22 60c8 20 18 39 29 56a214 214 0 0 0 42 48 222 222 0 0 0 25 19l14 8 3 2 2 1 2 1 6 4Zm1 2a286 286 0 0 1-10-5l-2-1-3-1-14-9a224 224 0 0 1-26-19 217 217 0 0 1-42-48c-11-18-21-38-29-57l-23-60v-1l1-1a490 490 0 0 1 59-26l30-12 30-11a731 731 0 0 1 129 22h1v1a329 329 0 0 1-5 65 336 336 0 0 1-17 62c-7 21-17 40-31 58a173 173 0 0 1-22 24l-12 10-7 5-2 1-1 1-4 2Z" fill="#3d200c"/></g></svg>