<svg xmlns="http://www.w3.org/2000/svg" width="128" height="128" overflow="visible" viewBox="550 0 900 900"><defs><style>.cls-1{isolation:isolate;}.cls-2{fill:#3d200c;}.cls-3{fill:#fff3ee;}.cls-4,.cls-6{fill:#936342;}.cls-4,.cls-9{opacity:0.2;}.cls-13,.cls-4,.cls-8{mix-blend-mode:multiply;}.cls-10,.cls-15,.cls-5,.cls-9{fill:#fff;}.cls-7,.cls-8{fill:#ffa624;}.cls-10,.cls-16,.cls-8{opacity:0.4;}.cls-10,.cls-14,.cls-16,.cls-9{mix-blend-mode:overlay;}.cls-11{fill:none;stroke:#3d200c;stroke-miterlimit:10;stroke-width:2.5px;}.cls-12,.cls-13,.cls-14,.cls-16{fill:#acaeaf;}.cls-13{opacity:0.5;}.cls-14{opacity:0.6;}.cls-15{opacity:0.45;mix-blend-mode:screen;}.cls-17{opacity:0.3;}</style></defs><g class="cls-1"><g id="Layer_1" data-name="Layer 1"><path class="cls-2" d="M200.72,583a7.83,7.83,0,0,1-1.4-.13,10.91,10.91,0,0,1-2.52-.88l-4-2-8.91-4.41a5,5,0,0,1-1.48-1.06,3.36,3.36,0,0,1-.67-1.14c0-.09-.06-.19-.08-.27a49.5,49.5,0,0,1-7.82-.87,47.07,47.07,0,0,1-5-1.27c-.81-.24-1.67-.54-2.41-.8l-2.34-.76c-1-.33-1.75-.62-2.48-.93a11.52,11.52,0,0,1-2.62-1.46l-.1-.08-.26-.22-.37-.39a3.39,3.39,0,0,1-.71-1.29,4.55,4.55,0,0,1-.13-2.05,11,11,0,0,1,.84-2.87c.26-.63.54-1.23.81-1.8l.25-.54.49-1.11.55-1.17c.66-1.35,1.44-2.78,2.45-4.5a72.8,72.8,0,0,1,5.66-8.39c1-1.23,2-2.5,3.2-3.89l.64-.73a36.5,36.5,0,0,1,2.86-3.06,9.3,9.3,0,0,1,2.44-1.65,6.3,6.3,0,0,1,2.63-.58l.52,0a11.73,11.73,0,0,1,5.23,2.1,35,35,0,0,1,4.1,3.25c.92.84,1.83,1.7,2.7,2.56.65-.42,1.3-.84,2-1.25a81.78,81.78,0,0,0,6.53-15.67c-2.43.31-4.81.58-7.08.79-6.55.67-13,1.17-19.3,1.49-4.58.22-8.7.33-12.62.33-2.33,0-4.62,0-6.82-.12A137.35,137.35,0,0,1,136,524.37,85.86,85.86,0,0,1,117.12,519a62.78,62.78,0,0,1-8.84-4.54l-.27-.17a7.89,7.89,0,0,1-1-.64,5.38,5.38,0,0,1-1.24-1.52,5.23,5.23,0,0,1-.47-3.74,5.5,5.5,0,0,1,.8-1.76,5.34,5.34,0,0,1,.62-.73l.47-.44L109,503.8A444.72,444.72,0,0,1,153.93,467a227.55,227.55,0,0,1-27.25-34.87c-10.22-15.93-19.49-34.1-29.18-57.16-8.3-19.8-15.51-39.61-22.76-59.85l-.38-1.05a.69.69,0,0,1,.34-.86l1-.5c9.92-5.15,19.91-9.67,29.22-13.79,8.53-3.77,17.69-7.64,29.71-12.53,9.21-3.76,19-7.65,30-11.87,9.69-3.74,18.64-7.13,27.34-10.34l-.37-2.34c-2.8-17.34-5.68-35.27-7.17-53.15-.64-7.17-1-15-1-24.61s.3-17.38.81-24.59A229.75,229.75,0,0,1,187,135c.32-1.78.71-3.71,1.23-6.07.15-.6.29-1.18.44-1.76.29-1.19.59-2.42,1-3.63a27.27,27.27,0,0,1-8.26,4.23l-.9.26a9.9,9.9,0,0,1-1.11.21,7.73,7.73,0,0,1-1,.06,6.46,6.46,0,0,1-1.4-.15,4.77,4.77,0,0,1-2.49-1.34,4.32,4.32,0,0,1-1.18-2.81,5.78,5.78,0,0,1,.47-2.57,9.75,9.75,0,0,1,1.08-1.89,25.43,25.43,0,0,1,2.53-2.86c.78-.81,1.6-1.62,2.45-2.41-.82.16-1.62.27-2.42.35a17.82,17.82,0,0,1-2,.11,24.2,24.2,0,0,1-2.72-.16,15.23,15.23,0,0,1-4.74-1.47,8.72,8.72,0,0,1-2.26-1.62,5.67,5.67,0,0,1-1.53-2.92,5.31,5.31,0,0,1,.56-3.33,7.65,7.65,0,0,1,1.81-2.26c.51-.43.95-.75,1.38-1.06l2.23-1.6,3.54-2.48c2.64-1.82,5-3.37,7.3-4.74a69.16,69.16,0,0,1,16-7.38A48.88,48.88,0,0,1,205.82,84a51.08,51.08,0,0,1,5.13-.23c1.12,0,2.34,0,3.73.08,1.88.08,3.77.2,5.6.33l3,.2c2.88.21,5.75.46,8.61.72,12.08,1.2,24,3,34.15,4.52,3.75.58,7.5,1.18,11.24,1.77,7.43,1.18,15.11,2.39,22.67,3.47,5.25.76,10.8,1.46,17,2.15,2.28.24,4.55.46,6.83.67l1.68.15,5.46.41c1,.07,1.92.15,2.81.15h.22a27.81,27.81,0,0,0,7.76-1.47c1-.27,2-.57,2.95-.86,1.74-.53,3.54-1.07,5.41-1.49a30.19,30.19,0,0,1,6.86-.86c.75,0,1.51,0,2.23.11A17.16,17.16,0,0,1,368,97a13,13,0,0,1,5,8.19,19.61,19.61,0,0,1-.83,9.26,31,31,0,0,1-4,8.13,41.07,41.07,0,0,1-5.63,6.66l0,.45a26.43,26.43,0,0,1-.53,3.49c-.09.41-.21.81-.32,1.2s-.16.56-.23.84l1.15-.05h.86a19.27,19.27,0,0,1,8.45,1.61,16.19,16.19,0,0,1,7,6.57,21.07,21.07,0,0,1,1.91,4.37,14.32,14.32,0,0,1,.4,1.63c0,.21.38,1.77.38,1.77l.14,1.19a29.59,29.59,0,0,1-.32,9.3,43,43,0,0,1-2.7,8.79,62.13,62.13,0,0,1-4.26,8,82.55,82.55,0,0,1-5.15,7.39c-2,2.55-3.86,4.8-5.78,6.88a89.71,89.71,0,0,1-13.55,11.86c-.78.54-1.57,1-2.36,1.56.15,3.81.39,7.54.7,11.09.42,4.71.93,8.88,1.54,12.76.6,4,1.4,8.29,2.38,12.64s2.06,8.33,3.26,12.14l.44.47.84.91c4.12,4.36,8.47,8.69,12.67,12.87l1.05,1.05a.57.57,0,0,1,.11.11l.81.81c5.37,5.38,10.88,10.5,15.07,14.36,4.7,4.33,9.78,8.88,15.55,13.9A115,115,0,0,0,418.71,311c3.37,2,6.87,3.92,10.26,5.8,2.6,1.45,5.3,2.94,7.94,4.46a130.93,130.93,0,0,1,17.62,11.81l1.35,1.15c.89.76,1.82,1.54,2.7,2.4a20.94,20.94,0,0,1,3.64,4.46c.25.45.48.9.69,1.36a9.18,9.18,0,0,1,.51,1.62,11.52,11.52,0,0,1,.2,3.14,11.75,11.75,0,0,1-1.42,4.95c.15.3.31.6.45.9a22,22,0,0,1,2.16,6,12.11,12.11,0,0,1,.16,3.51,5,5,0,0,1-5,4.6,5.87,5.87,0,0,1-1.94-.34,8.65,8.65,0,0,1-3.13-2.05c-.57-.55-1.11-1.13-1.65-1.75.08.57.13,1.14.18,1.7a20.8,20.8,0,0,1-.51,6.55,14.91,14.91,0,0,1-1.17,3.21,6.86,6.86,0,0,1-1.06,1.66,5.54,5.54,0,0,1-1.77,1.43,3.66,3.66,0,0,1-1.71.41,3.23,3.23,0,0,1-1.33-.27,4,4,0,0,1-1.95-1.8c-.11-.18-.19-.35-.27-.51a49,49,0,0,1-1.2,5.62,52.34,52.34,0,0,1-3.62,9.26,87.92,87.92,0,0,1-11,16.19,178.46,178.46,0,0,1-13,14.37,223.75,223.75,0,0,1-29.92,24.39c-2.55,1.76-5.26,3.55-8,5.31a42.7,42.7,0,0,1-8.86,4.69,19.55,19.55,0,0,1-5.21,1.17c-.33,0-.66,0-1,0a15.16,15.16,0,0,1-4.5-.71,28.55,28.55,0,0,1-4.72-2.07c-.7-.38-1.42-.8-2.25-1.32l-.54,1.7a153.7,153.7,0,0,0,6.24,20.18L360,484.46c.65,1.73,1.28,3.45,1.91,5.21a10.88,10.88,0,0,1,.67,3.3,7.53,7.53,0,0,1-.93,3.57,31.24,31.24,0,0,1-7.6,8.85,53.31,53.31,0,0,1-9.14,6.78,16.4,16.4,0,0,1-5.3,2,88.06,88.06,0,0,0,7.72,26.78c1.94-1.31,3.63-2.33,5.25-3.21,2.27-1.21,4.7-2.36,7.25-3.43.4-.18.86-.34,1.32-.5l.65-.23.1,0,.63-.16a8.3,8.3,0,0,1,1.56-.29,9.36,9.36,0,0,1,1.43-.09h.78a11.27,11.27,0,0,1,6.26,2.61c.24.19.46.4.68.61,3.27-1.26,6.54-2.62,9.6-3.91.94-.38,1.84-.78,2.76-1.18l2.3-1a7.8,7.8,0,0,1,2.86-.65,3.62,3.62,0,0,1,.47,0,6.72,6.72,0,0,1,3.23,1,10.76,10.76,0,0,1,2.31,2h0a16.89,16.89,0,0,1,1.93-1,11.31,11.31,0,0,1,2.15-.73,7.46,7.46,0,0,1,1.53-.18,4.48,4.48,0,0,1,1.1.13,5.63,5.63,0,0,1,.54.19l.16,0a4,4,0,0,1,.58.34l.13.09a5.31,5.31,0,0,1,1,1.1l3.33,4.7c2.9,4,6,8.38,8.66,12.92a97.13,97.13,0,0,1,6.9,14.12l.07.18a5.42,5.42,0,0,1,.39,2.69,3.68,3.68,0,0,1-.89,1.9,4.1,4.1,0,0,1-1.53,1.05,7.3,7.3,0,0,1-2.58.46l-2,0-5.85,0a3.81,3.81,0,0,1-.82.7,6.23,6.23,0,0,1-1.89.77,14.89,14.89,0,0,1-2.34.33l-.68.06c-.95.08-1.9.13-2.84.16-1.13,0-2.26.06-3.39.06h-2.2c-2,0-4.05-.14-6.07-.23l-3.85-.15a3.61,3.61,0,0,1-.3.25,9.62,9.62,0,0,1-4.33,1.82,33.28,33.28,0,0,1-4,.47h-.14c-1.26.09-2.57.14-3.9.14h-.16c-2.68,0-5.3-.17-8-.35-2.34-.18-4.64-.31-7-.44l-.85,0c-5.08-.33-10.39-.87-15.78-1.63-4.85-.68-10-1.55-15.6-2.66q-3.87-.76-7.73-1.59c-3-.62-5.38-1.06-7.62-1.4a126.67,126.67,0,0,0-18.76-1.41c-4.05,0-8.13.2-12.15.6-1.27.12-2.57.27-3.84.44-.75.08-1.27.16-1.83.27l-.28.06c-.56.1-1.14.21-1.74.3a13.93,13.93,0,0,1-2,.17h-.25a6.37,6.37,0,0,1-2.71-.62,5.32,5.32,0,0,1-1.3-.9,3.92,3.92,0,0,1-1-1.69,5,5,0,0,1,.25-3.13,15.61,15.61,0,0,1,2-3.41l.27-.37c.79-1.07,1.59-2.12,2.41-3.17,2-2.53,3.52-4.43,5-6.16,1.83-2.08,3.8-4.07,5.5-5.75l3.1-3.06a21.52,21.52,0,0,1,2.85-2.47,7.87,7.87,0,0,1,4.35-1.6h.22a12,12,0,0,1,4.15.92c1.22.47,2.4,1,3.54,1.55.67.32,1.32.62,2,.9q.17-.46.3-.93a68,68,0,0,0,2-8.18c.3-1.65.55-3.41.81-5.65a4.58,4.58,0,0,1-1.81-.48,4.53,4.53,0,0,1-2-1.94,8.82,8.82,0,0,1-.92-3.72v-.13a35.18,35.18,0,0,1,1.06-11c-.41.32-.84.63-1.28.92a30.42,30.42,0,0,1-7.28,3.5c-1.3.43-2.6.79-3.87,1.08a11.6,11.6,0,0,1-2.28.32h-.14a5.63,5.63,0,0,1-2.69-.64,5.3,5.3,0,0,1-2.11-2.16,6.52,6.52,0,0,1-.76-2.63,8.92,8.92,0,0,1,1.16-4.73c.54-1,1.13-1.92,1.69-2.78l.42-.64c.74-1.08,1.47-2.14,2.22-3.18.56-.79,1.12-1.56,1.69-2.34.92-1.27,1.85-2.55,2.74-3.83a51.22,51.22,0,0,0,6-10.54h-5.25c-7.71.05-15.8.4-24,1l-1.5.13a171.66,171.66,0,0,1-14.73,15.45l0,2.72,0,5.62c-.06,2-.19,4.1-.41,6.35a.69.69,0,0,1-.38.55,42.29,42.29,0,0,1-5.2,2.16c-1.27.47-2.57.91-3.86,1.36l-.7.24c-3.7,1.25-6.56,2.16-9.26,3s-5.24,1.51-7.91,2.2A90.2,90.2,0,0,0,228,534.14h.33a6.25,6.25,0,0,1,.87.06A9.39,9.39,0,0,1,234,537c.78.79,1.49,1.6,2.17,2.38l1,1.11c1.08,1.18,2.12,2.37,3.09,3.54,2,2.47,3.88,5,5.6,7.44l.18.25c.84,1.17,1.72,2.38,2.51,3.69a15.32,15.32,0,0,1,2,4.87,7.67,7.67,0,0,1,0,3.1.56.56,0,0,1,0,.12c0,.12-.08.26-.13.39a3.83,3.83,0,0,1-.51,1.17l-.38.61a4.84,4.84,0,0,1-.44.5l-.14.14a5.64,5.64,0,0,1-1.18,1,9.54,9.54,0,0,1-1.12.69c-.7.39-1.41.75-2.21,1.13a49,49,0,0,1-16.57,4.51,5.13,5.13,0,0,1-.22.78,4.48,4.48,0,0,1-1,1.62,6.54,6.54,0,0,1-2.68,1.54c-1.33.47-2.73.92-4.26,1.39-2.76.85-5.67,1.62-8.66,2.3s-6,1.23-8.84,1.64A10.76,10.76,0,0,1,200.72,583Z"/><path class="cls-2" d="M211,84.42c1.24,0,2.47,0,3.69.08,2.88.12,5.74.35,8.61.52s5.73.47,8.59.73c11.43,1.13,22.78,2.76,34.1,4.51s22.61,3.63,33.92,5.24c5.65.82,11.32,1.52,17,2.15,2.83.31,5.67.56,8.51.83l4.26.32c1.39.09,2.79.24,4.08.24h.22a28.29,28.29,0,0,0,8-1.5c2.74-.76,5.44-1.69,8.31-2.34a30,30,0,0,1,6.71-.84c.71,0,1.44,0,2.16.11a16.5,16.5,0,0,1,8.47,3.09,12.24,12.24,0,0,1,4.73,7.75,19.41,19.41,0,0,1-.8,8.94,30.79,30.79,0,0,1-3.93,7.94,40,40,0,0,1-5.73,6.73h0c0,.24,0,.48,0,.72a26.09,26.09,0,0,1-.52,3.4c-.22,1-.58,1.92-.72,2.94.67,0,1.34-.08,2-.1h.85a18.9,18.9,0,0,1,8.15,1.54,15.35,15.35,0,0,1,6.64,6.29,20.33,20.33,0,0,1,1.85,4.22,22.26,22.26,0,0,1,.52,2.22l.24,1.12.13,1.13a29.48,29.48,0,0,1-.3,9.09,44,44,0,0,1-2.66,8.65,64.73,64.73,0,0,1-4.21,7.94,88.82,88.82,0,0,1-5.11,7.33c-1.81,2.34-3.72,4.64-5.75,6.83A88,88,0,0,1,349.45,204c-.87.61-1.77,1.18-2.66,1.76q.21,5.76.71,11.52c.39,4.28.88,8.56,1.55,12.81s1.44,8.49,2.39,12.69,2,8.28,3.32,12.34c.47.5.93,1,1.4,1.5,4.48,4.74,9.13,9.35,13.79,14h0l0,0,.84.84c4.91,4.92,10,9.68,15.09,14.39s10.31,9.34,15.56,13.91a117.82,117.82,0,0,0,16.89,11.84c6,3.51,12.13,6.78,18.21,10.26a130.78,130.78,0,0,1,17.53,11.75c1.34,1.17,2.71,2.25,4,3.51a19.8,19.8,0,0,1,3.51,4.31,13,13,0,0,1,.65,1.29,8,8,0,0,1,.48,1.48,10.93,10.93,0,0,1,.18,2.95,10.69,10.69,0,0,1-1.53,5c.22.41.43.81.63,1.23a21.48,21.48,0,0,1,2.1,5.81,11.61,11.61,0,0,1,.16,3.3,4.31,4.31,0,0,1-4.35,4,5,5,0,0,1-1.7-.3,7.87,7.87,0,0,1-2.89-1.9,28.16,28.16,0,0,1-3.27-3.84,32.78,32.78,0,0,1,.62,4.35,20.28,20.28,0,0,1-.49,6.33,14,14,0,0,1-1.11,3.06,6.48,6.48,0,0,1-1,1.52,4.94,4.94,0,0,1-1.55,1.26,3,3,0,0,1-1.4.34,2.73,2.73,0,0,1-1.05-.21,3.38,3.38,0,0,1-1.63-1.52,13.78,13.78,0,0,1-.71-1.46c-.19-.45-.36-.9-.52-1.36a51,51,0,0,1-1.51,8.11,53,53,0,0,1-3.57,9.13A87.9,87.9,0,0,1,427.29,406a180.34,180.34,0,0,1-12.92,14.31,224.75,224.75,0,0,1-29.83,24.31q-4,2.73-8,5.3a42.3,42.3,0,0,1-8.71,4.63,19.8,19.8,0,0,1-5,1.13l-.93,0a14.26,14.26,0,0,1-4.29-.68,27.25,27.25,0,0,1-4.6-2c-1-.55-2-1.16-3-1.78-.28.92-.57,1.83-.87,2.75a152.77,152.77,0,0,0,6.31,20.45l3.88,10.27c.65,1.72,1.28,3.43,1.91,5.19a10,10,0,0,1,.63,3.08,6.76,6.76,0,0,1-.84,3.23,30.43,30.43,0,0,1-7.44,8.64,52.92,52.92,0,0,1-9,6.71,14.92,14.92,0,0,1-5.67,1.95h-.07A88.59,88.59,0,0,0,347,541.94a67.85,67.85,0,0,1,5.86-3.62c2.34-1.25,4.75-2.38,7.19-3.41.6-.26,1.3-.48,1.95-.72a13.24,13.24,0,0,1,2.08-.43,9.19,9.19,0,0,1,1.39-.09h.76a10.09,10.09,0,0,1,2.12.43,11.39,11.39,0,0,1,3.72,2c.33.28.64.59.95.88,3.38-1.29,6.71-2.67,10-4.07,1.7-.69,3.32-1.45,5.06-2.18a7.23,7.23,0,0,1,2.59-.59,2.82,2.82,0,0,1,.41,0,6.07,6.07,0,0,1,2.94.93,10.11,10.11,0,0,1,2.53,2.29l.53-.35a14.84,14.84,0,0,1,1.84-1,10.23,10.23,0,0,1,2-.69,7.45,7.45,0,0,1,1.37-.16,4,4,0,0,1,.95.11c.2.06.41.14.61.22a4,4,0,0,1,.58.36,4.13,4.13,0,0,1,.8.9l1.12,1.57,2.23,3.15c3,4.18,6,8.4,8.63,12.87a97.14,97.14,0,0,1,6.85,14,5.11,5.11,0,0,1,.42,2.53,3,3,0,0,1-.72,1.52,3.49,3.49,0,0,1-1.27.87,6.79,6.79,0,0,1-2.34.42h-2l-6.18,0a3.39,3.39,0,0,1-.86.8,5.44,5.44,0,0,1-1.68.69,19.55,19.55,0,0,1-2.93.37c-.93.08-1.86.13-2.79.17-1.13,0-2.25.06-3.37.06l-2.19,0c-3.43-.08-6.83-.28-10.2-.39a3.63,3.63,0,0,1-.46.41,8.93,8.93,0,0,1-4,1.68,33.75,33.75,0,0,1-4,.47c-1.3.1-2.59.14-3.88.14h-.13c-2.66,0-5.3-.17-7.92-.35s-5.2-.34-7.84-.49c-5.26-.34-10.51-.89-15.72-1.62S333.66,570,328.51,569q-3.87-.76-7.73-1.59c-2.54-.53-5.09-1-7.66-1.4a126.64,126.64,0,0,0-18.85-1.42c-4.08,0-8.17.2-12.22.6-1.3.12-2.59.27-3.87.44-.67.08-1.24.16-1.88.29s-1.3.25-2,.35a13.36,13.36,0,0,1-1.94.16h-.23a5.74,5.74,0,0,1-2.41-.54,4.46,4.46,0,0,1-1.13-.79,3.08,3.08,0,0,1-.8-1.35A4.23,4.23,0,0,1,268,561a16.63,16.63,0,0,1,2.23-3.62c.78-1.06,1.58-2.11,2.39-3.15,1.62-2.09,3.28-4.15,5-6.13s3.6-3.86,5.47-5.71l2.8-2.77A24,24,0,0,1,289,537a7.32,7.32,0,0,1,4-1.47h.19a11.11,11.11,0,0,1,3.9.87c2.15.83,4.17,1.92,6.18,2.74.18-.55.37-1.1.54-1.66a69.38,69.38,0,0,0,2-8.26c.38-2.14.66-4.31.91-6.48h-.4a4.25,4.25,0,0,1-1.89-.41,4,4,0,0,1-1.71-1.65,8.48,8.48,0,0,1-.84-3.58,35.19,35.19,0,0,1,1.55-12.63c0-.12.09-.24.12-.36a22.79,22.79,0,0,1-3,2.37,29.7,29.7,0,0,1-7.12,3.41,38.82,38.82,0,0,1-3.79,1.07,11.38,11.38,0,0,1-2.14.3h-.13a4.91,4.91,0,0,1-2.35-.56,4.59,4.59,0,0,1-1.84-1.87,5.91,5.91,0,0,1-.67-2.35,8.33,8.33,0,0,1,1.08-4.36c.66-1.24,1.38-2.27,2.08-3.36s1.45-2.12,2.2-3.16c1.49-2.08,3-4.11,4.44-6.17a50.53,50.53,0,0,0,6.39-11.64h-6.26c-8,.05-16.08.42-24.09,1l-1.79.16a170.8,170.8,0,0,1-15.09,15.82l.05,3-.05,5.61c-.06,2.1-.21,4.24-.41,6.28a42.44,42.44,0,0,1-5.11,2.12c-1.51.55-3,1.08-4.56,1.6-3.06,1-6.13,2-9.23,3-2.81.84-5.65,1.62-8.5,2.35a91.6,91.6,0,0,0,3.86,16.18,5.66,5.66,0,0,1,.82-.06,5,5,0,0,1,.77.06,8.62,8.62,0,0,1,4.37,2.6c1.13,1.15,2.13,2.36,3.13,3.46s2.08,2.32,3.07,3.51c2,2.41,3.78,4.91,5.57,7.41.89,1.23,1.83,2.51,2.66,3.89a14.58,14.58,0,0,1,1.93,4.65,6.91,6.91,0,0,1,0,2.83,6.11,6.11,0,0,1-.56,1.4l-.4.65c-.16.19-.33.36-.5.54a5.38,5.38,0,0,1-1.09.9,8.34,8.34,0,0,1-1.09.66c-.69.39-1.41.75-2.12,1.09A48.52,48.52,0,0,1,227.2,573a5.17,5.17,0,0,1-.28,1.2,3.89,3.89,0,0,1-.84,1.38,5.69,5.69,0,0,1-2.4,1.36c-1.41.49-2.82,1-4.24,1.38q-4.26,1.31-8.61,2.29c-2.91.65-5.79,1.2-8.78,1.63a9.22,9.22,0,0,1-1.33.1,6.8,6.8,0,0,1-1.26-.12,9.78,9.78,0,0,1-2.36-.83l-4-2-7.91-3.92-1-.49a4.11,4.11,0,0,1-1.27-.9,2.77,2.77,0,0,1-.53-.89,3.14,3.14,0,0,1-.15-.74,47.85,47.85,0,0,1-8.27-.87,49.55,49.55,0,0,1-4.94-1.24c-.79-.25-1.64-.55-2.38-.8l-2.36-.77c-.8-.27-1.6-.56-2.41-.9a11,11,0,0,1-2.47-1.37l-.32-.27-.33-.35a3,3,0,0,1-.54-1,4.07,4.07,0,0,1-.12-1.8,10.83,10.83,0,0,1,.8-2.7c.33-.81.71-1.59,1.05-2.3l.49-1.12.54-1.16c.75-1.53,1.57-3,2.42-4.44a72.56,72.56,0,0,1,5.61-8.32q1.56-2,3.18-3.86a47.58,47.58,0,0,1,3.45-3.74,8.48,8.48,0,0,1,2.25-1.52,5.63,5.63,0,0,1,2.34-.52l.46,0a11.16,11.16,0,0,1,4.92,2,35.79,35.79,0,0,1,4,3.18q1.56,1.43,3.08,2.94,1.28-.84,2.58-1.65a82.42,82.42,0,0,0,7-17c-2.71.36-5.43.67-8.13.93-6.4.65-12.83,1.16-19.27,1.48-4.19.2-8.38.33-12.58.33q-3.41,0-6.79-.12a140,140,0,0,1-19.35-1.85,85.71,85.71,0,0,1-18.77-5.35,60.59,60.59,0,0,1-8.74-4.49,9.68,9.68,0,0,1-1.15-.76,4.19,4.19,0,0,1-1.06-1.31,4.57,4.57,0,0,1-.41-3.24,4.68,4.68,0,0,1,.7-1.52,4.07,4.07,0,0,1,.54-.64l.45-.42,1.77-1.65A441.94,441.94,0,0,1,155,467.12a226.26,226.26,0,0,1-27.73-35.34c-11.56-18-20.86-37.39-29.13-57.06S82.59,335,75.39,314.91L75,313.85l1-.5h0c9.57-5,19.35-9.43,29.18-13.77s19.75-8.47,29.69-12.53,19.93-8,30-11.86q13.9-5.37,27.87-10.53c-3-18.57-6.06-37.17-7.62-56-.73-8.16-1-16.37-1.05-24.56s.23-16.37.81-24.55a228.33,228.33,0,0,1,2.88-24.42c.36-2,.78-4,1.22-6s.94-4,1.56-6c.16-.54.33-1.07.49-1.61a26.12,26.12,0,0,1-9.8,5.58l-.89.25a8.59,8.59,0,0,1-1,.2,8.14,8.14,0,0,1-.87,0,6.13,6.13,0,0,1-1.26-.13,4.13,4.13,0,0,1-2.13-1.15,3.65,3.65,0,0,1-1-2.35,5,5,0,0,1,.41-2.26,8.8,8.8,0,0,1,1-1.76,24.73,24.73,0,0,1,2.46-2.77,51.36,51.36,0,0,1,4.56-4.27,27.09,27.09,0,0,1-5.1,1,15.23,15.23,0,0,1-1.92.11,23.52,23.52,0,0,1-2.64-.16,14.4,14.4,0,0,1-4.5-1.39,7.8,7.8,0,0,1-2.07-1.49,4.92,4.92,0,0,1-1.35-2.55,4.64,4.64,0,0,1,.49-2.89,7,7,0,0,1,1.65-2c.68-.57,1.23-.93,1.81-1.37l1.75-1.25,3.53-2.48c2.37-1.63,4.79-3.21,7.26-4.71a69.58,69.58,0,0,1,15.85-7.31,47.87,47.87,0,0,1,8.65-1.74,50.53,50.53,0,0,1,5.06-.23m0-1.4c-1.89,0-3.59.07-5.2.23a49.58,49.58,0,0,0-8.91,1.8,69.73,69.73,0,0,0-16.17,7.45c-2.29,1.38-4.69,2.94-7.33,4.76l-3.55,2.48L168,101l-.48.35c-.43.31-.88.63-1.41,1.07a8.54,8.54,0,0,0-2,2.49,6.06,6.06,0,0,0-.63,3.78,6.31,6.31,0,0,0,1.72,3.27,9.21,9.21,0,0,0,2.42,1.76,16.12,16.12,0,0,0,5,1.54h0a23.55,23.55,0,0,0,2.8.17,17.54,17.54,0,0,0,2.09-.12l.25,0-.9.93a25.9,25.9,0,0,0-2.57,2.9,10.08,10.08,0,0,0-1.17,2.05,6.4,6.4,0,0,0-.52,2.89,5.05,5.05,0,0,0,1.39,3.25,5.48,5.48,0,0,0,2.83,1.53,7.21,7.21,0,0,0,1.55.16,9.33,9.33,0,0,0,1-.06c.42-.06.82-.14,1.19-.23l.92-.27a27.79,27.79,0,0,0,6.89-3.22c-.15.6-.3,1.2-.44,1.79s-.29,1.15-.43,1.73c-.54,2.42-.93,4.36-1.25,6.14a231.05,231.05,0,0,0-2.9,24.57c-.51,7.22-.76,15-.81,24.63s.41,17.49,1.05,24.69c1.49,17.9,4.38,35.84,7.17,53.19l.29,1.77c-8.53,3.16-17.31,6.48-26.82,10.14-10.94,4.23-20.75,8.12-30,11.88-12,4.9-21.19,8.77-29.72,12.54-9.33,4.12-19.32,8.65-29.27,13.8l-1,.5a1.4,1.4,0,0,0-.68,1.72l.38,1.06c7.26,20.24,14.46,40.06,22.77,59.88,9.71,23.1,19,41.3,29.24,57.27a228.86,228.86,0,0,0,26.78,34.39,445.1,445.1,0,0,0-44.34,36.37l-1.76,1.64-.46.43,0,0a5.42,5.42,0,0,0-.7.83,5.92,5.92,0,0,0-.36,6.23,5.74,5.74,0,0,0,1.39,1.7,7.69,7.69,0,0,0,1.05.72l.26.16a62.1,62.1,0,0,0,8.94,4.59,87.16,87.16,0,0,0,19.08,5.44,139.91,139.91,0,0,0,19.53,1.87c2.2.08,4.5.12,6.84.12,3.93,0,8.06-.11,12.65-.33,6.27-.32,12.78-.82,19.35-1.49,1.93-.18,3.94-.4,6-.66a79.73,79.73,0,0,1-6.06,14.34l-1.35.86c-.76-.74-1.53-1.47-2.32-2.19a36.89,36.89,0,0,0-4.16-3.3,12.38,12.38,0,0,0-5.57-2.22,5.83,5.83,0,0,0-.59,0,7,7,0,0,0-2.93.65,10.07,10.07,0,0,0-2.6,1.75,36.63,36.63,0,0,0-2.94,3.14l-.62.72c-1.2,1.4-2.25,2.68-3.23,3.91a75.26,75.26,0,0,0-5.72,8.48c-1,1.73-1.8,3.18-2.47,4.53l-.55,1.18-.5,1.15-.24.49c-.27.59-.56,1.19-.83,1.84a13,13,0,0,0-.89,3,5.44,5.44,0,0,0,.16,2.36,4.35,4.35,0,0,0,.82,1.5l0,.06.33.35.07.07a3.48,3.48,0,0,0,.3.26l.08.06a11.93,11.93,0,0,0,2.79,1.57c.75.32,1.53.61,2.54,1l2.37.77c.8.28,1.61.56,2.4.8a48.58,48.58,0,0,0,5.08,1.29,50.84,50.84,0,0,0,7.43.86,4.29,4.29,0,0,0,.76,1.2,5.27,5.27,0,0,0,1.58,1.17l.07,0,1,.51,7.92,3.91,4,2a11.46,11.46,0,0,0,2.71.94,7.42,7.42,0,0,0,1.53.15,12.08,12.08,0,0,0,1.52-.11c2.88-.42,5.78-1,8.9-1.66s5.94-1.46,8.71-2.31c1.55-.48,3-.93,4.29-1.4a7,7,0,0,0,3-1.71,5.19,5.19,0,0,0,1.15-1.88,2.53,2.53,0,0,0,.12-.36,49.8,49.8,0,0,0,16.3-4.52c.82-.39,1.54-.76,2.21-1.13a10.34,10.34,0,0,0,1.23-.76,6.8,6.8,0,0,0,1.31-1.09l.12-.13c.13-.14.29-.3.44-.49a.83.83,0,0,0,.08-.12l.38-.62a4.65,4.65,0,0,0,.59-1.32l.12-.36a2.17,2.17,0,0,0,.07-.24,8.51,8.51,0,0,0,0-3.38,16,16,0,0,0-2.1-5.06c-.81-1.35-1.69-2.58-2.55-3.76l-.18-.24c-1.72-2.41-3.59-5-5.62-7.47-1-1.19-2-2.39-3.11-3.57l-1-1.1c-.69-.79-1.41-1.6-2.2-2.4a9.92,9.92,0,0,0-5.1-3,6.71,6.71,0,0,0-.86-.08,89.62,89.62,0,0,1-3.27-13.68c2.47-.65,4.93-1.34,7.32-2,2.71-.8,5.57-1.71,9.27-3l.73-.25c1.27-.44,2.58-.9,3.87-1.37a44.73,44.73,0,0,0,5.27-2.18,1.41,1.41,0,0,0,.76-1.11c.22-2.28.35-4.43.41-6.38l.05-5.63,0-2.45a170.26,170.26,0,0,0,14.38-15.08l.2,0,1-.08c8.22-.63,16.29-1,24-1h4.2a53.36,53.36,0,0,1-5.48,9.44c-.89,1.27-1.83,2.57-2.74,3.82-.56.78-1.13,1.55-1.69,2.34-.73,1-1.48,2.09-2.22,3.19-.16.23-.3.45-.44.66-.57.87-1.16,1.78-1.72,2.83a9.66,9.66,0,0,0-1.24,5.1,7.21,7.21,0,0,0,.84,2.92,6,6,0,0,0,2.41,2.45,6.29,6.29,0,0,0,3,.72h.15a11.75,11.75,0,0,0,2.43-.34,39.77,39.77,0,0,0,3.92-1.1,30.59,30.59,0,0,0,7.26-3.45,34.67,34.67,0,0,0-.67,9.43v.14a9.4,9.4,0,0,0,1,4,5.27,5.27,0,0,0,3.66,2.7c-.23,1.91-.45,3.46-.72,4.93a68.64,68.64,0,0,1-1.94,8.1c0,.06,0,.12-.05.18l-1.25-.58c-1.15-.54-2.34-1.1-3.58-1.57a12.49,12.49,0,0,0-4.4-1h-.23a8.64,8.64,0,0,0-4.76,1.74,21.94,21.94,0,0,0-2.92,2.53l-.3.29-2.8,2.77c-1.71,1.69-3.7,3.69-5.54,5.79-1.53,1.73-3.1,3.64-5.08,6.18-1,1.24-1.72,2.25-2.41,3.2l-.27.37a15.94,15.94,0,0,0-2.13,3.55,5.67,5.67,0,0,0-.27,3.6,4.48,4.48,0,0,0,1.14,1.95s0,0,0,0a5.53,5.53,0,0,0,1.5,1,7.05,7.05,0,0,0,3,.68h.27a14.91,14.91,0,0,0,2.14-.18c.62-.09,1.2-.2,1.76-.3l.28-.06c.55-.11,1.07-.18,1.78-.27,1.29-.17,2.57-.32,3.84-.44,4-.39,8.06-.59,12.09-.59a125.06,125.06,0,0,1,18.64,1.4c2.23.34,4.64.78,7.59,1.39,2.61.56,5.22,1.1,7.73,1.6,5.68,1.11,10.79,2,15.64,2.67,5.41.75,10.73,1.3,15.83,1.63l.82.05c2.4.13,4.66.26,7,.43,2.68.19,5.31.36,8,.36h.13c1.37,0,2.71,0,4-.14h.14a35.15,35.15,0,0,0,4-.48,10.53,10.53,0,0,0,4.65-2l.1-.08,3.58.14c2,.09,4,.18,6.07.22l2.22,0c1.22,0,2.34,0,3.42-.07s1.89-.08,2.85-.16l.69-.06a17.73,17.73,0,0,0,2.44-.34,6.78,6.78,0,0,0,2.12-.88,4.32,4.32,0,0,0,.73-.58l5.55,0h2a8.14,8.14,0,0,0,2.85-.52,4.68,4.68,0,0,0,1.8-1.24,4.25,4.25,0,0,0,1.06-2.24,5.94,5.94,0,0,0-.43-3l-.05-.17a98,98,0,0,0-7-14.25c-2.71-4.57-5.78-8.92-8.69-13l-2.23-3.14L406.45,532a5.81,5.81,0,0,0-1.08-1.19l-.1-.08-.12-.07a4,4,0,0,0-.67-.39l-.07,0-.15-.06-.57-.2h-.05a5.34,5.34,0,0,0-1.28-.15,8.4,8.4,0,0,0-1.65.19,11.38,11.38,0,0,0-2.29.78,14.56,14.56,0,0,0-1.57.8,10.45,10.45,0,0,0-2.05-1.66,7.47,7.47,0,0,0-3.6-1.14,3.85,3.85,0,0,0-.48,0,8.57,8.57,0,0,0-3.1.69c-.82.34-1.58.68-2.34,1-.94.41-1.82.8-2.74,1.17-3.38,1.43-6.27,2.62-9.19,3.75l-.38-.34a12.12,12.12,0,0,0-6.55-2.76h-.94a10.12,10.12,0,0,0-1.54.1,8.28,8.28,0,0,0-1.63.31l-.6.14-.19.06-.65.23c-.46.16-.93.33-1.38.53-2.53,1.06-5,2.22-7.28,3.44-1.45.79-2.95,1.69-4.63,2.79a87,87,0,0,1-7.23-25.17,18.09,18.09,0,0,0,4.83-1.9,54.91,54.91,0,0,0,9.3-6.89,31.64,31.64,0,0,0,7.75-9.05,8.09,8.09,0,0,0,1-3.91,11.27,11.27,0,0,0-.71-3.5c-.57-1.61-1.18-3.27-1.91-5.23L356.73,474a155.25,155.25,0,0,1-6.17-19.89c.07-.23.15-.45.22-.67.53.32,1,.6,1.52.86a29.62,29.62,0,0,0,4.84,2.13,15.86,15.86,0,0,0,4.71.74c.34,0,.69,0,1,0a20.07,20.07,0,0,0,5.39-1.2,44.44,44.44,0,0,0,9-4.77c2.77-1.76,5.49-3.56,8-5.33a222.93,222.93,0,0,0,30-24.47,174.19,174.19,0,0,0,13-14.42,89.06,89.06,0,0,0,11.06-16.31,53.26,53.26,0,0,0,3.66-9.39c.36-1.28.66-2.6.92-4a4.24,4.24,0,0,0,1.59,1.12,3.89,3.89,0,0,0,1.57.31,4.4,4.4,0,0,0,2.07-.51,6.26,6.26,0,0,0,1.95-1.58,8.17,8.17,0,0,0,1.16-1.82,15.81,15.81,0,0,0,1.21-3.32,21.71,21.71,0,0,0,.55-6.44l.25.25a9.36,9.36,0,0,0,3.42,2.23,6.48,6.48,0,0,0,2.15.37,5.69,5.69,0,0,0,5.74-5.25,13,13,0,0,0-.17-3.68,22.67,22.67,0,0,0-2.23-6.19c-.09-.19-.18-.38-.28-.57a12.49,12.49,0,0,0,1.33-4.9,12.14,12.14,0,0,0-.21-3.34,9.11,9.11,0,0,0-.56-1.75c-.21-.49-.46-1-.72-1.44a21.78,21.78,0,0,0-3.76-4.62c-.9-.87-1.84-1.66-2.75-2.43L455,332.55a132.07,132.07,0,0,0-17.75-11.91c-2.65-1.52-5.35-3-8-4.46-3.38-1.88-6.87-3.82-10.23-5.8a113.73,113.73,0,0,1-16.7-11.69c-5.74-5-10.82-9.55-15.52-13.88-4.2-3.87-9.7-9-15.05-14.35l-.56-.56-.27-.26,0,0h0l-1.06-1.06c-4.21-4.2-8.57-8.54-12.7-12.9-.28-.29-.55-.59-.82-.88l-.35-.38c-1.18-3.75-2.23-7.66-3.2-11.93s-1.77-8.57-2.37-12.58-1.11-8-1.53-12.74c-.3-3.41-.53-7-.68-10.65.67-.44,1.36-.89,2-1.36a89.53,89.53,0,0,0,13.66-12c1.94-2.09,3.85-4.36,5.83-6.93a86,86,0,0,0,5.19-7.45,64,64,0,0,0,4.3-8.11,45,45,0,0,0,2.75-9,30.08,30.08,0,0,0,.32-9.52l-.13-1.12a.69.69,0,0,0,0-.13l-.24-1.11c-.05-.23-.09-.44-.13-.65-.12-.55-.24-1.13-.43-1.73a21.17,21.17,0,0,0-2-4.47,16.76,16.76,0,0,0-7.27-6.86,19.8,19.8,0,0,0-8.74-1.68h-1.08c.1-.37.21-.75.3-1.15a27.82,27.82,0,0,0,.55-3.58c0-.06,0-.13,0-.2A40.8,40.8,0,0,0,368.7,123a31.91,31.91,0,0,0,4.1-8.31,20.59,20.59,0,0,0,.85-9.59,13.54,13.54,0,0,0-5.29-8.65,17.67,17.67,0,0,0-9.15-3.34,21.72,21.72,0,0,0-2.3-.12,31,31,0,0,0-7,.88c-1.88.42-3.7,1-5.46,1.5-.95.29-1.95.58-2.92.85a26.91,26.91,0,0,1-7.58,1.45h-.22c-.86,0-1.78-.07-2.75-.15l-1.23-.09-4.26-.32-1.67-.15c-2.23-.21-4.53-.42-6.79-.67-6.16-.68-11.7-1.38-16.94-2.14-7.57-1.08-15.26-2.3-22.7-3.48l-11.2-1.76c-10.12-1.57-22.09-3.33-34.19-4.52-3.31-.3-6-.54-8.61-.73l-3.05-.2c-1.84-.12-3.73-.25-5.61-.33C213.31,83,212.08,83,211,83Z"/><path class="cls-3" d="M238.51,420.89q-9.39,4.16-18.65,8.74-3.21,1.59-6.4,3.24-3.41,1.74-6.78,3.57a454.45,454.45,0,0,0-98.49,70.82,3.26,3.26,0,0,0,.46,5.1,72.29,72.29,0,0,0,24,9.34,125,125,0,0,0,19,2.36,217.94,217.94,0,0,0,21.84,0c8.28-.37,16.56-1.11,24.81-2,3.59-.38,7.21-.89,10.83-1.54A227.46,227.46,0,0,0,250,509,265.82,265.82,0,0,0,238.51,420.89Z"/><path class="cls-4" d="M242.41,437.42A269.39,269.39,0,0,1,239,489.65c-.59,3.64-1.33,7.43-3.58,10.36a22.16,22.16,0,0,1-6.11,5q-5.36,3.33-10.93,6.27a23.76,23.76,0,0,1-6.35,2.56c-4.29.85-8.68-.53-12.83-1.9-1.83-.6-3.89-1.4-4.57-3.21a6.55,6.55,0,0,1,.32-4.15L207.3,463.8a303.65,303.65,0,0,1-31.68,49,6,6,0,0,1-3,2.48,5.8,5.8,0,0,1-3.49-.58,73.14,73.14,0,0,1-9.78-4.79,2.07,2.07,0,0,1-.58-3.66A349.61,349.61,0,0,1,200.84,459,437.35,437.35,0,0,1,143,508.29a4.84,4.84,0,0,1-6.5.23c-3.5-1.85-7.12-3.81-9.46-7s-3-8-.37-11c-6.68,4.82-12.46,11-18.46,16.72a3.26,3.26,0,0,0,.46,5.1,72.29,72.29,0,0,0,24,9.34,125,125,0,0,0,19,2.36,217.94,217.94,0,0,0,21.84,0c8.28-.37,16.56-1.11,24.81-2,3.59-.38,7.21-.89,10.83-1.54A227.46,227.46,0,0,0,250,509C250.94,485.15,249.29,460.3,242.41,437.42Z"/><path class="cls-2" d="M249,508.23c-.09-1.67-.14-3.25-.1-4.87l0-5.55-.07-5.55-.18-5.54q-.47-11.1-1.87-22.13c-.94-7.34-2.07-14.66-3.58-21.92l-1.17-5.43-1.28-5.41-1.37-5.4-1.47-5.36h0l.82.38a529,529,0,0,0-67.2,37.27,445.84,445.84,0,0,0-60.33,47.46l-1.75,1.64-.43.4a2.2,2.2,0,0,0-.54.94,2,2,0,0,0,.18,1.42c.25.46.51.64,1.31,1.1a58.2,58.2,0,0,0,8.39,4.3,82.79,82.79,0,0,0,18.22,5.14,136.69,136.69,0,0,0,19,1.79c6.37.21,12.76.08,19.15-.24s12.76-.87,19.14-1.48a176.13,176.13,0,0,0,18.94-2.67c6.26-1.23,12.46-2.8,18.58-4.6,3.07-.9,6.11-1.88,9.14-2.89,1.51-.52,3-1,4.53-1.58A24.33,24.33,0,0,1,249,508.23Zm2,1.46a42.44,42.44,0,0,1-5.11,2.12c-1.51.55-3,1.08-4.56,1.6-3.06,1-6.13,2-9.23,3-6.19,1.84-12.45,3.45-18.79,4.72a181.16,181.16,0,0,1-19.2,2.77c-6.4.65-12.83,1.16-19.27,1.48s-12.91.44-19.37.21a140,140,0,0,1-19.35-1.85,85.71,85.71,0,0,1-18.77-5.35,60.59,60.59,0,0,1-8.74-4.49,9.68,9.68,0,0,1-1.15-.76,4.19,4.19,0,0,1-1.06-1.31,4.57,4.57,0,0,1-.41-3.24,4.68,4.68,0,0,1,.7-1.52,4.07,4.07,0,0,1,.54-.64l.45-.42,1.77-1.65a447.65,447.65,0,0,1,60.75-47.62,421.93,421.93,0,0,1,68-36.35l.62-.26.2.63h0l1.7,5.33,1.57,5.37,1.42,5.42,1.31,5.44c1.65,7.27,3.06,14.62,4,22s1.69,14.85,2.06,22.31l.22,5.6.09,5.6-.05,5.61C251.39,505.51,251.24,507.65,251,509.69Z"/><path class="cls-2" d="M132,520.38q11.55-8.52,22.51-17.82,5.47-4.65,10.78-9.49c3.53-3.23,7.06-6.49,10.39-9.88a139,139,0,0,0,17.72-22.41,150.69,150.69,0,0,0,13.09-25.45l1.12.43a151.71,151.71,0,0,1-12.88,25.86,140.41,140.41,0,0,1-17.65,22.92c-3.35,3.51-6.84,6.8-10.36,10.08s-7.12,6.48-10.76,9.63Q145,513.7,133.47,522.39Z"/><path class="cls-2" d="M172.21,523.66a304,304,0,0,0,25.12-43.27A195.48,195.48,0,0,0,213,433l1.19.21a197.21,197.21,0,0,1-15.06,48c-3.45,7.67-7.34,15.15-11.5,22.45s-8.63,14.44-13.32,21.42Z"/><path class="cls-2" d="M207.84,520.42a382.35,382.35,0,0,0,8.5-44.82,376.77,376.77,0,0,0,3.13-45.55h1.21a381,381,0,0,1-2.41,45.79,378.44,378.44,0,0,1-8,45.18Z"/><path class="cls-5" d="M359.7,120.93c-1.74-5.58-5.84-10.55-11.32-12.59-5.75-2.13-12.18-.9-18,1s-11.52,4.49-17.62,5.06c-14.06,1.32-26.87-8.14-40.88-9.89a38.38,38.38,0,0,0-24.58,5.28c-6.68,4.07-12.29,10.88-12.51,18.69-.19,6.53,3.46,12.73,8.42,17s11.13,6.8,17.32,8.9c10.28,3.49,21.3,5.92,32,3.9,9.1-1.72,17.41-6.59,26.56-8,7.32-1.16,14.82-.08,22.2-.86,5.9-.63,12.32-2.83,16.13-7.63C361.56,136.48,361.6,127.07,359.7,120.93Z"/><g id="G"><ellipse class="cls-2" cx="274.77" cy="131.82" rx="16.08" ry="15.95" transform="translate(-5.79 12.83) rotate(-2.65)"/><ellipse class="cls-5" cx="285.95" cy="131.06" rx="5.24" ry="5.2" transform="translate(-5.75 13.35) rotate(-2.65)"/></g><g id="G-2" data-name="G"><ellipse class="cls-2" cx="335.15" cy="128.99" rx="11.82" ry="10.02" transform="translate(204.93 463.67) rotate(-89.79)"/><ellipse class="cls-5" cx="341.12" cy="124.92" rx="3.85" ry="3.26" transform="translate(214.94 465.58) rotate(-89.79)"/></g><path class="cls-6" d="M461.26,354.56q-.58-1.33-1.26-2.61h0a9.72,9.72,0,0,0,1.15-8.63,18.64,18.64,0,0,0-5-6.3c-16.54-14.87-38.8-21.54-55.67-36.25-10.64-9.27-21.12-18.75-31-28.79l-.12-.12c-5.12-5.18-10.55-10.49-15.52-16.13l.28-.24c-5.5-15.53-8.24-33.93-8.59-50.45a85.27,85.27,0,0,0,19.92-17.64C374,177,382.8,162.84,379.34,148.8c-1.13-4.59-4.06-8.93-8.4-10.82a16.61,16.61,0,0,0-6.69-1.24c-1.37,0-2.73.35-4.1.35a40.93,40.93,0,0,0-4.41.35c-1.72.17-3.43.35-5.15.39a63.15,63.15,0,0,1-11.37-1.13,44.26,44.26,0,0,1-5.34-1.07,6.4,6.4,0,0,1-2.32-1.08,6.21,6.21,0,0,1-1.46-2,13.56,13.56,0,0,1-1.69-5.3,8.06,8.06,0,0,1,1.34-5.33c1.82-2.54,5.21-3.79,7.73-5.48,1.12-.76,2.25-1.5,3.41-2.2,2.24-1.34,4.76-2.69,7.43-2.84,2.5-.15,4.86,1.21,6.7,2.8a12.67,12.67,0,0,1,3.79,5.26.43.43,0,0,1,.49.23,16,16,0,0,1,1.81,7.3c3-.53,5.51-5.23,6.88-7.56a23.92,23.92,0,0,0,3.5-10.57c.54-8.84-6.16-13.57-14.47-13.47-4.84.06-9.1,1.63-13.65,3-4.11,1.21-6.87,2.11-11.14,1.85C293.44,97.87,255.4,87.8,216.58,85.86a69.82,69.82,0,0,0-10.53.07c-14,1.4-26.14,9.9-37.56,18.13-3,2.17-3.3,5.26.29,7.23,6.39,3.5,16.48.27,22.71-3.39l0,.07A53.25,53.25,0,0,0,180,116.88c-1.5,1.54-4.45,4.15-4.72,6.41-.35,2.88,2.46,3.57,4.81,3a27.3,27.3,0,0,0,12.28-6.78c-5.65,21.16-7,43.27-7,65.12,0,28.45,5,56,9.46,83.75,2.89,17.81,5.57,35.66,6.61,53.81,2.79,48.54-3,97.19-11.58,144.9-.54,2.95-1.08,6-.33,8.93,2,7.58,11.05,10.18,18.92,11.33-.48,18-3.61,37.62-12.64,53.33,2.12-1.37,4.3-2.63,6.53-3.8,3.3-1.73,6.15-.75,9.17,1.22a57.69,57.69,0,0,1,8.93,7.18c1.09-3,2.46-7,5.29-8.74a5.35,5.35,0,0,1,1.24-.59c-5.91-16.31-6.63-34.56-4.59-51.67l0-.16a313.76,313.76,0,0,1,78-7.49v.07c-2.92,9.61-9.2,15.92-14.62,24.37a10.78,10.78,0,0,0-1.91,4.41,4,4,0,0,0,1.91,4.13,5.46,5.46,0,0,0,3.53.09c6.17-1.35,12.24-4.25,16.28-9.12-1.75,5.59-2.93,11.3-2.27,17.06a4.3,4.3,0,0,0,1.44,3.2,3.84,3.84,0,0,0,3.42,0l.45-.18c4.45-1.87,9.11-7.11,11.17-11.49a61.85,61.85,0,0,0,3.39,6c1,1.53,2.39,3.19,4.2,3a4,4,0,0,0,2.37-1.25c1.74-1.69,2.63-4.05,3.47-6.33l.17-.41a7.74,7.74,0,0,0,2.81,1.7,5.44,5.44,0,0,0,1.19.23c5.49.57,12.26-5.56,15.84-8.69a30.53,30.53,0,0,0,5.78-6.39c1.71-2.66,2-3.92.94-6.94-4.24-12-9.64-23.78-11.65-36.38l-.06,0c.38-1.46.76-2.91,1.15-4.37l.1,0a43,43,0,0,0,4.82,2.82c3.5,1.73,6.43,2.64,10.31,1.79a30.4,30.4,0,0,0,9.7-4.4c18.07-11.55,35.24-24.94,49.17-41.34,6.8-8,13-15.78,16.39-25.81a49.44,49.44,0,0,0,2.47-16h.31a27,27,0,0,0,2.56,7.92,3,3,0,0,0,1.3,1.51c1.31.58,2.66-.75,3.3-2,2.43-4.8,1.8-10.55.48-15.76-.35-1.39-.74-2.76-1.17-4.12l.1,0a47.62,47.62,0,0,0,6.38,8.69,9.88,9.88,0,0,0,2.39,1.94c2.31,1.23,4.79.24,5-2.5A15.6,15.6,0,0,0,461.26,354.56ZM250.89,123.06a19.84,19.84,0,0,1,2.42-7c.46-.81,3.83-6.27,4.33-6.1l33.81,14.24a47.76,47.76,0,0,0,10,3.37,36.88,36.88,0,0,0,13.91-.72,35.75,35.75,0,0,0,6.69-2,19.08,19.08,0,0,0,2.92-1.57c-1.47,7.2-6.93,12.07-13.34,15.34-6.14,3.13-12.94,4.67-19.62,6.39-4.23,1.08-8.52,2.26-12.88,2.13A31.25,31.25,0,0,1,271.9,146a103.68,103.68,0,0,1-16.43-6.65,5,5,0,0,1-1.35-.82,4.71,4.71,0,0,1-.91-1.29A23.14,23.14,0,0,1,250.89,123.06Z"/><path class="cls-3" d="M369.32,271.85c-5.12-5.18-10.55-10.49-15.52-16.13l.28-.24c-5.5-15.53-8.24-33.93-8.59-50.45a85.27,85.27,0,0,0,19.92-17.64C374,177,382.8,162.84,379.34,148.8c-1.13-4.59-4.06-8.93-8.4-10.82a16.61,16.61,0,0,0-6.69-1.24c-1.37,0-2.73.35-4.1.35a40.93,40.93,0,0,0-4.41.35c-1.72.17-3.43.35-5.15.39a63.15,63.15,0,0,1-11.37-1.13,44.26,44.26,0,0,1-5.34-1.07,6.4,6.4,0,0,1-2.32-1.08,6.21,6.21,0,0,1-1.46-2,13.56,13.56,0,0,1-1.69-5.3,8.06,8.06,0,0,1,1.34-5.33c1.82-2.54,5.21-3.79,7.73-5.48,1.12-.76,2.25-1.5,3.41-2.2,2.24-1.34,4.76-2.69,7.43-2.84,2.5-.15,4.86,1.21,6.7,2.8a12.67,12.67,0,0,1,3.79,5.26.43.43,0,0,1,.49.23,16,16,0,0,1,1.81,7.3c3-.53,5.51-5.23,6.88-7.56a23.92,23.92,0,0,0,3.5-10.57c.54-8.84-6.16-13.57-14.47-13.47-4.84.06-9.1,1.63-13.65,3-4.11,1.21-6.87,2.11-11.14,1.85C293.44,97.87,255.4,87.8,216.58,85.86a69.82,69.82,0,0,0-10.53.07c-14,1.4-26.14,9.9-37.56,18.13-3,2.17-3.3,5.26.29,7.23,6.39,3.5,16.48.27,22.71-3.39l0,.07A53.25,53.25,0,0,0,180,116.88c-1.5,1.54-4.45,4.15-4.72,6.41-.35,2.88,2.46,3.57,4.81,3a27.3,27.3,0,0,0,12.28-6.78c-5.65,21.16-7,43.27-7,65.12,0,19.79,2.45,39.46,5.47,59,1.42,9.22,3.48,17.76,5.75,26.64,2.06,8.08.45,16.6,2.13,24.74a10.4,10.4,0,0,0,2.42,5.33c3.15,3.21,8.4,2.13,12.89,1.73,12.54-1.13,24.84,5,37.42,4.24,10.23-.6,20.4-5.69,30.33-3.18,4.36,1.1,8.47,3.65,13,3.47,7-.28,11.85-6.83,17.8-10.55a7.76,7.76,0,0,1,5.32-1.51c6.34,1.14,4.32,10.34,8.82,12.46,1.61.76,3.4-.57,4.59-1.91,6-6.73,10-15.87,9.18-24.85a66,66,0,0,1,1.43,12.27,19.24,19.24,0,0,0,.41,5,5.43,5.43,0,0,0,3,3.75,5.26,5.26,0,0,0,5.64-1.78,12.59,12.59,0,0,0,2.44-5.75c2.06-9.57.62-18.43-2.68-26.82,2.62,4.62,7.29,8.43,11.77,11.26,2.64,1.67,5.85,3,8.84,2.08a2,2,0,0,0,1.06-.66,2.1,2.1,0,0,0,0-1.83A24.32,24.32,0,0,0,369.32,271.85ZM322.06,124.91a19.08,19.08,0,0,0,2.92-1.57c-1.47,7.2-6.93,12.07-13.34,15.34-6.14,3.13-12.94,4.67-19.62,6.39-4.23,1.08-8.52,2.26-12.88,2.13A31.25,31.25,0,0,1,271.9,146a103.68,103.68,0,0,1-16.43-6.65,5,5,0,0,1-1.35-.82,4.71,4.71,0,0,1-.91-1.29,23.14,23.14,0,0,1-2.32-14.16,19.84,19.84,0,0,1,2.42-7c.46-.81,3.83-6.27,4.33-6.1l33.81,14.24a47.76,47.76,0,0,0,10,3.37,36.88,36.88,0,0,0,13.91-.72A35.75,35.75,0,0,0,322.06,124.91Z"/><path class="cls-7" d="M244.28,552.73c-2.69-3.77-5.39-7.55-8.42-11.06-1.41-1.63-3.16-4.66-5.34-5.35s-3.46.76-4.38-2.23a138.51,138.51,0,0,1-6.09-39.82,3.18,3.18,0,0,0-.63-2.33,3,3,0,0,0-1.07-.6c-4-1.61-7.94-3-12.06-4.29a82.23,82.23,0,0,1,0,21.26c-1.28,9-4.41,17.56-7.53,26.07a24.27,24.27,0,0,1-4.34,8.09c-1.14,1.27-1.73.79-2.8-.34s-2.26-2.47-3.49-3.6a20.15,20.15,0,0,0-5-3.56,6.55,6.55,0,0,0-3.14-.75c-2.23.13-4,1.88-5.43,3.6a95,95,0,0,0-8.88,12.2,64.25,64.25,0,0,0-4.37,8.19c-.62,1.48-2.5,4.78-1.79,6.45s6.24,3.16,7.82,3.73a48,48,0,0,0,16.14,2.84c0,.14,0,.28,0,.42a2.54,2.54,0,0,0,.2,1.37,2.69,2.69,0,0,0,1.16.91q6,3,12.12,6a9.6,9.6,0,0,0,3.16,1.1,9.24,9.24,0,0,0,2.4-.15,117.87,117.87,0,0,0,21-5.25c2.14-.74,2.4-1.9,2.49-3.82a47.4,47.4,0,0,0,13.76-2.95,43.56,43.56,0,0,0,6.39-3C251.72,562.66,246.63,556,244.28,552.73Z"/><path class="cls-8" d="M244.64,554.62a2.17,2.17,0,0,1-.47,2.24,5.65,5.65,0,0,1-2.15,1.28,65.27,65.27,0,0,1-7.31,2.44c-1.65.44-3.51.79-5-.1-1.85-1.13-2.82-4.29-3.78-6.18a16.64,16.64,0,0,0-5.85-6.91,77,77,0,0,1,4,13.55,5.5,5.5,0,0,1,.07,2.76c-.44,1.41-1.85,2.25-3.17,2.92a72.82,72.82,0,0,1-12.5,5,12,12,0,0,1-3.89.65,12.7,12.7,0,0,1-4.8-1.58q-3.72-1.83-7.39-3.75a14.38,14.38,0,0,1-4-2.71c-5.26-5.57-2.38-15.7,2.47-20.41,3.08-3,7-5,11-6.67,4.66-2,7.17-.87,10.56,2.51-3-3-3.23-7.62-3-11.8a83,83,0,0,1,2.22-14.8c.26-1,.7-2.26,1.75-2.52a3,3,0,0,1,1.59.19l4.72,1.46c-2.58-.95-4.83-2.37-7.29-3.53a25.4,25.4,0,0,1-5.79-3.8c-.71,7.87-3.26,15.45-5.78,22.94-1.06,3.14-2.1,6.29-3.18,9.42-.93,2.74-3.55,3.54-5.68,5.38a20.78,20.78,0,0,0-5.54,8.69c-1,2.67-1.17,6.8-3.72,8.5-1.78,1.19-4.16.9-6.22.31a27.6,27.6,0,0,1-8.85-4.32,3.71,3.71,0,0,1-1.2-1.23,4,4,0,0,1,0-2.91,52.17,52.17,0,0,1,3.95-9.71c-1.89,1.69-2.44,4.33-3.74,6.46a73.69,73.69,0,0,0-5.43,9.85c-.62,1.48-2.5,4.78-1.79,6.45s6.24,3.16,7.82,3.73a48,48,0,0,0,16.14,2.84c0,.14,0,.28,0,.42a2.54,2.54,0,0,0,.2,1.37,2.69,2.69,0,0,0,1.16.91q6,3,12.12,6a9.6,9.6,0,0,0,3.16,1.1,9.24,9.24,0,0,0,2.4-.15,117.87,117.87,0,0,0,21-5.25c2.14-.74,2.4-1.9,2.49-3.82a47.4,47.4,0,0,0,13.76-2.95,43.56,43.56,0,0,0,6.39-3C251.56,562.75,247.23,557.85,244.64,554.62Z"/><path class="cls-7" d="M422.91,564.85c-4.37-11.5-11.48-21.71-18.51-31.8-1.61-2.32-6,.06-7.71,1.78-1.51-2.21-3.4-3.91-5.88-3.89a8.43,8.43,0,0,0-3.29,1l-14.11,6.31-.2.19c-3.15-3.39-7-5.19-12.35-2.73a110.53,110.53,0,0,0-14.29,8l-.55-.84a90.45,90.45,0,0,1-8.66-30.62,5.44,5.44,0,0,1-1.19-.23,7.74,7.74,0,0,1-2.81-1.7l-.17.41c-.84,2.28-1.73,4.64-3.47,6.33a4,4,0,0,1-2.37,1.25c-1.81.15-3.21-1.51-4.2-3a61.85,61.85,0,0,1-3.39-6c-2.06,4.38-6.72,9.62-11.17,11.49l-.45.18A59.79,59.79,0,0,1,304,540.74l-.22-.09c-3.07-1.45-7.65-4.78-11-4.51-3.13.24-5.44,3.2-7.42,5.3a181.48,181.48,0,0,0-14.41,17.16c-1.35,1.83-3.53,4.91-.51,6.26,1.91.85,4.86-.07,6.84-.34a126.81,126.81,0,0,1,43.65,1.76c13.85,3,27.22,5.35,41.47,6.1,5.83.31,11.64,1,17.49.58,2.43-.2,6.48-.44,7.94-2.82,6.7.17,13.68.71,20.32,0,1.25-.15,2.72-.49,3.17-1.65,3.28,0,5.19,0,8.69,0,1.21,0,2.69-.18,3.17-1.3A3.06,3.06,0,0,0,422.91,564.85Z"/><path class="cls-8" d="M422.91,564.85a42,42,0,0,0-4.88-9,3.15,3.15,0,0,1-1.12,3.43c-1.54,1.23-5,1.46-6.85.83-2.47-.83-4.41-4-5.26-6.31-.17,1.14,1,2.37.33,3.33a2.14,2.14,0,0,1-1.19.73,52.66,52.66,0,0,1-6.78,1.74,15.62,15.62,0,0,1-6.31.17c-4.51-1-7.52-5.13-10.12-8.95a25.1,25.1,0,0,1,1.79,7.53c.21,2.63-1.73,3.88-4.08,4.5a34.36,34.36,0,0,1-6.22.94,81.6,81.6,0,0,1-13.08,0c-6.35-.53-13.18-2.1-17.18-7.06-4.37-5.42,1.49-9.34,4.58-13.55l-12.36,5.32a36.83,36.83,0,0,1-9.13,3c-1.81.28-5.38.68-7.07-.16-1.89-1-2.3-3.87-2.46-5.72-1.06-11.83.05-24.09,5-34.88a29.24,29.24,0,0,0-6.25,5.14c-1.65,1.83-3.31,3.81-5.7,4.77l-.45.18c-.39.15-.84,8-1,9a67.74,67.74,0,0,1-2.3,8.63c-1.71,5.27-3.54,9.37-8.53,12.38-4.06,2.46-8.74,3.61-13.35,4.74-1.29.31-2.87.55-3.78-.42s-.57-2.57-1-3.84c.21.61-3.19,2.63-3.73,3.07a21.37,21.37,0,0,0-3.53,4.16c-1.35,1.83-3.53,4.91-.51,6.26,1.91.85,4.86-.07,6.84-.34a126.81,126.81,0,0,1,43.65,1.76c13.85,3,27.22,5.35,41.47,6.1,5.83.31,11.64,1,17.49.58,2.43-.2,6.48-.44,7.94-2.82,6.7.17,13.68.71,20.32,0,1.25-.15,2.72-.49,3.17-1.65,3.28,0,5.19,0,8.69,0,1.21,0,2.69-.18,3.17-1.3A3.06,3.06,0,0,0,422.91,564.85Z"/><path class="cls-4" d="M224.63,411.77a257.58,257.58,0,0,1,3.64-74.66c1.06-5.36,3.28-11.71,8.65-12.71,4-.76,7.71,1.93,11.12,4.15,16.24,10.57,37.56,12.13,55.57,5.4,17-6.36,30.33-13.05,35.27-31.9a14.65,14.65,0,0,0,1.37,5.44,5,5,0,0,0,4.54,2.82c1.59-.14,2.9-1.29,4-2.43a44.06,44.06,0,0,0,12.51-28.43,8.36,8.36,0,0,0,7.84,2.49c4.14-.91,6.4-4,3.1-7.25a9.78,9.78,0,0,1-2.08-3,2.1,2.1,0,0,1-.43,2.44,1.41,1.41,0,0,1-.36.24c-2.48,1.12-9.32-4-11.12-5.34a43.47,43.47,0,0,1-10.21-10.18c3.62,10.26,6.65,21.86,2.05,31.72-.65,1.41-2,3-3.45,2.45-1-.35-1.45-1.51-1.74-2.54-2.69-9.31-4.36-19.33-10.36-26.94a38.38,38.38,0,0,1,2.74,16.55,17.85,17.85,0,0,1-2.75,9.33c-.82,1.17-2.12,2.27-3.52,2s-2.15-1.82-2.71-3.15a113.57,113.57,0,0,0-17.85-29.22c4,7,7.94,14.28,8.86,22.28,1,8.3-2.42,18.36-8.65,24.08a35.09,35.09,0,0,1-14.34,7.45c-6.36,1.78-14.71,3.12-20.47-.57A40.72,40.72,0,0,1,262.42,298c-3.48-6.08-5.71-12.78-7.61-19.52A236.12,236.12,0,0,1,246,209.77c.11-5.37.41-10.81,1.94-16a11.62,11.62,0,0,1,3.33-5.82c3.14-2.61,8.2-.4,11.65.56a83.87,83.87,0,0,1,13.85,5.32c8.59,4.14,16.54,9.46,24.32,15l9.59-8.92c-2.33,2.84-5.53,6-9.1,5.09a9.55,9.55,0,0,1-3.39-2q-3.76-3-7.35-6.12c-.38-.33-5.51-5.83-5.47-5.84,7.76-2.39,15.71-3.94,23.55-6.49a43.28,43.28,0,0,1,10.16-2.26,19.29,19.29,0,0,1,9.28,1.25,10.7,10.7,0,0,1,3.43,3c1.37,1.63,2.59,3.38,3.81,5.13,2.49,3.55,4.92,7.47,8.31,10.25a6.2,6.2,0,0,0,3.67,1.66c1.41-1,2.78-2,4.13-3l.2-.31a.43.43,0,0,1,.49-.23,85.72,85.72,0,0,0,13-12.73C374,177,382.8,162.84,379.34,148.8c-1.13-4.59-4.06-8.93-8.4-10.82a16.61,16.61,0,0,0-6.69-1.24c-1.37,0-2.73.35-4.1.35a40.93,40.93,0,0,0-4.41.35c-1.72.17-3.43.35-5.15.39a63.15,63.15,0,0,1-11.37-1.13,44.26,44.26,0,0,1-5.34-1.07,6.4,6.4,0,0,1-2.32-1.08,6.21,6.21,0,0,1-1.46-2,13.56,13.56,0,0,1-1.69-5.3,8.06,8.06,0,0,1,1.34-5.33c1.82-2.54,5.21-3.79,7.73-5.48,1.12-.76,2.25-1.5,3.41-2.2,2.24-1.34,4.76-2.69,7.43-2.84,2.5-.15,4.86,1.21,6.7,2.8a12.67,12.67,0,0,1,3.79,5.26.43.43,0,0,1,.49.23c1.09,2,1,4,1.73,6,.28.79-.17,1.18.79,1.23.57,0,1.8-1.28,1.92-1.75.37-1.44-1.74-4.59-2.29-6.11a49.76,49.76,0,0,1-1.93-6.8c-.24-1.15.17-2.92,1.3-2.59-6-7-16.58.58-22.56,3.47-8.54,4.12-17.62,7.5-27.14,8.29-7,.6-13-1.34-19.52-3.8-20.94-7.93-39.13-20.45-62-23-16.29-1.85-33.27.72-47.59,8.7-1.8,1-7.58,4.53-8.19.22a7.08,7.08,0,0,1,.34-2.4.26.26,0,0,0,0-.26c-.08-.07-.21,0-.31,0a28.86,28.86,0,0,0-6,4.25,3.91,3.91,0,0,0-1.22,1.64,3.44,3.44,0,0,0,.53,2.62c1.72,3,5.85,2.54,8.83,3.29,2.64.66,5.6-.49,8-1.51q6.77-2.86,13.63-5.47a6.9,6.9,0,0,1,3.6-.65c-5.92,3.52-11.88,7.19-16.6,12.21a11.85,11.85,0,0,0-3.44,5.83,2,2,0,0,0,.09,1.24,1.56,1.56,0,0,0,1.55.74c3.49-.27,7.19-3.31,9.6-5.63-5.65,21.16-7,43.27-7,65.12,0,28.45,5,56,9.46,83.75,2.89,17.81,5.57,35.66,6.61,53.81,2.79,48.54-3,97.19-11.58,144.9-.54,2.95-1.08,6-.33,8.93,1.76,6.78,9.26,9.49,15.42,10.72,7.7,1.53,14.24-2.16,21.65-3.55,8.12-1.52,16.19-3.07,24.39-4.13a314.42,314.42,0,0,1,49.36-2.43v.07c-2.92,9.61-9.2,15.92-14.62,24.37a10.78,10.78,0,0,0-1.91,4.41,4,4,0,0,0,1.91,4.13,5.46,5.46,0,0,0,3.53.09c6.17-1.35,12.24-4.25,16.28-9.12-1.75,5.59-2.93,11.3-2.27,17.06a4.3,4.3,0,0,0,1.44,3.2,3.84,3.84,0,0,0,3.42,0l.45-.18c4.45-1.87,9.11-7.11,11.17-11.49a61.85,61.85,0,0,0,3.39,6c1,1.53,2.39,3.19,4.2,3a4,4,0,0,0,2.37-1.25c1.74-1.69,2.63-4.05,3.47-6.33l.17-.41a7.74,7.74,0,0,0,2.81,1.7,5.44,5.44,0,0,0,1.19.23c5.49.57,12.26-5.56,15.84-8.69a22.67,22.67,0,0,0,6.62-10.7,62.08,62.08,0,0,1-8.72,8.36,20.85,20.85,0,0,1-11.1,4.37,12.65,12.65,0,0,1-10.69-4.58,11.06,11.06,0,0,1,1,3.59,3.83,3.83,0,0,1-1.39,3.29c-1.6,1.13-3.86.33-5.4-.88-3.83-3-5.6-7.91-8.92-11.46A16.8,16.8,0,0,1,316,502a8.6,8.6,0,0,1-2.44,6.05,3,3,0,0,1-2.25,1c-1.46-.17-2.14-1.89-2.45-3.33a45.55,45.55,0,0,1-.79-13.18,11.07,11.07,0,0,1-7.3,7.12c-4.4,1.28-2.26-3.27-1.39-5,1.86-3.7,3.2-7.76,4.77-11.59a11.41,11.41,0,0,1,2.48-4.2c2.6-2.46,9.41-.21,10.23-3.88.42-1.91-.83-3.84-2.41-5-3.59-2.58-8.44-2.16-12.84-1.76a203.53,203.53,0,0,1-47.44-1.33c-4.83-.71-9.43-1.79-13.55-4.52-3.67-2.44-5.74-6.63-7.53-10.65-4-8.88-5.65-18.63-7-28.2Q225.19,417.63,224.63,411.77Zm26.26-288.71a19.84,19.84,0,0,1,2.42-7c.46-.81,3.83-6.27,4.33-6.1l33.81,14.24a47.76,47.76,0,0,0,10,3.37,36.88,36.88,0,0,0,13.91-.72,35.75,35.75,0,0,0,6.69-2,19.08,19.08,0,0,0,2.92-1.57c-1.47,7.2-6.93,12.07-13.34,15.34-6.14,3.13-12.94,4.67-19.62,6.39-4.23,1.08-8.52,2.26-12.88,2.13A31.25,31.25,0,0,1,271.9,146a103.68,103.68,0,0,1-16.43-6.65,5,5,0,0,1-1.35-.82,4.71,4.71,0,0,1-.91-1.29A23.14,23.14,0,0,1,250.89,123.06Zm-13.49,20c-2.25.94-4.62,1.62-5.59,2-5.93,2.33-10.3,7.42-15.74,10.73-2.31,1.41-5,2.51-7.67,2.14-7.36-1-7.74-10.06-4.5-15.22a19.29,19.29,0,0,1,8.29-6.82,31.56,31.56,0,0,1,26.18-.16c1.48.68,4.25,2,3.75,4C241.69,141.44,238.8,142.51,237.4,143.09Z"/><path class="cls-4" d="M461.26,354.56c-.39-.89-.81-1.76-1.25-2.62,2.88-3.7.77-6.34.23-10.12.79,1.75-1.21,3.58-3,3.14s-3-2.28-4-4c3.16,4.72,6.46,10.45,4.41,15.74a26.06,26.06,0,0,1-11-11.74,40.62,40.62,0,0,1,.82,15.53c-.13.94-.59,2.14-1.55,2.09A30.25,30.25,0,0,1,441.48,351c1.52,9.24-4.84,19.38-9.38,26.91-6,9.95-15.8,18.24-24.48,25.89-4,3.53-8.18,7-13.07,9.08a39.29,39.29,0,0,1-13.13,2.84,54.81,54.81,0,0,1-22.68-3.22c2.7,1-7.88,30.92-8.7,34-.21.78-.53,1.68-1.3,1.91,1.88,1.28,3.51,2.84,5.54,3.85,3.5,1.73,6.43,2.64,10.31,1.79a30.4,30.4,0,0,0,9.7-4.4c18.07-11.55,35.24-24.94,49.17-41.34,6.8-8,13-15.78,16.39-25.81a49.44,49.44,0,0,0,2.47-16h.31a27,27,0,0,0,2.56,7.92,3,3,0,0,0,1.3,1.51c1.31.58,2.66-.75,3.3-2,2.43-4.8,1.8-10.55.48-15.76-.35-1.39-.74-2.76-1.17-4.12l.1,0a47.62,47.62,0,0,0,6.38,8.69,9.88,9.88,0,0,0,2.39,1.94c2.31,1.23,4.79.24,5-2.5A15.6,15.6,0,0,0,461.26,354.56Z"/><path class="cls-7" d="M328,124.81c-.15.51-1.26,1.24-1.57,1.56-.46.49-.88,1-1.35,1.53a46.94,46.94,0,0,1-3.51,3.4,53.41,53.41,0,0,1-7.77,5.69,81.79,81.79,0,0,1-16.37,7.12,53.28,53.28,0,0,1-18.33,3.09A31.25,31.25,0,0,1,271.9,146c-8.42-2.33-18.54-8.63-27.54-5.26,2.4-.89,1.82,10.21,1.81,10.78-.09,6.34,2.85,12.45,7,17.21s9.55,8.33,15,11.53a67.52,67.52,0,0,1,6.07,3.77c1.43,1.05,2.77,2.22,4.1,3.4l22.34,19.74,31.16-22.58a49.54,49.54,0,0,1,1.86,26.73c12.39-4.83,23.22-13.71,31.64-23.91C374,177,382.8,162.84,379.34,148.8c-1.13-4.59-4.06-8.93-8.4-10.82a16.61,16.61,0,0,0-6.69-1.24c-1.37,0-2.73.35-4.1.35a40.93,40.93,0,0,0-4.41.35,56.18,56.18,0,0,1-12,.2c-1.88-.21-3.67-.83-5.51-1.1s-3.66-.4-5.17-1.57a9,9,0,0,1-1.75-1.94c-1.78-2.45-3.31-5.28-3.24-8.31A.28.28,0,0,1,328,124.81Z"/><path class="cls-8" d="M340.05,177.2a18.39,18.39,0,0,0-3.32-2.2c-7.66-4-16.87-2.65-25.47-1.79a185.21,185.21,0,0,1-18.84.9c-4.47,0-9.05-.22-13.15-2-6.9-3-14.43-17.57-3.72-20.79,2.87-.86,1-3.27-.93-4.15-2.06-.95-4.77-.84-7-1.69-2.73-1.06-5.15-2.92-8-3.85-4.91-1.59-10.28-2.79-15.3-.91,2.4-.89,1.82,10.21,1.81,10.78-.09,6.34,2.85,12.45,7,17.21s9.55,8.33,15,11.53c2.18,1.27,4.28,3.12,6.53,4.11,4.55,2,8.43,6.16,12.23,9.42q6.25,5.35,12.33,10.9,7.94-5.74,15.58-11.86c2.45-1.95,4.81-4.4,7.47-6.05.71-.44,6.39-4,6.62-3.84,3.94,2.8,4.83,7.54,5.4,12.06.26,2,1.56,15.46-.63,16.32,8-3.11,17.05-7.9,23-14.22,2.91-3.12,5.26-6.71,8.11-9.85a13.34,13.34,0,0,0,2.64-3.16c.72-1.5.38-4.16,1.21-5.41A43.1,43.1,0,0,1,349,194.73c-.49.2-1.15.35-1.47-.07a1.27,1.27,0,0,1-.16-.84A20.57,20.57,0,0,0,340.05,177.2Z"/><path class="cls-4" d="M377.89,342.23l2.95-1.15c9.54-3.75,19.51-7.56,29.72-6.69-4-1-7.92-1.92-11.8-3.13a20.82,20.82,0,0,1-6.13-2.76c-2.4-1.74-4-4.31-5.59-6.83q-9.09-14.73-17-30.15c2.15,4.29,4.26,8.62,6,13.11s2.52,9.05,3.65,13.73a29.57,29.57,0,0,1,.13,12.67,36.61,36.61,0,0,1-1.91,6.57c-.44,1.11-1.74,5.3-2.89,5.75Z"/><path class="cls-9" d="M458.18,353.41a7.45,7.45,0,0,0-.23-4.56,26.68,26.68,0,0,0-4.12-8.22,16.42,16.42,0,0,0,3.21,3.13c.68.51,1.67,1,2.32.42a1.63,1.63,0,0,0,.5-1.15c.25-2.58-2-4.48-3.72-6-16.54-14.87-38.8-21.54-55.67-36.25-9.51-8.29-18.24-17.32-27.6-25.63,6.89,15.81,19.66,29.71,33.89,39.25,10.17,6.82,21.54,11.69,31.88,18.25a57.15,57.15,0,0,1,8.3,6.48c1.86,1.73,4.08,2.82,4.41,5.62a.89.89,0,0,1-.22.83.87.87,0,0,1-.74,0,19.5,19.5,0,0,1-4.71-1.86c2.29,4.32,6.13,7.56,9.88,10.68a1.85,1.85,0,0,0,1.08.55,1.5,1.5,0,0,0,1.19-.82A4.08,4.08,0,0,0,458.18,353.41Z"/><path class="cls-9" d="M357.89,493c1.92-3.82.75-6.38-.89-10.75-1.76-4.66-3.56-9.31-5.1-14-.61-1.88-2.46-13.83-3.63-14.41l-.06,0,.3-1.14c-.19.46-.37.92-.57,1.37s-1.12.08-.86-.5c4-9,5.65-18.36,8.46-27.69,2.6-8.62,5.46-17.26,7.83-26.05q8-29.64,15.3-59.44c1.2-4.86,2.39-9.78,2.36-14.79,0-7.75-3-15.2-6.52-22.11a134.2,134.2,0,0,0-10.3-17,112.72,112.72,0,0,1,3.48,25.92c.24,14.33-2.25,28.56-5.06,42.61q-7,35.08-16.71,69.57a357.79,357.79,0,0,1-11.37,34.89c7.91,7.91,12,18.75,15.93,29.24a17.24,17.24,0,0,1,1.52,6.95c-.15,2.39-1.57,4.87-3.89,5.46a15.69,15.69,0,0,0,9-6.67A13.1,13.1,0,0,0,357.89,493Z"/><path class="cls-10" d="M323,130.74a11.8,11.8,0,0,1-3.05,2.88,59.11,59.11,0,0,1-8.35,5.06c-1.59,0-5,2.39-6.43,3.15-2.22,1.17-4.33,2.61-6.46,3.93,4.16.24,8.29-.61,12.41-1.18a91.62,91.62,0,0,1,29.6.79c7,1.34,14,3.57,19.91,7.62a14.73,14.73,0,0,1,4.81,4.87,15,15,0,0,1,1.39,7.61,40.25,40.25,0,0,1-6.8,21.21c12.46-8.28,23.17-22,19.27-37.88a17.43,17.43,0,0,0-8.42-11.12c-5.2-2.89-11.67-1.56-17.28-1.08a69.72,69.72,0,0,1-12.84-.1,35.14,35.14,0,0,1-5.19-.87c-1.31-.34-3.09-.65-4-1.75a16.83,16.83,0,0,1-3.47-9.12c.05.7-1.94,2.56-2.44,3.1A22.25,22.25,0,0,0,323,130.74Z"/><path class="cls-9" d="M361.35,137.4c1.66-.13,3.32-.32,5-.55-.68-.07-1.37-.1-2.06-.11-1.37,0-2.73.35-4.1.35a40.93,40.93,0,0,0-4.41.35l-1.72.16A68.94,68.94,0,0,0,361.35,137.4Z"/><path class="cls-5" d="M375.36,151.65a11.78,11.78,0,0,0-1.73-4.25,8.87,8.87,0,0,0-1.36-1.57c-.41-.4-.69-.81-1.28-.9a.43.43,0,0,0-.48.36c-.05.57.26,1,.39,1.49a18,18,0,0,1,.55,2.48c.11,1.5.31,3,.35,4.49s-.39,2.79-.29,4.15c.06.79,0,1.56,0,2.35a10.68,10.68,0,0,1-.14,2.32.8.8,0,0,0,1.47.48c1.11-2.1,2.43-4.08,2.68-6.5A16.1,16.1,0,0,0,375.36,151.65Z"/><path class="cls-5" d="M371.09,168.35a1.56,1.56,0,0,0-.28-.58,1.19,1.19,0,0,0-.46-.3c-.11,0-.13,0-.19-.12a.24.24,0,0,0-.44.11c0,.09-.25.25-.31.32a1.11,1.11,0,0,0-.22.48,4.75,4.75,0,0,0-.18.85v0c0,.07,0,.15-.05.22s-.06.31-.1.46-.08.49-.12.75-.16.74-.24,1.11a.85.85,0,0,0,0,.35,4.66,4.66,0,0,1-.16.49,3.12,3.12,0,0,0-.29.86.47.47,0,0,0,.29.47c.25.09.51-.09.72-.21a4.89,4.89,0,0,0,.82-.82c.19-.18.39-.24.55-.46l.14-.22a4.93,4.93,0,0,0,.23-.46,7.35,7.35,0,0,0,.38-1,3.51,3.51,0,0,0,.09-.92A4.17,4.17,0,0,0,371.09,168.35Z"/><path class="cls-2" d="M345.71,463.28a174.66,174.66,0,0,1,4.63-22.66L356,418.24l5.76-22.36c1.94-7.45,3.83-14.91,5.82-22.35l5.9-22.33,6-22.28a19.74,19.74,0,0,0,.77-5.33,20.1,20.1,0,0,0-1-5.3c-1.15-3.57-2.47-7.21-3.86-10.75-2.77-7.14-5.87-14.14-9.13-21.14a115.15,115.15,0,0,1,11.31,20.23c1.54,3.57,3,7.14,4.21,10.88a22.57,22.57,0,0,1,1.17,6,22.32,22.32,0,0,1-.78,6.08c-3.78,15-7.64,29.84-11.52,44.74-1.92,7.46-3.93,14.89-5.9,22.33L358.82,419l-6,22.3A171.4,171.4,0,0,1,345.71,463.28Z"/><path class="cls-2" d="M411.66,334.6c-2.94.36-5.86.83-8.74,1.39s-5.74,1.27-8.56,2.05-5.59,1.73-8.34,2.7-5.45,2.05-8.18,3.1l-1-2.29a55.89,55.89,0,0,1,8.36-3.26,82.5,82.5,0,0,1,8.71-2.13,85.64,85.64,0,0,1,8.85-1.25A80.22,80.22,0,0,1,411.66,334.6Z"/><path class="cls-2" d="M459,351.17a8.09,8.09,0,0,0,1.4-4.2,8.37,8.37,0,0,0-.14-2.25,5,5,0,0,0-.32-1,11.2,11.2,0,0,0-.52-1c-1.57-2.74-4.35-4.91-6.95-7.12a128.83,128.83,0,0,0-17.25-11.42c-6-3.43-12.21-6.66-18.28-10.19a117.58,117.58,0,0,1-17.36-12.06Q391.7,295,384,287.93t-15.05-14.61c-4.85-5-9.87-9.86-14.49-15.16a72.33,72.33,0,0,1-11.69-17.45,152.71,152.71,0,0,0,13.42,15.89c4.75,5,9.7,9.92,14.65,14.85s10,9.68,15.09,14.39,10.31,9.34,15.56,13.91a117.82,117.82,0,0,0,16.89,11.84c6,3.51,12.13,6.78,18.21,10.26a130.78,130.78,0,0,1,17.53,11.75c1.34,1.17,2.71,2.25,4,3.51a19.8,19.8,0,0,1,3.51,4.31,13,13,0,0,1,.65,1.29,8,8,0,0,1,.48,1.48,10.93,10.93,0,0,1,.18,2.95,10.47,10.47,0,0,1-1.92,5.57Z"/><path class="cls-2" d="M450.75,339.66a36,36,0,0,1,8.22,8.53,39.29,39.29,0,0,1,3,5.16,21.48,21.48,0,0,1,2.1,5.81,11.61,11.61,0,0,1,.16,3.3,4.45,4.45,0,0,1-2.12,3.39,4.71,4.71,0,0,1-3.93.29,7.87,7.87,0,0,1-2.89-1.9,37.25,37.25,0,0,1-6.87-9.84l1.46-.89a57,57,0,0,0,7.19,8.83,5.75,5.75,0,0,0,2,1.28,2,2,0,0,0,1.73-.07,1.82,1.82,0,0,0,.82-1.43,8.6,8.6,0,0,0-.07-2.52,22.74,22.74,0,0,0-1.71-5.24c-.77-1.74-1.61-3.46-2.55-5.13A68.82,68.82,0,0,0,450.75,339.66Z"/><path class="cls-2" d="M444.07,342.21a46.24,46.24,0,0,1,5.72,10.64,50.73,50.73,0,0,1,1.87,5.79,34.35,34.35,0,0,1,1,6.11,20.28,20.28,0,0,1-.49,6.33,14,14,0,0,1-1.11,3.06,6.48,6.48,0,0,1-1,1.52,4.94,4.94,0,0,1-1.55,1.26,3,3,0,0,1-2.45.13,3.38,3.38,0,0,1-1.63-1.52,13.78,13.78,0,0,1-.71-1.46c-.21-.48-.39-1-.56-1.46a24.74,24.74,0,0,1-1.37-6l1.57-.25a29.31,29.31,0,0,0,1.8,5.48c.2.44.41.87.62,1.29s.45.89.65,1.2.41.47.52.48.2,0,.44-.09a2.62,2.62,0,0,0,.72-.65,4,4,0,0,0,.59-1,13.37,13.37,0,0,0,.89-2.56,19.7,19.7,0,0,0,.44-5.55,56.33,56.33,0,0,0-2.22-11.42C446.82,349.7,445.49,346,444.07,342.21Z"/><path class="cls-2" d="M440.67,352a41.69,41.69,0,0,1,2.74,19.11,51.35,51.35,0,0,1-1.66,9.67,53,53,0,0,1-3.57,9.13A87.9,87.9,0,0,1,427.29,406a180.34,180.34,0,0,1-12.92,14.31,224.75,224.75,0,0,1-29.83,24.31q-4,2.73-8,5.3a42.3,42.3,0,0,1-8.71,4.63,19.8,19.8,0,0,1-5,1.13,14.08,14.08,0,0,1-5.22-.65,27.25,27.25,0,0,1-4.6-2,45.57,45.57,0,0,1-4.19-2.57l1.38-2.08a45.15,45.15,0,0,0,4,2.34,27,27,0,0,0,4.18,1.74,11.27,11.27,0,0,0,4.22.47,16.44,16.44,0,0,0,4.26-1,39.34,39.34,0,0,0,8.08-4.44c2.67-1.73,5.28-3.54,7.89-5.33a221,221,0,0,0,29.38-24,184.62,184.62,0,0,0,12.84-14,84.52,84.52,0,0,0,10.71-15.43,49.83,49.83,0,0,0,3.48-8.62,48.56,48.56,0,0,0,1.67-9.14C441.37,364.72,440.88,358.51,440.67,352Z"/><path class="cls-2" d="M349,453.65a151.55,151.55,0,0,0,6.39,20.79l3.88,10.27c.65,1.72,1.28,3.43,1.91,5.19a10,10,0,0,1,.63,3.08,6.76,6.76,0,0,1-.84,3.23,30.43,30.43,0,0,1-7.44,8.64,52.92,52.92,0,0,1-9,6.71,14.92,14.92,0,0,1-5.67,1.95,8.66,8.66,0,0,1-1.61,0,12,12,0,0,1-1.63-.37,8,8,0,0,1-2.68-1.72c-2.9-2.74-4.53-6.19-5.84-9.63,2.38,2.84,4.57,5.82,7.33,7.82a7,7,0,0,0,2,1c.35.06.71.14,1.07.18a7,7,0,0,0,1.12,0,13,13,0,0,0,4.69-1.5,45.61,45.61,0,0,0,8.55-6.38,27.83,27.83,0,0,0,6.81-7.91,4.19,4.19,0,0,0,.55-2,8,8,0,0,0-.48-2.27c-.6-1.7-1.22-3.43-1.86-5.13l-3.84-10.3a92.61,92.61,0,0,1-5.55-21.42Z"/><path class="cls-2" d="M316.61,477.52c-8.12.33-16.15.2-24.19.24s-16.08.42-24.09,1-16,1.48-23.94,2.69l-6,.94-5.94,1-5.92,1.12-5.91,1.21-.56-2.44,5.91-1.41,6-1.26,6-1.14,6-1c8-1.2,16.08-2.17,24.18-2.7s16.2-.75,24.31-.62A127.56,127.56,0,0,1,316.61,477.52Z"/><path class="cls-2" d="M303.23,541.78a61.7,61.7,0,0,0-6.71-4.1,8.39,8.39,0,0,0-3.5-.91,5.6,5.6,0,0,0-3.26,1.26,16.09,16.09,0,0,0-2.69,2.66l-2.55,3c-1.69,2-3.32,4-5,6s-3.32,4-4.92,6.06c-.8,1-1.6,2.06-2.37,3.1a14.75,14.75,0,0,0-1.92,3,1.78,1.78,0,0,0-.16,1.13c0,.21.22.43.66.64a5.73,5.73,0,0,0,3.15.17c.61-.09,1.24-.21,1.89-.33s1.37-.23,2-.3c1.31-.17,2.63-.31,3.94-.44a128.46,128.46,0,0,1,31.65,1c2.62.4,5.22.91,7.8,1.46s5.12,1.09,7.68,1.61q7.68,1.55,15.43,2.7c5.17.74,10.35,1.32,15.55,1.68,2.59.16,5.25.32,7.86.53s5.2.37,7.78.38c1.29,0,2.57,0,3.85-.11a34.58,34.58,0,0,0,3.79-.42,7.24,7.24,0,0,0,3.17-1.25,2.48,2.48,0,0,0,.84-1.17,3.45,3.45,0,0,0,.2-1.53,10.84,10.84,0,0,0-1-3.44c-.5-1.16-1.11-2.3-1.72-3.47-.3-.59-.61-1.18-.89-1.83l-.76-1.8c-.52-1.2-1.06-2.38-1.62-3.55q-1.69-3.51-3.64-6.89a54,54,0,0,0-4.22-6.46,12.65,12.65,0,0,0-5.74-4.42,7.11,7.11,0,0,0-3.49-.22,12,12,0,0,0-1.74.45c-.57.27-1.11.47-1.69.78-2.31,1.19-4.57,2.45-6.81,3.76s-4.49,2.58-6.71,3.93c-4.45,2.69-8.81,5.55-13.24,8.42a75.73,75.73,0,0,1,12-10.34,67.1,67.1,0,0,1,6.73-4.22c2.34-1.25,4.75-2.38,7.19-3.41.6-.26,1.3-.48,1.95-.72a13.24,13.24,0,0,1,2.08-.43,11.87,11.87,0,0,1,2.15-.08,10.09,10.09,0,0,1,2.12.43,11.39,11.39,0,0,1,3.72,2,21.6,21.6,0,0,1,2.88,2.94,54.81,54.81,0,0,1,4.41,6.66c1.33,2.28,2.58,4.62,3.74,7,.57,1.19,1.13,2.39,1.66,3.6l.78,1.81c.24.55.54,1.13.84,1.7.6,1.15,1.24,2.32,1.79,3.57a12.45,12.45,0,0,1,1.15,4.08,5,5,0,0,1-1.72,4.33,8.93,8.93,0,0,1-4,1.68,33.75,33.75,0,0,1-4,.47c-1.34.1-2.68.15-4,.14-2.66,0-5.3-.17-7.92-.35s-5.2-.34-7.84-.49c-5.26-.34-10.51-.89-15.72-1.62S333.66,570,328.51,569q-3.87-.76-7.73-1.59c-2.54-.53-5.09-1-7.66-1.4a126.24,126.24,0,0,0-31.07-.82c-1.3.12-2.59.27-3.87.44-.67.08-1.24.16-1.88.29s-1.3.25-2,.35a13.76,13.76,0,0,1-2.17.16,5.74,5.74,0,0,1-2.41-.54,4.46,4.46,0,0,1-1.13-.79,3.08,3.08,0,0,1-.8-1.35A4.23,4.23,0,0,1,268,561a16.32,16.32,0,0,1,2.23-3.61c.78-1.07,1.58-2.12,2.39-3.16,1.62-2.09,3.28-4.15,5-6.13s3.6-3.86,5.47-5.71l2.8-2.77A24,24,0,0,1,289,537a7.32,7.32,0,0,1,4-1.47,10.84,10.84,0,0,1,4.09.86c2.52,1,4.88,2.34,7.23,3.17Z"/><path class="cls-2" d="M372.9,537.07c3.42-1.31,6.8-2.71,10.17-4.13,1.7-.69,3.32-1.45,5.06-2.18a6.57,6.57,0,0,1,3-.57,6.07,6.07,0,0,1,2.94.93,12.59,12.59,0,0,1,3.94,4.26c1,1.6,1.85,3.26,2.67,4.88.42.82.82,1.56,1.29,2.36l1.38,2.4c.89,1.61,1.71,3.27,2.51,4.93,1.61,3.32,3,6.73,4.34,10.16.67,1.71,1.31,3.43,1.94,5.15.15.43.33.87.48,1.44a3.83,3.83,0,0,1,0,2.07,3.28,3.28,0,0,1-1.37,1.76,5.44,5.44,0,0,1-1.68.69,19.55,19.55,0,0,1-2.93.37c-.93.08-1.86.13-2.79.17-1.86.07-3.71.07-5.56,0-3.68-.09-7.33-.32-11-.42l.05-2.5c3.69.06,7.34.22,11,.26,1.81,0,3.61,0,5.41,0,.89,0,1.79-.08,2.68-.15a20.29,20.29,0,0,0,2.5-.31,3,3,0,0,0,.86-.34.64.64,0,0,0,.29-.33,3.54,3.54,0,0,0-.4-1.81q-.92-2.56-1.87-5.12c-1.28-3.4-2.67-6.75-4.13-10.06-.73-1.67-1.51-3.3-2.28-4.94l-1.2-2.43c-.42-.81-.84-1.7-1.2-2.53a48.4,48.4,0,0,0-2.36-4.85,11,11,0,0,0-3.33-3.81,4.56,4.56,0,0,0-2.23-.67,5.14,5.14,0,0,0-2.33.5c-1.62.73-3.32,1.49-5,2.28-3.31,1.57-6.6,3.15-9.86,4.83Z"/><path class="cls-2" d="M410.54,567.22l7.71-.07h1.9a4.36,4.36,0,0,0,1.44-.22c.34-.16.36-.23.41-.39a2.88,2.88,0,0,0-.28-1.22,95,95,0,0,0-6.6-13.67c-2.5-4.43-5.2-8.78-8-13.06-.69-1.08-1.43-2.13-2.15-3.19l-1.09-1.59a2.44,2.44,0,0,0-.44-.55c-.09,0-.15-.11-.24-.15l-.29-.11a4.83,4.83,0,0,0-3.07.78,7.61,7.61,0,0,0-1.44,1,4.79,4.79,0,0,0-1.06,1.2l-2-1.53a9.08,9.08,0,0,1,1.78-1.4,14.84,14.84,0,0,1,1.84-1,10.23,10.23,0,0,1,2-.69,5.15,5.15,0,0,1,2.32,0c.2.06.41.14.61.22a4,4,0,0,1,.58.36,4.13,4.13,0,0,1,.8.9l1.12,1.57,2.23,3.15c3,4.18,6,8.4,8.63,12.87a97.14,97.14,0,0,1,6.85,14,5.11,5.11,0,0,1,.42,2.53,3,3,0,0,1-.72,1.52,3.49,3.49,0,0,1-1.27.87,6.79,6.79,0,0,1-2.34.42h-2l-7.71,0Z"/><path class="cls-11" d="M346,542.79a90.46,90.46,0,0,1-8.68-30.92"/><path class="cls-2" d="M297.26,553.4c1.19-2.69,2.44-5.3,3.55-7.95s2.14-5.31,3-8a69.38,69.38,0,0,0,2-8.26c.5-2.8.85-5.62,1.13-8.47l2.5.12a50.52,50.52,0,0,1-3.08,17.47,47.56,47.56,0,0,1-3.84,8A46,46,0,0,1,297.26,553.4Z"/><path class="cls-2" d="M308.23,492.91c-.94,4-2.05,8-2.83,12a39.6,39.6,0,0,0-.79,11.89,5.89,5.89,0,0,0,.56,2.41c.31.48.56.58,1.25.55a6.84,6.84,0,0,0,2.37-.8,17.36,17.36,0,0,0,2.38-1.52,27.75,27.75,0,0,0,7.5-8.87l2.27,1.05a25.08,25.08,0,0,1-3.39,5.55,26.35,26.35,0,0,1-4.6,4.6,18.4,18.4,0,0,1-2.83,1.81,9.5,9.5,0,0,1-3.48,1.1,4.39,4.39,0,0,1-2.25-.4,4,4,0,0,1-1.71-1.65,8.48,8.48,0,0,1-.84-3.58,35.19,35.19,0,0,1,1.55-12.63A66,66,0,0,1,308.23,492.91Z"/><path class="cls-2" d="M314.8,495c1.15,2.94,2.28,5.82,3.58,8.61a84.84,84.84,0,0,0,4.27,8.13c.39.65.8,1.29,1.21,1.94a16.33,16.33,0,0,0,1.24,1.76,4.8,4.8,0,0,0,1.31,1.15,1.39,1.39,0,0,0,1.13.12,3.44,3.44,0,0,0,1.33-.92,9.82,9.82,0,0,0,1.23-1.57,28.45,28.45,0,0,0,1.92-4l2.34.86a23.17,23.17,0,0,1-1.84,4.56,10.49,10.49,0,0,1-1.58,2.16,6.13,6.13,0,0,1-2.5,1.69,4.37,4.37,0,0,1-3.39-.33,7,7,0,0,1-2.18-1.91,19,19,0,0,1-1.39-2.1c-.42-.68-.81-1.38-1.18-2.08a48.25,48.25,0,0,1-3.73-8.77A39.67,39.67,0,0,1,314.8,495Z"/><path class="cls-2" d="M306.23,501a21.54,21.54,0,0,1-5.7,5.48,29.7,29.7,0,0,1-7.12,3.41,38.82,38.82,0,0,1-3.79,1.07,11.38,11.38,0,0,1-2.14.3,5,5,0,0,1-2.48-.56,4.59,4.59,0,0,1-1.84-1.87,5.91,5.91,0,0,1-.67-2.35,8.33,8.33,0,0,1,1.08-4.36c.66-1.24,1.38-2.27,2.08-3.36s1.45-2.12,2.2-3.16c1.49-2.08,3-4.11,4.44-6.17a47.47,47.47,0,0,0,6.87-13.07l2.4.73a48.14,48.14,0,0,1-7.07,13.88c-1.46,2.11-3,4.15-4.44,6.2-.74,1-1.45,2.06-2.15,3.1s-1.43,2.1-2,3.1a5.67,5.67,0,0,0-.81,2.93,2.52,2.52,0,0,0,1.11,2.11,4.13,4.13,0,0,0,2.82,0c1.21-.26,2.39-.59,3.56-1A30.6,30.6,0,0,0,305,500Z"/><path class="cls-2" d="M194.71,111.58c-1.6,8-3.28,16-4.55,24a235.94,235.94,0,0,0-2.73,24.18c-.54,8.1-.7,16.23-.7,24.37s.38,16.23,1.13,24.32c2.8,32.41,10.26,64.29,13.76,96.88a408.15,408.15,0,0,1,2,49.06c-.2,16.37-1.33,32.71-3,49s-4,32.45-6.76,48.56q-1,6-2.11,12.07c-.63,4-1.84,8.06-1,11.56a9.63,9.63,0,0,0,2.63,4.63,16.05,16.05,0,0,0,4.69,3.11,42.3,42.3,0,0,0,11.45,3l-.34,2.48a44.66,44.66,0,0,1-12.17-3.1,18.54,18.54,0,0,1-5.47-3.6,12.36,12.36,0,0,1-3.37-5.86,17.61,17.61,0,0,1-.13-6.58c.31-2.1.69-4.06,1-6.08q1.06-6,2-12.05,4-24.12,6.47-48.42c1.62-16.19,2.72-32.44,2.92-48.7a403.58,403.58,0,0,0-2-48.69c-3.44-32.33-10.7-64.29-13.42-97-.73-8.16-1-16.37-1.05-24.56s.23-16.37.81-24.55a228.33,228.33,0,0,1,2.88-24.42c.36-2,.78-4,1.22-6s.94-4,1.56-6A84.47,84.47,0,0,1,194.71,111.58Z"/><path class="cls-2" d="M202.33,103.25A71.57,71.57,0,0,0,190.15,110a61.67,61.67,0,0,0-5.45,4.2c-1.76,1.5-3.3,3.09-5,4.78a22.75,22.75,0,0,0-2.2,2.48,7.4,7.4,0,0,0-.76,1.26,2.49,2.49,0,0,0-.25,1.16,1.24,1.24,0,0,0,.29.83,1.91,1.91,0,0,0,.92.5,4,4,0,0,0,1.36.11,5.67,5.67,0,0,0,.72-.1l.82-.19a29.64,29.64,0,0,0,12-6.29l.59.58a25.93,25.93,0,0,1-12,7.81l-.89.25a8.59,8.59,0,0,1-1,.2,6.42,6.42,0,0,1-2.13-.08,4.2,4.2,0,0,1-2.13-1.15,3.65,3.65,0,0,1-1-2.35,5,5,0,0,1,.41-2.26,8.8,8.8,0,0,1,1-1.76,24.73,24.73,0,0,1,2.46-2.77,50,50,0,0,1,11.15-8.91A42.68,42.68,0,0,1,202.33,103.25Z"/><path class="cls-2" d="M193.56,107.27a30.54,30.54,0,0,1-3.63,2.47,41.27,41.27,0,0,1-4,1.94,29.12,29.12,0,0,1-8.59,2.25,19.9,19.9,0,0,1-4.56-.05,14.4,14.4,0,0,1-4.5-1.39,7.8,7.8,0,0,1-2.07-1.49,4.92,4.92,0,0,1-1.35-2.55,4.64,4.64,0,0,1,.49-2.89,7,7,0,0,1,1.65-2c.68-.57,1.23-.93,1.81-1.37l1.75-1.25,3.53-2.48c2.37-1.63,4.79-3.21,7.26-4.71a69.58,69.58,0,0,1,15.85-7.31,47.87,47.87,0,0,1,8.65-1.74,62.5,62.5,0,0,1,8.75-.15c2.88.12,5.74.35,8.61.52s5.73.47,8.59.73c11.43,1.13,22.78,2.76,34.1,4.51s22.61,3.63,33.92,5.24c5.65.82,11.32,1.52,17,2.15,2.83.31,5.67.56,8.51.83l4.26.32c1.42.09,2.87.25,4.19.24a28,28,0,0,0,8.07-1.5c2.74-.76,5.44-1.69,8.31-2.34a27.15,27.15,0,0,1,8.87-.73,16.5,16.5,0,0,1,8.47,3.09,12.24,12.24,0,0,1,4.73,7.75,19.41,19.41,0,0,1-.8,8.94,30.79,30.79,0,0,1-3.93,7.94,40,40,0,0,1-5.73,6.73l-1.68-1.86a31.83,31.83,0,0,0,9.41-13.43,17,17,0,0,0,.81-8,10.08,10.08,0,0,0-4-6.55,14,14,0,0,0-7.49-2.57,24.91,24.91,0,0,0-8.15.93c-2.68.72-5.4,1.65-8.16,2.47a29.63,29.63,0,0,1-8.75,1.63c-1.54,0-2.95-.16-4.38-.25l-4.3-.31c-2.86-.26-5.72-.52-8.57-.82-5.71-.63-11.4-1.33-17.08-2.14-11.35-1.59-22.65-3.47-33.95-5.24s-22.61-3.41-34-4.54c-2.84-.26-5.68-.51-8.52-.73s-5.69-.38-8.53-.48a58.53,58.53,0,0,0-8.39.17A45.36,45.36,0,0,0,198,88.89c-10.67,3.28-20.19,10.09-29.22,16.62a3,3,0,0,0-1.3,2.51,3.49,3.49,0,0,0,2,2.2,12.16,12.16,0,0,0,3.65,1.15,18.4,18.4,0,0,0,4,.08,33.4,33.4,0,0,0,8-1.74,46.41,46.41,0,0,0,7.68-3.38Z"/><path class="cls-2" d="M326.13,131.31c5,3.46,10.67,4.73,16.48,5.22a83.18,83.18,0,0,0,8.8.15c3-.1,5.9-.41,8.93-.64a26.72,26.72,0,0,1,9.23.62,14.09,14.09,0,0,1,4.26,2.09,15.38,15.38,0,0,1,3.33,3.36,20,20,0,0,1,3.56,8.61,28.9,28.9,0,0,1,.17,9.28,39.59,39.59,0,0,1-2.43,8.93,58.14,58.14,0,0,1-4.13,8.19,84.88,84.88,0,0,1-5.13,7.55c-1.84,2.41-3.75,4.77-5.82,7a87.62,87.62,0,0,1-13.64,12.09,83.53,83.53,0,0,1-15.95,8.82h0l-2.25,1,.54-2.38a51.74,51.74,0,0,0,1.15-17,25.49,25.49,0,0,0-2.08-8.12,8.5,8.5,0,0,0-2.42-3.08,6.79,6.79,0,0,0-3.59-1.29c-2.67-.18-5.45.69-8.28,1.41s-5.66,1.43-8.52,2.06a89.93,89.93,0,0,1-17.51,2.31,49.69,49.69,0,0,1-17.6-2.72,48.66,48.66,0,0,1-15.2-9.29c-4.45-3.85-8.66-8.29-11.35-13.77a26.58,26.58,0,0,1-2.59-8.74,20.86,20.86,0,0,1,1-9.16l2.36.83c-1.81,5.13-.94,11,1.5,16s6.42,9.25,10.75,13a47,47,0,0,0,14.43,8.81A48.35,48.35,0,0,0,290.81,185a86.88,86.88,0,0,0,17.1-1.9c2.84-.56,5.67-1.19,8.5-1.85s5.68-1.59,8.88-1.35a8.72,8.72,0,0,1,4.5,1.66,10.41,10.41,0,0,1,3,3.69,27.11,27.11,0,0,1,2.33,8.69,50.74,50.74,0,0,1,.38,8.88,62.65,62.65,0,0,1-.93,8.85l-1.71-1.4h0a84.72,84.72,0,0,0,28.65-20.36c2-2.16,3.89-4.46,5.69-6.81a84.09,84.09,0,0,0,5-7.3,56.48,56.48,0,0,0,4-7.83,37.81,37.81,0,0,0,2.46-8.34,27.4,27.4,0,0,0,.19-8.62,17.62,17.62,0,0,0-3-8,12.51,12.51,0,0,0-6.69-4.93,21.32,21.32,0,0,0-8.62-.26c-5.87.85-12,1.78-18.13,1.19a29.13,29.13,0,0,1-9-2.14A17,17,0,0,1,326.13,131.31Z"/><path class="cls-11" d="M330.91,185.59l-28.67,20.55c-10.43-6-20.31-14.9-29.18-23"/><path class="cls-2" d="M253.21,147c-1.48-.53-2.82-1.05-4.18-1.47s-2.71-.78-4.07-1.07-2.74-.49-4.15-.64-2.86-.22-4.43-.32a10.28,10.28,0,0,1,4.38-1.64,13.32,13.32,0,0,1,4.71.16,13.58,13.58,0,0,1,4.39,1.74A10.27,10.27,0,0,1,253.21,147Z"/><path class="cls-2" d="M346.72,204.37q.21,6.45.78,12.89c.39,4.28.88,8.56,1.55,12.81s1.44,8.49,2.39,12.69,2.05,8.36,3.36,12.46l-1.44.51a117.49,117.49,0,0,1-4-12.46c-1.12-4.22-2-8.49-2.78-12.79s-1.3-8.64-1.69-13-.61-8.72-.64-13.08Z"/><path class="cls-2" d="M224.09,555.32a33.16,33.16,0,0,0-1.06-4.07,12.66,12.66,0,0,0-1.9-3.48,33.1,33.1,0,0,0-2.9-3.08q-1.54-1.52-3.21-2.91c-1.1-.93-2.26-1.81-3.44-2.65a14.66,14.66,0,0,0-3.66-2,6,6,0,0,0-3.86-.11,9.48,9.48,0,0,0-1.86.84l-1.91,1.07a80.23,80.23,0,0,0-7.28,4.8,18.18,18.18,0,0,0-3.11,2.76,9.45,9.45,0,0,0-1.12,1.66,18.69,18.69,0,0,0-.94,1.84c-2.13,5.17-2.62,11-2.89,16.82l-.18,4.4c0,.36,0,.76,0,1s0,.23.06.26a8.41,8.41,0,0,0,1.52.83l7.89,3.9,3.93,1.94a7.7,7.7,0,0,0,1.79.63,5.36,5.36,0,0,0,1.79,0c2.83-.41,5.72-1,8.55-1.59s5.65-1.39,8.43-2.24c1.39-.43,2.77-.87,4.15-1.35a3.56,3.56,0,0,0,1.42-.73,2.08,2.08,0,0,0,.46-1.29c.07-.62.08-1.37.11-2.11l.07-2.18c0-1.45,0-2.9,0-4.35A54.2,54.2,0,0,0,224.09,555.32Zm2.45-.46a55.39,55.39,0,0,1,.88,9c0,1.49,0,3,0,4.47l-.07,2.22c0,.74,0,1.45-.13,2.3a5.61,5.61,0,0,1-.3,1.35,3.89,3.89,0,0,1-.84,1.38,5.69,5.69,0,0,1-2.4,1.36c-1.41.49-2.82,1-4.24,1.38q-4.26,1.31-8.61,2.29c-2.91.65-5.79,1.2-8.78,1.63a8.06,8.06,0,0,1-2.59,0,9.78,9.78,0,0,1-2.36-.83l-4-2-7.91-3.92-1-.49a4.11,4.11,0,0,1-1.27-.9,2.77,2.77,0,0,1-.53-.89,3.49,3.49,0,0,1-.17-.87c0-.53,0-.86,0-1.23l.15-4.42a79.07,79.07,0,0,1,.81-8.91,32.09,32.09,0,0,1,2.5-8.77,20.37,20.37,0,0,1,1.12-2,11.81,11.81,0,0,1,1.44-1.93,20.31,20.31,0,0,1,3.6-2.92c2.47-1.66,5-3.19,7.62-4.61l2-1.06a10.9,10.9,0,0,1,2.16-.93,8.09,8.09,0,0,1,4.8.14,18.68,18.68,0,0,1,4.11,2.09c1.26.79,2.5,1.63,3.7,2.52s2.39,1.81,3.52,2.79a33.81,33.81,0,0,1,3.3,3.18,13.13,13.13,0,0,1,2.38,4.17A32.47,32.47,0,0,1,226.54,554.86Z"/><path class="cls-2" d="M191.37,543.75a33.42,33.42,0,0,0-3.09-3.73,25,25,0,0,0-3.57-3.21,9,9,0,0,0-4.12-1.81,5.17,5.17,0,0,0-3.82,1.69,33.82,33.82,0,0,0-3.08,3.72c-1,1.3-2,2.63-2.89,4s-1.84,2.7-2.7,4.08-1.67,2.79-2.5,4.21S164,555.5,163.32,557l-.5,1.09-.49,1.15c-.36.79-.7,1.5-1,2.22a8.64,8.64,0,0,0-.6,2,1.56,1.56,0,0,0,0,.65s0,.06,0,0,0,0,0,.05l.1.1.16.13a8.92,8.92,0,0,0,1.86,1c.72.31,1.47.58,2.23.84l2.35.77c.83.28,1.54.53,2.32.78,1.53.47,3.09.86,4.67,1.19a45.92,45.92,0,0,0,9.57,1l0,2.5a48.27,48.27,0,0,1-15.06-2.13c-.79-.25-1.64-.54-2.38-.8l-2.36-.77c-.8-.27-1.6-.56-2.41-.9a11,11,0,0,1-2.47-1.37l-.32-.27-.33-.35a3,3,0,0,1-.54-1,4.07,4.07,0,0,1-.12-1.8,10.83,10.83,0,0,1,.8-2.7c.33-.81.71-1.59,1.05-2.3l.49-1.12.54-1.16c.75-1.53,1.57-3,2.42-4.44a72.56,72.56,0,0,1,5.61-8.32q1.56-2,3.18-3.86a47.58,47.58,0,0,1,3.45-3.74,8.48,8.48,0,0,1,2.25-1.52,5.57,5.57,0,0,1,2.8-.5,11.16,11.16,0,0,1,4.92,2,35.79,35.79,0,0,1,4,3.18c1.24,1.13,2.47,2.3,3.65,3.52Z"/><path class="cls-2" d="M272.8,149.48c-3.5-2.06-7-4-10.53-5.8a113,113,0,0,0-10.89-4.78,116.54,116.54,0,0,0-11.31-3.67c-3.84-1-7.74-1.88-11.72-2.68a52.61,52.61,0,0,1,12.14.77A64,64,0,0,1,263.22,142,52.75,52.75,0,0,1,272.8,149.48Z"/><path class="cls-2" d="M360.6,108.75c.26,0,.53,0,.79,0a8.3,8.3,0,0,0-5-2.17,17.34,17.34,0,0,0-8.87,1.92C342,111.09,337,115,332,118.56a43,43,0,0,1-16.38,7,36.26,36.26,0,0,1-16.25-.41c-5.08-1.34-9.66-4-14.27-6.57q-6.65-3.64-13.51-6.83c-8.6-4-17.83-7.53-27.29-6.86-3.56.25-6.46,1.08-8.62,4.07,17.07,1.12,32.22,9,48,14.77a81,81,0,0,0,14.35,4A54,54,0,0,0,330.27,123a142.32,142.32,0,0,0,15.29-8.91C349.86,111.3,355.34,108.86,360.6,108.75Z"/><path class="cls-2" d="M225.69,570.57a47.92,47.92,0,0,0,17.25-4.48,14.55,14.55,0,0,0,3.53-2.1,3,3,0,0,0,.8-1.36,4.43,4.43,0,0,0,0-1.74,12,12,0,0,0-1.59-3.81c-.74-1.26-1.61-2.48-2.51-3.74-3.55-5-7-10-11-14.57a6.32,6.32,0,0,0-3.35-2.12,4.27,4.27,0,0,0-3.43,1.31,11.18,11.18,0,0,0-2.3,3.52,36,36,0,0,0-1.48,4.25l-2.35-.86c.61-1.4,1.2-2.87,1.95-4.3a13.35,13.35,0,0,1,2.93-4,7.37,7.37,0,0,1,2.22-1.39,5.2,5.2,0,0,1,2.74-.3,8.62,8.62,0,0,1,4.37,2.6c1.13,1.15,2.13,2.36,3.13,3.46s2.08,2.32,3.07,3.51c2,2.41,3.78,4.91,5.57,7.41.89,1.23,1.83,2.51,2.66,3.89a14.58,14.58,0,0,1,1.93,4.65,6.91,6.91,0,0,1,0,2.83,6.11,6.11,0,0,1-.56,1.4l-.4.65c-.16.19-.33.36-.5.54a5.38,5.38,0,0,1-1.09.9,8.34,8.34,0,0,1-1.09.66c-.69.39-1.41.75-2.12,1.09a48.54,48.54,0,0,1-18.24,4.58Z"/><path class="cls-2" d="M341.63,249.75A70.38,70.38,0,0,1,353,269.52a49.29,49.29,0,0,1,2.59,11.31,42.2,42.2,0,0,1-.42,11.66,20.87,20.87,0,0,1-1.71,5.82,8.94,8.94,0,0,1-2,2.7,7.54,7.54,0,0,1-3.06,1.69,5.67,5.67,0,0,1-3.69-.23,6,6,0,0,1-2.71-2.39,8.49,8.49,0,0,1-1.17-3.12,18,18,0,0,1-.21-3c.19-7.43-1.05-14.8-2.33-22.29a60.33,60.33,0,0,1,3.53,10.85,56.75,56.75,0,0,1,1,5.66,51,51,0,0,1,.37,5.75,8.72,8.72,0,0,0,1.11,4.71,2.86,2.86,0,0,0,3.36,1.31,4.51,4.51,0,0,0,1.83-1,6.17,6.17,0,0,0,1.32-1.86,20.12,20.12,0,0,0,1.42-5,44.78,44.78,0,0,0-1.53-21.68C348.53,263.2,345.11,256.48,341.63,249.75Z"/><path class="cls-2" d="M341.14,279.88a29.63,29.63,0,0,1-1.05,11.2,37.25,37.25,0,0,1-4.72,10.22,44.93,44.93,0,0,1-3.42,4.51,8.13,8.13,0,0,1-2.44,2,4.35,4.35,0,0,1-1.75.47,3.36,3.36,0,0,1-1.92-.51,5.1,5.1,0,0,1-2-2.84,19.86,19.86,0,0,1-.7-2.86,55.13,55.13,0,0,1-.52-5.62,76.41,76.41,0,0,0-13.39-40.94,64.83,64.83,0,0,1,11.44,19,66.48,66.48,0,0,1,4.52,21.86,49.28,49.28,0,0,0,.34,5.37c.25,1.66.62,3.67,1.47,4.22a1.56,1.56,0,0,0,1.6,0,6.4,6.4,0,0,0,1.86-1.43,36.7,36.7,0,0,0,3.36-4.19c4-5.9,6.52-13.09,5.92-20.27Z"/><path class="cls-2" d="M351.27,266.33a21.64,21.64,0,0,0,2.66,3.44,31.08,31.08,0,0,0,3.17,3c1.13.93,2.29,1.83,3.51,2.65a30.36,30.36,0,0,0,3.68,2.23,15.13,15.13,0,0,0,3.95,1.25,8,8,0,0,0,1.93.11c.62,0,.9-.23.9-.28a1.94,1.94,0,0,0-.07-1.18,10.32,10.32,0,0,0-.76-1.83,27.24,27.24,0,0,0-2.29-3.64l2-1.5a31.1,31.1,0,0,1,2.62,3.92,12.73,12.73,0,0,1,1,2.34,5.56,5.56,0,0,1,.23,1.43,3.39,3.39,0,0,1-.41,1.78,3.05,3.05,0,0,1-1.49,1.27,4.82,4.82,0,0,1-1.51.32,11.33,11.33,0,0,1-2.57-.18,18,18,0,0,1-4.6-1.56,30.68,30.68,0,0,1-3.93-2.58,40.18,40.18,0,0,1-3.56-3A26.25,26.25,0,0,1,350,267Z"/><path class="cls-2" d="M226.45,536.85a96.68,96.68,0,0,1-5.75-26.05,136,136,0,0,1,.45-26.69l2.48.29a133.85,133.85,0,0,0-.87,26.24A94.83,94.83,0,0,0,228,536.29Z"/><path class="cls-2" d="M195,540.45a89.93,89.93,0,0,0,9.6-27.09,154.94,154.94,0,0,0,2.66-28.77l2.5,0a157.21,157.21,0,0,1-3.14,29.16,92.21,92.21,0,0,1-10.21,27.49Z"/><path class="cls-2" d="M361.46,122.71a18.82,18.82,0,0,0-3.11-7.56c-2.16-3.23-5-4.55-8.63-5.41a.72.72,0,0,0-.41,0,.79.79,0,0,0-.25.17,13,13,0,0,0-2.28,2.94,6.47,6.47,0,0,1,5.12.88c4.5,2.5,7,7,7.67,12a28,28,0,0,1,.13,6.4c-.13,1.25,0,4.11-1.48,4.66a12.65,12.65,0,0,1,2.27-.6,26.06,26.06,0,0,1,.75-3.14,26.62,26.62,0,0,0,.22-10.32Z"/><path class="cls-2" d="M332.75,134.47c-2-1.88-3.62-4.72-3-7.46a11.26,11.26,0,0,1,1.32-3.65,8.06,8.06,0,0,1,1-1.29c.46-.51,1.09-1.12.91-1.89s-.71-.82-1.32-.59c-1.35.51-2.42,2.29-2.94,3.54a10.11,10.11,0,0,0,.55,8.92,6.58,6.58,0,0,0,4.35,3.12A10.62,10.62,0,0,1,332.75,134.47Z"/><path class="cls-2" d="M328.27,125.56a11.26,11.26,0,0,0,1.06-4.13c-1,.54-1.9,1.12-2.86,1.69a31.23,31.23,0,0,0-3.06,1.33c-3.08,7.72-11.1,12.62-18.31,15.94a67.29,67.29,0,0,1-22.11,6,33.62,33.62,0,0,1-9.55-.55,24.39,24.39,0,0,1-4.54-1.24c-1.21-.5-2.81-.47-3.93-1.09a34.37,34.37,0,0,0,15,4.3,39.65,39.65,0,0,0,7.31-.08,65.62,65.62,0,0,0,8.21-1.67c9.25-2.46,19.11-6,26.24-12.57a35.94,35.94,0,0,0,5-5.32A15.65,15.65,0,0,0,328.27,125.56Z"/><path class="cls-2" d="M256,110.25c-.14-.27-2.46,1.29-2.67,1.54a12.82,12.82,0,0,0-1.66,2.59c-2.45,5.09-2.53,10.6-1.35,16.05a18.28,18.28,0,0,0,1.78,5,7,7,0,0,0,1.7,2.21,13.12,13.12,0,0,0,3.09,1.85c-4.45-2.45-5.6-9.7-5.26-14.25.38-5,3.23-9.17,6.24-13.11A4.71,4.71,0,0,1,256,110.25Z"/><path class="cls-12" d="M323.48,287s5.37,165.76-100,226.78C136.88,472.16,110.61,409.54,76.6,314.47c39-20.53,118.67-49.82,118.67-49.82A730.92,730.92,0,0,1,323.48,287Z"/><path class="cls-13" d="M222.62,502.27c-2-4.23-21-136-25.88-163.85-3.28,2.35-80.08-26.71-82.1-25.56,22.88-13,53.32-29.56,76.9-43.15C183,274.26,78.77,314.14,80.35,318.36c22.45,59.32,43.29,121,94.93,161.78a220.6,220.6,0,0,0,44.17,27.35c1.1.51,2.21,1,3.33,1.49.71.3,5.16-4.08,5.63-4.54q3.83-3.7,7.54-7.52,7.63-7.83,14.83-16.07a394.27,394.27,0,0,0,26.56-34C262.58,467,244.6,489.65,222.62,502.27Zm-25.86-12.93c-25.27-17.57-45.66-41.75-61.11-70.14-16.81-30.9-28-64.91-39.47-98.55l44.47,11.67c12,3.15,24.11,6.32,35.69,11.17a9.61,9.61,0,0,1,3.74,2.35A11.5,11.5,0,0,1,182,350c6.87,22.32,26.95,138.08,28.12,147.19C207.87,496.74,198.8,490.76,196.76,489.34Z"/><path class="cls-14" d="M294.07,298.75c-24.58,13.28-45.81,24.8-68.74,40.74.25,12.92,0,120.1,7.26,154.34,3.16-.39,7.72-6.55,10.19-8.7a145.21,145.21,0,0,0,11.22-11,164.25,164.25,0,0,0,19.11-25.58C284,430.67,291.88,411,297.53,390.87a343.12,343.12,0,0,0,12.55-90.46,39.73,39.73,0,0,0-1.44-9.34Q301.31,294.83,294.07,298.75Z"/><path class="cls-15" d="M253.31,387.17c14.61-13.59,29.71-26.65,44.47-40.07q5.07-4.61,10.07-9.28a345.25,345.25,0,0,0,2.23-37.41,39.73,39.73,0,0,0-1.44-9.34q-7.33,3.76-14.57,7.68c-9.53,5.15-18.55,10-27.36,15Q261.82,318.84,257,324c-10.84,11.72-21.31,23.78-31.53,36,.13,14,.37,33.25,1,53.11C235.29,404.36,244.19,395.65,253.31,387.17Z"/><path class="cls-15" d="M251.38,439.45q16.53-12.74,33-25.52l7.74-6q3-8.44,5.39-17.07,4.17-14.87,6.94-30.18-10.55,10.5-21.3,20.78-15.44,14.79-31.1,29.34Q239.64,422.42,227.2,434c.34,7.94.74,15.72,1.23,23Q239.92,448.28,251.38,439.45Z"/><path class="cls-5" d="M298.2,337.44a118,118,0,0,0-1.35-13.67.43.43,0,0,0-.84,0c-.53,4.34-1.2,8.66-1.79,13s-1.08,8.81-1.66,13.21c-.54,4.11-1.13,8.22-1.86,12.3-.37,2-.8,4.05-1.09,6.09-.4,2.71-.88,5.62-.38,8.36.18,1,1.52,1.66,2.23.7,2.79-3.77,3.63-8.72,4.39-13.25.74-4.35,1.39-8.73,1.8-13.13A112.23,112.23,0,0,0,298.2,337.44Z"/><path class="cls-5" d="M290.26,384.13l0-.45a3.29,3.29,0,0,0-.94-1.87,1.46,1.46,0,0,0-2-.06c-1.67,1.4-1.84,4.05-2.27,6.05-.24,1.13-.34,2.29-.61,3.41-.06.24-.13.49-.18.73a4.08,4.08,0,0,0-.05,1.83,2.42,2.42,0,0,0,.12,1.7,1.17,1.17,0,0,0,.77.62l1.95-1.2a4.64,4.64,0,0,0,.72-.75,17.85,17.85,0,0,0,1.57-3.61,15.93,15.93,0,0,0,.87-3.27A11.74,11.74,0,0,0,290.26,384.13Z"/><path class="cls-16" d="M182,350a11.5,11.5,0,0,0-1.92-4.16,9.61,9.61,0,0,0-3.74-2.35c-11.58-4.85-23.66-8-35.69-11.17L96.18,320.65c11.5,33.64,22.66,67.65,39.47,98.55,15.45,28.39,35.84,52.57,61.11,70.14,2,1.42,11.11,7.4,13.36,7.85C209,488.08,188.87,372.32,182,350Z"/><path class="cls-2" d="M223.47,512.54c1-.7,2-1.36,3-2,.52-.33,1-.59,1.55-1l1.68-1.1c2.26-1.44,4.43-3,6.61-4.55,4.29-3.19,8.48-6.53,12.44-10.13a170.56,170.56,0,0,0,21.61-23.72c12.92-17.12,22.81-36.42,30.34-56.52A333.37,333.37,0,0,0,317,351.27q2.63-15.91,4-32c.88-10.71,1.41-21.5,1.23-32.19h0l.93,1.19A730.7,730.7,0,0,0,195.2,265.53h0l.39,0q-15.08,5.64-30,11.54t-29.84,12c-9.9,4.1-19.78,8.28-29.55,12.67s-19.5,8.9-29,13.87h0l.61-1.56c7.19,20.05,14.47,40.06,22.69,59.68S118,412.54,129.42,430.4a214.48,214.48,0,0,0,41.29,48,222.25,222.25,0,0,0,25.55,18.85c4.46,2.85,9,5.53,13.68,8.1l3.5,1.89,1.75.94c.59.32,1.17.63,1.71.89C219.11,510.19,221.28,511.34,223.47,512.54Zm.1,2.54c-2.57-1.18-5.17-2.41-7.73-3.68-.66-.32-1.25-.63-1.83-.95l-1.77-.95-3.53-1.9c-4.68-2.6-9.31-5.3-13.82-8.19a223.81,223.81,0,0,1-25.84-19.07,217.17,217.17,0,0,1-41.78-48.56c-11.56-18-20.86-37.39-29.13-57.06S82.59,335,75.39,314.91L75,313.85l1-.5h0c9.57-5,19.35-9.43,29.18-13.77s19.75-8.47,29.69-12.53,19.93-8,30-11.86,20-7.67,30.13-11.37l.19-.07.2,0h0a731.32,731.32,0,0,1,128.46,22l.92.25,0,.94h0c.19,10.89-.35,21.68-1.23,32.48s-2.23,21.54-4,32.22a335.68,335.68,0,0,1-16.45,62.77c-7.59,20.28-17.58,39.8-30.69,57.16a173.1,173.1,0,0,1-21.93,24.07c-4,3.66-8.28,7.06-12.64,10.3-2.22,1.58-4.43,3.17-6.72,4.62l-1.71,1.12c-.56.38-1.26.78-1.89,1.15C226.2,513.65,224.88,514.38,223.57,515.08Z"/><g class="cls-17"><path class="cls-2" d="M212.33,502.37l-1.72-9.94-1.76-9.92-1.78-9.91-1.86-9.9c-2.56-13.18-5.17-26.34-8.16-39.42s-6-26.14-9.33-39.13l-2.48-9.75-2.57-9.73-5.17-19.44h0l1.26,1.34-24.37-8.16c-8.1-2.76-16.26-5.38-24.42-8s-16.38-5-24.61-7.41-16.51-4.61-24.82-6.81c8.49,1.31,16.94,2.93,25.34,4.76s16.75,3.93,25.07,6.12,16.55,4.7,24.76,7.27q6.14,2,12.24,4.06c4.06,1.43,8.12,2.85,12.14,4.37l1,.37.29,1h0c2,6.44,3.75,12.92,5.57,19.41l2.57,9.76,2.5,9.78q4.81,19.6,8.74,39.43c2.52,13.23,4.87,26.48,6.77,39.8.95,6.66,1.86,13.33,2.68,20S211.71,495.67,212.33,502.37Z"/></g><g class="cls-17"><path class="cls-2" d="M231.87,498c-1.06-6.48-2-13-2.89-19.5s-1.63-13-2.37-19.57c-1.47-13.07-2.49-26.19-3.34-39.32s-1.23-26.28-1.39-39.44q-.06-9.87,0-19.73c.13-6.58.25-13.15.53-19.72h0l0-1,.85-.6c3.43-2.43,6.92-4.76,10.41-7.11s7.05-4.58,10.59-6.84c7.14-4.43,14.33-8.8,21.65-12.93s14.7-8.17,22.23-11.91,15.11-7.37,22.83-10.67c-7.32,4.12-14.6,8.27-21.81,12.53s-14.39,8.56-21.46,13.05-14.16,8.92-21.15,13.51l-21.06,13.69.88-1.61h0l-.13,19.67q-.07,9.82,0,19.65c.05,13.11.27,26.21.74,39.31s1.11,26.19,1.91,39.29l.65,9.82.73,9.81.76,9.82Z"/></g></g></g></svg>